%TF.GenerationSoftware,KiCad,Pcbnew,9.0.9-9.0.9~ubuntu22.04.1*%
%TF.CreationDate,2026-09-22T08:18:59-04:00*%
%TF.ProjectId,fpm_afe,66706d5f-6166-4652-9e6b-696361645f70,rev?*%
%TF.SameCoordinates,Original*%
%TF.FileFunction,Copper,L3,Inr*%
%TF.FilePolarity,Positive*%
%FSLAX46Y46*%
G04 Gerber Fmt 4.6, Leading zero omitted, Abs format (unit mm)*
G04 Created by KiCad (PCBNEW 9.0.9-9.0.9~ubuntu22.04.1) date 2026-09-22 08:18:59*
%MOMM*%
%LPD*%
G01*
G04 APERTURE LIST*
%TA.AperFunction,ComponentPad*%
%ADD10C,0.508000*%
%TD*%
%TA.AperFunction,ComponentPad*%
%ADD11C,7.500000*%
%TD*%
%TA.AperFunction,ComponentPad*%
%ADD12C,0.500000*%
%TD*%
%TA.AperFunction,ComponentPad*%
%ADD13C,1.447800*%
%TD*%
%TA.AperFunction,HeatsinkPad*%
%ADD14C,0.500000*%
%TD*%
%TA.AperFunction,ComponentPad*%
%ADD15R,2.300000X2.300000*%
%TD*%
%TA.AperFunction,ComponentPad*%
%ADD16C,2.300000*%
%TD*%
%TA.AperFunction,ViaPad*%
%ADD17C,0.500000*%
%TD*%
%TA.AperFunction,ViaPad*%
%ADD18C,0.600000*%
%TD*%
%TA.AperFunction,Conductor*%
%ADD19C,0.304800*%
%TD*%
G04 APERTURE END LIST*
D10*
%TO.N,GND*%
%TO.C,U2*%
X145893599Y-73612500D03*
X144893599Y-73612500D03*
X143993599Y-73612500D03*
X145893599Y-74612500D03*
X144893599Y-74612500D03*
X143993599Y-74612500D03*
X145893599Y-75612500D03*
X144893599Y-75612500D03*
X143993599Y-75612500D03*
%TD*%
D11*
%TO.N,GND*%
%TO.C,MT3*%
X129540000Y-109061001D03*
%TD*%
D10*
%TO.N,GND*%
%TO.C,U5*%
X144255200Y-99034700D03*
X143455200Y-99034700D03*
X142655200Y-99034700D03*
X144255200Y-99834700D03*
X143455200Y-99834700D03*
X142655200Y-99834700D03*
X144255200Y-100634700D03*
X143455200Y-100634700D03*
X142655200Y-100634700D03*
%TD*%
D12*
%TO.N,GND*%
%TO.C,J3*%
X144773600Y-109982000D03*
X144623600Y-109382000D03*
X144523600Y-110582000D03*
X144373600Y-108782000D03*
X144373600Y-108132000D03*
X144373600Y-107482000D03*
X144023600Y-110982000D03*
X143323600Y-110982000D03*
X143073600Y-108782000D03*
X143073600Y-108132000D03*
X143073600Y-107482000D03*
X142823600Y-110582000D03*
X142814300Y-109382000D03*
X142673600Y-109982000D03*
%TD*%
D13*
%TO.N,Net-(J4-Pad1)*%
%TO.C,J4*%
X171864000Y-109982000D03*
%TO.N,GND*%
X171864000Y-107981999D03*
%TO.N,Net-(J4-Pad3)*%
X173864001Y-109982000D03*
%TO.N,GND*%
X173864001Y-107981999D03*
%TO.N,Net-(J4-Pad5)*%
X175864000Y-109982000D03*
%TO.N,GND*%
X175864000Y-107981999D03*
%TO.N,unconnected-(J4-Pad7)*%
X177864001Y-109982000D03*
%TO.N,GND*%
X177864001Y-107981999D03*
%TO.N,unconnected-(J4-Pad9)*%
X179864002Y-109982000D03*
%TO.N,GND*%
X179864002Y-107981999D03*
%TO.N,unconnected-(J4-Pad11)*%
X181864000Y-109982000D03*
%TO.N,GND*%
X181864000Y-107981999D03*
%TO.N,unconnected-(J4-Pad13)*%
X183864002Y-109982000D03*
%TO.N,GND*%
X183864002Y-107981999D03*
%TD*%
D10*
%TO.N,GND*%
%TO.C,U4*%
X155955199Y-55981700D03*
X155155199Y-55981700D03*
X154355199Y-55981700D03*
X155955199Y-56781700D03*
X155155199Y-56781700D03*
X154355199Y-56781700D03*
X155955199Y-57581700D03*
X155155199Y-57581700D03*
X154355199Y-57581700D03*
%TD*%
D11*
%TO.N,GND*%
%TO.C,MT1*%
X129540000Y-43180000D03*
%TD*%
D12*
%TO.N,GND*%
%TO.C,J2*%
X154384750Y-43741600D03*
X154534750Y-44341600D03*
X154634750Y-43141600D03*
X154784750Y-44941600D03*
X154784750Y-45591600D03*
X154784750Y-46241600D03*
X155134750Y-42741600D03*
X155834750Y-42741600D03*
X156084750Y-44941600D03*
X156084750Y-45591600D03*
X156084750Y-46241600D03*
X156334750Y-43141600D03*
X156344050Y-44341600D03*
X156484750Y-43741600D03*
%TD*%
D11*
%TO.N,GND*%
%TO.C,MT2*%
X195580000Y-43180000D03*
%TD*%
%TO.N,GND*%
%TO.C,MT4*%
X195580000Y-109061001D03*
%TD*%
D14*
%TO.N,GND*%
%TO.C,U1*%
X188500000Y-77740000D03*
X188500000Y-78740000D03*
X188500000Y-79740000D03*
X189500000Y-77740000D03*
X189500000Y-78740000D03*
X189500000Y-79740000D03*
X190500000Y-77740000D03*
X190500000Y-78740000D03*
X190500000Y-79740000D03*
%TD*%
D15*
%TO.N,GND*%
%TO.C,J1*%
X190345000Y-96720000D03*
D16*
%TO.N,/+12v*%
X184845000Y-96720000D03*
%TD*%
D12*
%TO.N,GND*%
%TO.C,J5*%
X167196000Y-67530000D03*
X166596000Y-67680000D03*
X167796000Y-67780000D03*
X165996000Y-67930000D03*
X165346000Y-67930000D03*
X164696000Y-67930000D03*
X168196000Y-68280000D03*
X168196000Y-68980000D03*
X165996000Y-69230000D03*
X165346000Y-69230000D03*
X164696000Y-69230000D03*
X167796000Y-69480000D03*
X166596000Y-69489300D03*
X167196000Y-69630000D03*
%TD*%
D17*
%TO.N,GND*%
X145000000Y-79600000D03*
X145000000Y-80700000D03*
X144900000Y-81800000D03*
X142100000Y-81800000D03*
X142100000Y-80600000D03*
X142200000Y-79500000D03*
X158000000Y-70000000D03*
X158100000Y-67200000D03*
X159000000Y-67200000D03*
X159900000Y-67200000D03*
X161000000Y-67200000D03*
X162000000Y-67800000D03*
X163300000Y-67800000D03*
X163300000Y-69500000D03*
X162200000Y-69500000D03*
X161100000Y-70000000D03*
X160000000Y-70000000D03*
X159000000Y-70000000D03*
X157400000Y-69500000D03*
X157300000Y-67700000D03*
X145100000Y-106200000D03*
X145100000Y-105100000D03*
X145100000Y-104100000D03*
X145000000Y-103100000D03*
X142400000Y-106200000D03*
X142400000Y-105200000D03*
X142400000Y-104100000D03*
X142400000Y-103100000D03*
X144500000Y-96600000D03*
X142800000Y-96600000D03*
X142300000Y-95500000D03*
X142300000Y-94500000D03*
X142300000Y-93500000D03*
X144900000Y-95400000D03*
X145000000Y-94400000D03*
X144900000Y-93400000D03*
X144400000Y-92300000D03*
X142600000Y-92400000D03*
X144300000Y-89300000D03*
X142900000Y-89600000D03*
X142900000Y-88700000D03*
X144400000Y-70600000D03*
X144600000Y-69600000D03*
X142800000Y-70700000D03*
X142800000Y-69700000D03*
X143200000Y-68500000D03*
X144000000Y-67800000D03*
D18*
%TO.N,*%
X146390000Y-93800000D03*
%TO.N,GND*%
X194564000Y-83312000D03*
D17*
X156100000Y-59800000D03*
X156100000Y-61300000D03*
D18*
X149460000Y-93670000D03*
X181102000Y-74168000D03*
X191770000Y-69596000D03*
D17*
X144200000Y-82900000D03*
X143000000Y-82800000D03*
X156100000Y-53050000D03*
X154700000Y-53050000D03*
D18*
X180086000Y-78232000D03*
D17*
X143100000Y-78100000D03*
D18*
X190451000Y-70661000D03*
D17*
X144300000Y-78100000D03*
D18*
X193294000Y-82296000D03*
X150360000Y-76370000D03*
X147810000Y-93740000D03*
X186944000Y-69596000D03*
D17*
X156100000Y-48750000D03*
X156100000Y-48000000D03*
X154700000Y-61300000D03*
X156100000Y-47250000D03*
D18*
X152050000Y-71800000D03*
X150970000Y-74620000D03*
D17*
X143000000Y-83500000D03*
X154750000Y-48000000D03*
D18*
X197309000Y-77167000D03*
D17*
X156100000Y-60550000D03*
D18*
X152100000Y-73430000D03*
D17*
X154700000Y-52300000D03*
D18*
X188263000Y-70661000D03*
D17*
X154700000Y-53800000D03*
X156100000Y-52300000D03*
X154750000Y-47250000D03*
X154750000Y-48750000D03*
X144300000Y-78850000D03*
D18*
X180086000Y-75692000D03*
X181102000Y-80010000D03*
D17*
X156100000Y-53800000D03*
D18*
X198374000Y-75692000D03*
D17*
X154700000Y-59800000D03*
X143100000Y-78850000D03*
X154700000Y-60550000D03*
D18*
%TO.N,+5.0V*%
X184060000Y-73850000D03*
X183180000Y-73850000D03*
X151892000Y-76342000D03*
X149398000Y-90180000D03*
X150310000Y-91030000D03*
X148880000Y-74600000D03*
X185000000Y-73830000D03*
X149840000Y-74590000D03*
%TO.N,Net-(U2-\u002AP{slash}S)*%
X149400000Y-78890000D03*
X145450000Y-70870000D03*
%TO.N,/atten_si*%
X172632000Y-97270000D03*
X148330000Y-76370000D03*
%TO.N,/atten_le*%
X170430000Y-97230000D03*
X146143599Y-78123599D03*
%TO.N,/atten_clk*%
X174830000Y-97210000D03*
X146970000Y-78130000D03*
%TO.N,/+12v*%
X194310000Y-77216000D03*
X193294000Y-77216000D03*
X194310000Y-73660000D03*
X192786000Y-78740000D03*
X193294000Y-73660000D03*
%TD*%
D19*
%TO.N,Net-(U2-\u002AP{slash}S)*%
X149400000Y-78890000D02*
X147300000Y-76790000D01*
X147300000Y-76790000D02*
X147300000Y-72720000D01*
X147300000Y-72720000D02*
X145450000Y-70870000D01*
%TD*%
%TA.AperFunction,Conductor*%
%TO.N,+5.0V*%
G36*
X166301533Y-72717593D02*
G01*
X166315721Y-72733421D01*
X166343972Y-72775701D01*
X166380023Y-72829655D01*
X166380025Y-72829657D01*
X166380028Y-72829661D01*
X166526339Y-72975972D01*
X166526342Y-72975974D01*
X166526345Y-72975977D01*
X166698402Y-73090941D01*
X166889580Y-73170130D01*
X167041796Y-73200407D01*
X167092534Y-73210500D01*
X167092535Y-73210500D01*
X167299466Y-73210500D01*
X167340056Y-73202426D01*
X167502420Y-73170130D01*
X167693598Y-73090941D01*
X167865655Y-72975977D01*
X168011977Y-72829655D01*
X168049543Y-72773432D01*
X168076279Y-72733421D01*
X168117762Y-72703004D01*
X168138805Y-72700000D01*
X185855600Y-72700000D01*
X185871027Y-72705615D01*
X185887381Y-72707046D01*
X185900825Y-72716460D01*
X185903938Y-72717593D01*
X185908774Y-72722026D01*
X186011974Y-72825226D01*
X186033714Y-72871846D01*
X186034000Y-72878400D01*
X186034000Y-81164852D01*
X186016407Y-81213190D01*
X186011974Y-81218026D01*
X185742026Y-81487974D01*
X185695406Y-81509714D01*
X185688852Y-81510000D01*
X181040000Y-81510000D01*
X180960000Y-81589999D01*
X180960000Y-94275252D01*
X180954385Y-94290679D01*
X180952954Y-94307034D01*
X180943539Y-94320479D01*
X180942407Y-94323590D01*
X180937984Y-94328415D01*
X180901937Y-94364463D01*
X180855316Y-94386202D01*
X180848978Y-94386488D01*
X148174911Y-94479786D01*
X148126523Y-94462330D01*
X148100676Y-94417856D01*
X148099498Y-94405097D01*
X148097621Y-94124525D01*
X148114889Y-94076075D01*
X148119634Y-94070862D01*
X148172410Y-94018087D01*
X148232036Y-93914813D01*
X148262900Y-93799625D01*
X148262900Y-93680375D01*
X148244144Y-93610375D01*
X149007100Y-93610375D01*
X149007100Y-93729625D01*
X149025856Y-93799625D01*
X149037964Y-93844813D01*
X149037964Y-93844814D01*
X149097589Y-93948087D01*
X149181912Y-94032410D01*
X149241538Y-94066834D01*
X149285187Y-94092036D01*
X149400375Y-94122900D01*
X149400378Y-94122900D01*
X149519622Y-94122900D01*
X149519625Y-94122900D01*
X149634813Y-94092036D01*
X149738087Y-94032410D01*
X149822410Y-93948087D01*
X149882036Y-93844813D01*
X149912900Y-93729625D01*
X149912900Y-93610375D01*
X149882036Y-93495187D01*
X149829374Y-93403974D01*
X149822410Y-93391912D01*
X149738087Y-93307589D01*
X149634813Y-93247964D01*
X149519625Y-93217100D01*
X149400375Y-93217100D01*
X149313984Y-93240248D01*
X149285186Y-93247964D01*
X149285185Y-93247964D01*
X149181912Y-93307589D01*
X149097589Y-93391912D01*
X149037964Y-93495185D01*
X149037964Y-93495186D01*
X149037964Y-93495187D01*
X149007100Y-93610375D01*
X148244144Y-93610375D01*
X148232036Y-93565187D01*
X148191621Y-93495187D01*
X148172411Y-93461914D01*
X148172410Y-93461913D01*
X148114469Y-93403972D01*
X148092730Y-93357354D01*
X148092447Y-93351336D01*
X148002776Y-79950375D01*
X180649100Y-79950375D01*
X180649100Y-80069625D01*
X180679964Y-80184813D01*
X180679964Y-80184814D01*
X180739589Y-80288087D01*
X180823912Y-80372410D01*
X180883538Y-80406834D01*
X180927187Y-80432036D01*
X181042375Y-80462900D01*
X181042378Y-80462900D01*
X181161622Y-80462900D01*
X181161625Y-80462900D01*
X181276813Y-80432036D01*
X181380087Y-80372410D01*
X181464410Y-80288087D01*
X181524036Y-80184813D01*
X181554900Y-80069625D01*
X181554900Y-79950375D01*
X181524036Y-79835187D01*
X181524035Y-79835185D01*
X181464410Y-79731912D01*
X181380087Y-79647589D01*
X181276813Y-79587964D01*
X181161625Y-79557100D01*
X181042375Y-79557100D01*
X180955984Y-79580248D01*
X180927186Y-79587964D01*
X180927185Y-79587964D01*
X180823912Y-79647589D01*
X180739589Y-79731912D01*
X180679964Y-79835185D01*
X180679964Y-79835186D01*
X180679964Y-79835187D01*
X180649100Y-79950375D01*
X148002776Y-79950375D01*
X147990355Y-78094161D01*
X148007624Y-78045709D01*
X148051999Y-78019691D01*
X148102716Y-78028285D01*
X148118727Y-78040486D01*
X148925074Y-78846833D01*
X148946814Y-78893453D01*
X148947100Y-78900007D01*
X148947100Y-78949625D01*
X148977964Y-79064813D01*
X148977964Y-79064814D01*
X149037589Y-79168087D01*
X149121912Y-79252410D01*
X149181538Y-79286834D01*
X149225187Y-79312036D01*
X149340375Y-79342900D01*
X149340378Y-79342900D01*
X149459622Y-79342900D01*
X149459625Y-79342900D01*
X149574813Y-79312036D01*
X149678087Y-79252410D01*
X149762410Y-79168087D01*
X149822036Y-79064813D01*
X149852900Y-78949625D01*
X149852900Y-78830375D01*
X149822036Y-78715187D01*
X149786730Y-78654036D01*
X149762410Y-78611912D01*
X149678087Y-78527589D01*
X149574813Y-78467964D01*
X149459625Y-78437100D01*
X149459622Y-78437100D01*
X149410007Y-78437100D01*
X149361669Y-78419507D01*
X149356833Y-78415074D01*
X149114134Y-78172375D01*
X179633100Y-78172375D01*
X179633100Y-78291625D01*
X179663964Y-78406813D01*
X179663964Y-78406814D01*
X179723589Y-78510087D01*
X179807912Y-78594410D01*
X179867538Y-78628834D01*
X179911187Y-78654036D01*
X180026375Y-78684900D01*
X180026378Y-78684900D01*
X180145622Y-78684900D01*
X180145625Y-78684900D01*
X180260813Y-78654036D01*
X180364087Y-78594410D01*
X180448410Y-78510087D01*
X180508036Y-78406813D01*
X180538900Y-78291625D01*
X180538900Y-78172375D01*
X180508036Y-78057187D01*
X180491349Y-78028285D01*
X180448410Y-77953912D01*
X180364087Y-77869589D01*
X180260813Y-77809964D01*
X180145625Y-77779100D01*
X180026375Y-77779100D01*
X179939984Y-77802248D01*
X179911186Y-77809964D01*
X179911185Y-77809964D01*
X179807912Y-77869589D01*
X179723589Y-77953912D01*
X179663964Y-78057185D01*
X179663964Y-78057186D01*
X179663964Y-78057187D01*
X179633100Y-78172375D01*
X149114134Y-78172375D01*
X148005129Y-77063370D01*
X147983389Y-77016750D01*
X147983105Y-77010712D01*
X147981847Y-76822708D01*
X147999116Y-76774256D01*
X148043491Y-76748238D01*
X148094208Y-76756832D01*
X148094645Y-76757082D01*
X148122780Y-76773325D01*
X148155187Y-76792036D01*
X148270375Y-76822900D01*
X148270378Y-76822900D01*
X148389622Y-76822900D01*
X148389625Y-76822900D01*
X148504813Y-76792036D01*
X148608087Y-76732410D01*
X148692410Y-76648087D01*
X148752036Y-76544813D01*
X148782900Y-76429625D01*
X148782900Y-76310375D01*
X149907100Y-76310375D01*
X149907100Y-76429625D01*
X149927432Y-76505506D01*
X149937964Y-76544813D01*
X149937964Y-76544814D01*
X149997589Y-76648087D01*
X150081912Y-76732410D01*
X150141538Y-76766834D01*
X150185187Y-76792036D01*
X150300375Y-76822900D01*
X150300378Y-76822900D01*
X150419622Y-76822900D01*
X150419625Y-76822900D01*
X150534813Y-76792036D01*
X150638087Y-76732410D01*
X150722410Y-76648087D01*
X150782036Y-76544813D01*
X150812900Y-76429625D01*
X150812900Y-76310375D01*
X150782036Y-76195187D01*
X150782035Y-76195185D01*
X150722410Y-76091912D01*
X150638087Y-76007589D01*
X150534813Y-75947964D01*
X150419625Y-75917100D01*
X150300375Y-75917100D01*
X150213984Y-75940248D01*
X150185186Y-75947964D01*
X150185185Y-75947964D01*
X150081912Y-76007589D01*
X149997589Y-76091912D01*
X149937964Y-76195185D01*
X149937964Y-76195186D01*
X149937964Y-76195187D01*
X149907100Y-76310375D01*
X148782900Y-76310375D01*
X148752036Y-76195187D01*
X148752035Y-76195185D01*
X148692410Y-76091912D01*
X148608087Y-76007589D01*
X148504813Y-75947964D01*
X148389625Y-75917100D01*
X148270375Y-75917100D01*
X148183984Y-75940248D01*
X148155186Y-75947964D01*
X148155181Y-75947966D01*
X148088615Y-75986398D01*
X148037957Y-75995330D01*
X147993409Y-75969610D01*
X147975819Y-75921779D01*
X147973882Y-75632375D01*
X179633100Y-75632375D01*
X179633100Y-75751625D01*
X179663964Y-75866813D01*
X179663964Y-75866814D01*
X179723589Y-75970087D01*
X179807912Y-76054410D01*
X179867538Y-76088834D01*
X179911187Y-76114036D01*
X180026375Y-76144900D01*
X180026378Y-76144900D01*
X180145622Y-76144900D01*
X180145625Y-76144900D01*
X180260813Y-76114036D01*
X180364087Y-76054410D01*
X180448410Y-75970087D01*
X180508036Y-75866813D01*
X180538900Y-75751625D01*
X180538900Y-75632375D01*
X180508036Y-75517187D01*
X180508035Y-75517185D01*
X180448410Y-75413912D01*
X180364087Y-75329589D01*
X180260813Y-75269964D01*
X180145625Y-75239100D01*
X180026375Y-75239100D01*
X179939984Y-75262248D01*
X179911186Y-75269964D01*
X179911185Y-75269964D01*
X179807912Y-75329589D01*
X179723589Y-75413912D01*
X179663964Y-75517185D01*
X179663964Y-75517186D01*
X179663964Y-75517187D01*
X179633100Y-75632375D01*
X147973882Y-75632375D01*
X147966709Y-74560375D01*
X150517100Y-74560375D01*
X150517100Y-74679625D01*
X150547964Y-74794813D01*
X150547964Y-74794814D01*
X150607589Y-74898087D01*
X150691912Y-74982410D01*
X150751538Y-75016834D01*
X150795187Y-75042036D01*
X150910375Y-75072900D01*
X150910378Y-75072900D01*
X151029622Y-75072900D01*
X151029625Y-75072900D01*
X151144813Y-75042036D01*
X151248087Y-74982410D01*
X151332410Y-74898087D01*
X151392036Y-74794813D01*
X151422900Y-74679625D01*
X151422900Y-74560375D01*
X151392036Y-74445187D01*
X151392035Y-74445185D01*
X151332410Y-74341912D01*
X151248087Y-74257589D01*
X151144813Y-74197964D01*
X151029625Y-74167100D01*
X150910375Y-74167100D01*
X150823984Y-74190248D01*
X150795186Y-74197964D01*
X150795185Y-74197964D01*
X150691912Y-74257589D01*
X150607589Y-74341912D01*
X150547964Y-74445185D01*
X150547964Y-74445186D01*
X150547964Y-74445187D01*
X150517100Y-74560375D01*
X147966709Y-74560375D01*
X147963684Y-74108375D01*
X180649100Y-74108375D01*
X180649100Y-74227625D01*
X180679723Y-74341912D01*
X180679964Y-74342813D01*
X180679964Y-74342814D01*
X180739589Y-74446087D01*
X180823912Y-74530410D01*
X180875813Y-74560375D01*
X180927187Y-74590036D01*
X181042375Y-74620900D01*
X181042378Y-74620900D01*
X181161622Y-74620900D01*
X181161625Y-74620900D01*
X181276813Y-74590036D01*
X181380087Y-74530410D01*
X181464410Y-74446087D01*
X181524036Y-74342813D01*
X181554900Y-74227625D01*
X181554900Y-74108375D01*
X181524036Y-73993187D01*
X181524035Y-73993185D01*
X181464410Y-73889912D01*
X181380087Y-73805589D01*
X181276813Y-73745964D01*
X181161625Y-73715100D01*
X181042375Y-73715100D01*
X180955984Y-73738248D01*
X180927186Y-73745964D01*
X180927185Y-73745964D01*
X180823912Y-73805589D01*
X180739589Y-73889912D01*
X180679964Y-73993185D01*
X180679964Y-73993186D01*
X180679964Y-73993187D01*
X180649100Y-74108375D01*
X147963684Y-74108375D01*
X147958746Y-73370375D01*
X151647100Y-73370375D01*
X151647100Y-73489625D01*
X151677964Y-73604813D01*
X151677964Y-73604814D01*
X151737589Y-73708087D01*
X151821912Y-73792410D01*
X151844739Y-73805589D01*
X151925187Y-73852036D01*
X152040375Y-73882900D01*
X152040378Y-73882900D01*
X152159622Y-73882900D01*
X152159625Y-73882900D01*
X152274813Y-73852036D01*
X152378087Y-73792410D01*
X152462410Y-73708087D01*
X152522036Y-73604813D01*
X152552900Y-73489625D01*
X152552900Y-73370375D01*
X152522036Y-73255187D01*
X152472928Y-73170130D01*
X152462410Y-73151912D01*
X152378087Y-73067589D01*
X152274813Y-73007964D01*
X152159625Y-72977100D01*
X152040375Y-72977100D01*
X151953984Y-73000248D01*
X151925186Y-73007964D01*
X151925185Y-73007964D01*
X151821912Y-73067589D01*
X151737589Y-73151912D01*
X151677964Y-73255185D01*
X151677964Y-73255186D01*
X151677964Y-73255187D01*
X151647100Y-73370375D01*
X147958746Y-73370375D01*
X147954767Y-72775701D01*
X147972036Y-72727249D01*
X148016411Y-72701231D01*
X148029965Y-72700000D01*
X166253195Y-72700000D01*
X166301533Y-72717593D01*
G37*
%TD.AperFunction*%
%TD*%
%TA.AperFunction,Conductor*%
%TO.N,/+12v*%
G36*
X198107138Y-72407593D02*
G01*
X198132858Y-72452142D01*
X198134000Y-72465200D01*
X198134000Y-75205524D01*
X198116407Y-75253862D01*
X198096402Y-75270648D01*
X198064717Y-75288942D01*
X197970943Y-75382716D01*
X197970939Y-75382722D01*
X197904627Y-75497577D01*
X197887463Y-75561633D01*
X197870300Y-75625687D01*
X197870300Y-75758313D01*
X197896045Y-75854394D01*
X197904627Y-75886422D01*
X197970939Y-76001277D01*
X197970943Y-76001283D01*
X198064716Y-76095056D01*
X198064719Y-76095058D01*
X198064721Y-76095060D01*
X198096400Y-76113350D01*
X198129464Y-76152753D01*
X198134000Y-76178474D01*
X198134000Y-91288852D01*
X198116407Y-91337190D01*
X198111974Y-91342026D01*
X197126026Y-92327974D01*
X197079406Y-92349714D01*
X197072852Y-92350000D01*
X189336000Y-92350000D01*
X187960000Y-93725999D01*
X187960000Y-98774852D01*
X187942407Y-98823190D01*
X187937974Y-98828026D01*
X187474026Y-99291974D01*
X187427406Y-99313714D01*
X187420852Y-99314000D01*
X182911148Y-99314000D01*
X182862810Y-99296407D01*
X182857974Y-99291974D01*
X182648026Y-99082026D01*
X182626286Y-99035406D01*
X182626000Y-99028852D01*
X182626000Y-87451200D01*
X182643593Y-87402862D01*
X182688142Y-87377142D01*
X182701200Y-87376000D01*
X191918000Y-87376000D01*
X192680000Y-86614000D01*
X192680000Y-83245687D01*
X194060300Y-83245687D01*
X194060300Y-83378313D01*
X194086045Y-83474394D01*
X194094627Y-83506422D01*
X194160939Y-83621277D01*
X194160943Y-83621283D01*
X194254716Y-83715056D01*
X194254719Y-83715058D01*
X194254721Y-83715060D01*
X194369579Y-83781373D01*
X194497687Y-83815700D01*
X194497690Y-83815700D01*
X194630310Y-83815700D01*
X194630313Y-83815700D01*
X194758421Y-83781373D01*
X194873279Y-83715060D01*
X194967060Y-83621279D01*
X195033373Y-83506421D01*
X195067700Y-83378313D01*
X195067700Y-83245687D01*
X195033373Y-83117579D01*
X194967060Y-83002721D01*
X194967058Y-83002719D01*
X194967056Y-83002716D01*
X194873283Y-82908943D01*
X194873277Y-82908939D01*
X194758422Y-82842627D01*
X194726394Y-82834045D01*
X194630313Y-82808300D01*
X194497687Y-82808300D01*
X194420822Y-82828896D01*
X194369577Y-82842627D01*
X194254722Y-82908939D01*
X194254716Y-82908943D01*
X194160943Y-83002716D01*
X194160939Y-83002722D01*
X194094627Y-83117577D01*
X194077463Y-83181633D01*
X194060300Y-83245687D01*
X192680000Y-83245687D01*
X192680000Y-82519316D01*
X192697593Y-82470978D01*
X192742142Y-82445258D01*
X192792800Y-82454191D01*
X192821275Y-82486663D01*
X192822162Y-82486152D01*
X192890939Y-82605277D01*
X192890943Y-82605283D01*
X192984716Y-82699056D01*
X192984719Y-82699058D01*
X192984721Y-82699060D01*
X193099579Y-82765373D01*
X193227687Y-82799700D01*
X193227690Y-82799700D01*
X193360310Y-82799700D01*
X193360313Y-82799700D01*
X193488421Y-82765373D01*
X193603279Y-82699060D01*
X193697060Y-82605279D01*
X193763373Y-82490421D01*
X193797700Y-82362313D01*
X193797700Y-82229687D01*
X193763373Y-82101579D01*
X193697060Y-81986721D01*
X193697058Y-81986719D01*
X193697056Y-81986716D01*
X193603283Y-81892943D01*
X193603277Y-81892939D01*
X193488422Y-81826627D01*
X193456394Y-81818045D01*
X193360313Y-81792300D01*
X193227687Y-81792300D01*
X193150822Y-81812896D01*
X193099577Y-81826627D01*
X192984722Y-81892939D01*
X192984716Y-81892943D01*
X192890943Y-81986716D01*
X192890939Y-81986722D01*
X192822162Y-82105848D01*
X192821176Y-82105279D01*
X192789924Y-82139386D01*
X192738924Y-82146101D01*
X192695540Y-82118462D01*
X192680000Y-82072683D01*
X192680000Y-77100687D01*
X196805300Y-77100687D01*
X196805300Y-77233313D01*
X196819498Y-77286300D01*
X196839627Y-77361422D01*
X196905939Y-77476277D01*
X196905943Y-77476283D01*
X196999716Y-77570056D01*
X196999719Y-77570058D01*
X196999721Y-77570060D01*
X197114579Y-77636373D01*
X197242687Y-77670700D01*
X197242690Y-77670700D01*
X197375310Y-77670700D01*
X197375313Y-77670700D01*
X197503421Y-77636373D01*
X197618279Y-77570060D01*
X197712060Y-77476279D01*
X197778373Y-77361421D01*
X197812700Y-77233313D01*
X197812700Y-77100687D01*
X197778373Y-76972579D01*
X197712060Y-76857721D01*
X197712058Y-76857719D01*
X197712056Y-76857716D01*
X197618283Y-76763943D01*
X197618277Y-76763939D01*
X197503422Y-76697627D01*
X197471394Y-76689045D01*
X197375313Y-76663300D01*
X197242687Y-76663300D01*
X197165822Y-76683896D01*
X197114577Y-76697627D01*
X196999722Y-76763939D01*
X196999716Y-76763943D01*
X196905943Y-76857716D01*
X196905939Y-76857722D01*
X196839627Y-76972577D01*
X196822463Y-77036633D01*
X196805300Y-77100687D01*
X192680000Y-77100687D01*
X192680000Y-72878400D01*
X192697593Y-72830062D01*
X192702026Y-72825226D01*
X193115226Y-72412026D01*
X193161846Y-72390286D01*
X193168400Y-72390000D01*
X198058800Y-72390000D01*
X198107138Y-72407593D01*
G37*
%TD.AperFunction*%
%TD*%
M02*
