%TF.GenerationSoftware,KiCad,Pcbnew,9.0.9-9.0.9~ubuntu22.04.1*%
%TF.CreationDate,2026-09-22T08:18:59-04:00*%
%TF.ProjectId,fpm_afe,66706d5f-6166-4652-9e6b-696361645f70,rev?*%
%TF.SameCoordinates,Original*%
%TF.FileFunction,Copper,L2,Inr*%
%TF.FilePolarity,Positive*%
%FSLAX46Y46*%
G04 Gerber Fmt 4.6, Leading zero omitted, Abs format (unit mm)*
G04 Created by KiCad (PCBNEW 9.0.9-9.0.9~ubuntu22.04.1) date 2026-09-22 08:18:59*
%MOMM*%
%LPD*%
G01*
G04 APERTURE LIST*
%TA.AperFunction,ComponentPad*%
%ADD10C,0.508000*%
%TD*%
%TA.AperFunction,ComponentPad*%
%ADD11C,7.500000*%
%TD*%
%TA.AperFunction,ComponentPad*%
%ADD12C,0.500000*%
%TD*%
%TA.AperFunction,ComponentPad*%
%ADD13C,1.447800*%
%TD*%
%TA.AperFunction,HeatsinkPad*%
%ADD14C,0.500000*%
%TD*%
%TA.AperFunction,ComponentPad*%
%ADD15R,2.300000X2.300000*%
%TD*%
%TA.AperFunction,ComponentPad*%
%ADD16C,2.300000*%
%TD*%
%TA.AperFunction,ViaPad*%
%ADD17C,0.500000*%
%TD*%
%TA.AperFunction,ViaPad*%
%ADD18C,0.600000*%
%TD*%
G04 APERTURE END LIST*
D10*
%TO.N,GND*%
%TO.C,U2*%
X145893599Y-73612500D03*
X144893599Y-73612500D03*
X143993599Y-73612500D03*
X145893599Y-74612500D03*
X144893599Y-74612500D03*
X143993599Y-74612500D03*
X145893599Y-75612500D03*
X144893599Y-75612500D03*
X143993599Y-75612500D03*
%TD*%
D11*
%TO.N,GND*%
%TO.C,MT3*%
X129540000Y-109061001D03*
%TD*%
D10*
%TO.N,GND*%
%TO.C,U5*%
X144255200Y-99034700D03*
X143455200Y-99034700D03*
X142655200Y-99034700D03*
X144255200Y-99834700D03*
X143455200Y-99834700D03*
X142655200Y-99834700D03*
X144255200Y-100634700D03*
X143455200Y-100634700D03*
X142655200Y-100634700D03*
%TD*%
D12*
%TO.N,GND*%
%TO.C,J3*%
X144773600Y-109982000D03*
X144623600Y-109382000D03*
X144523600Y-110582000D03*
X144373600Y-108782000D03*
X144373600Y-108132000D03*
X144373600Y-107482000D03*
X144023600Y-110982000D03*
X143323600Y-110982000D03*
X143073600Y-108782000D03*
X143073600Y-108132000D03*
X143073600Y-107482000D03*
X142823600Y-110582000D03*
X142814300Y-109382000D03*
X142673600Y-109982000D03*
%TD*%
D13*
%TO.N,Net-(J4-Pad1)*%
%TO.C,J4*%
X171864000Y-109982000D03*
%TO.N,GND*%
X171864000Y-107981999D03*
%TO.N,Net-(J4-Pad3)*%
X173864001Y-109982000D03*
%TO.N,GND*%
X173864001Y-107981999D03*
%TO.N,Net-(J4-Pad5)*%
X175864000Y-109982000D03*
%TO.N,GND*%
X175864000Y-107981999D03*
%TO.N,unconnected-(J4-Pad7)*%
X177864001Y-109982000D03*
%TO.N,GND*%
X177864001Y-107981999D03*
%TO.N,unconnected-(J4-Pad9)*%
X179864002Y-109982000D03*
%TO.N,GND*%
X179864002Y-107981999D03*
%TO.N,unconnected-(J4-Pad11)*%
X181864000Y-109982000D03*
%TO.N,GND*%
X181864000Y-107981999D03*
%TO.N,unconnected-(J4-Pad13)*%
X183864002Y-109982000D03*
%TO.N,GND*%
X183864002Y-107981999D03*
%TD*%
D10*
%TO.N,GND*%
%TO.C,U4*%
X155955199Y-55981700D03*
X155155199Y-55981700D03*
X154355199Y-55981700D03*
X155955199Y-56781700D03*
X155155199Y-56781700D03*
X154355199Y-56781700D03*
X155955199Y-57581700D03*
X155155199Y-57581700D03*
X154355199Y-57581700D03*
%TD*%
D11*
%TO.N,GND*%
%TO.C,MT1*%
X129540000Y-43180000D03*
%TD*%
D12*
%TO.N,GND*%
%TO.C,J2*%
X154384750Y-43741600D03*
X154534750Y-44341600D03*
X154634750Y-43141600D03*
X154784750Y-44941600D03*
X154784750Y-45591600D03*
X154784750Y-46241600D03*
X155134750Y-42741600D03*
X155834750Y-42741600D03*
X156084750Y-44941600D03*
X156084750Y-45591600D03*
X156084750Y-46241600D03*
X156334750Y-43141600D03*
X156344050Y-44341600D03*
X156484750Y-43741600D03*
%TD*%
D11*
%TO.N,GND*%
%TO.C,MT2*%
X195580000Y-43180000D03*
%TD*%
%TO.N,GND*%
%TO.C,MT4*%
X195580000Y-109061001D03*
%TD*%
D14*
%TO.N,GND*%
%TO.C,U1*%
X188500000Y-77740000D03*
X188500000Y-78740000D03*
X188500000Y-79740000D03*
X189500000Y-77740000D03*
X189500000Y-78740000D03*
X189500000Y-79740000D03*
X190500000Y-77740000D03*
X190500000Y-78740000D03*
X190500000Y-79740000D03*
%TD*%
D15*
%TO.N,GND*%
%TO.C,J1*%
X190345000Y-96720000D03*
D16*
%TO.N,/+12v*%
X184845000Y-96720000D03*
%TD*%
D12*
%TO.N,GND*%
%TO.C,J5*%
X167196000Y-67530000D03*
X166596000Y-67680000D03*
X167796000Y-67780000D03*
X165996000Y-67930000D03*
X165346000Y-67930000D03*
X164696000Y-67930000D03*
X168196000Y-68280000D03*
X168196000Y-68980000D03*
X165996000Y-69230000D03*
X165346000Y-69230000D03*
X164696000Y-69230000D03*
X167796000Y-69480000D03*
X166596000Y-69489300D03*
X167196000Y-69630000D03*
%TD*%
D17*
%TO.N,GND*%
X145000000Y-79600000D03*
X145000000Y-80700000D03*
X144900000Y-81800000D03*
X142100000Y-81800000D03*
X142100000Y-80600000D03*
X142200000Y-79500000D03*
X158000000Y-70000000D03*
X158100000Y-67200000D03*
X159000000Y-67200000D03*
X159900000Y-67200000D03*
X161000000Y-67200000D03*
X162000000Y-67800000D03*
X163300000Y-67800000D03*
X163300000Y-69500000D03*
X162200000Y-69500000D03*
X161100000Y-70000000D03*
X160000000Y-70000000D03*
X159000000Y-70000000D03*
X157400000Y-69500000D03*
X157300000Y-67700000D03*
X145100000Y-106200000D03*
X145100000Y-105100000D03*
X145100000Y-104100000D03*
X145000000Y-103100000D03*
X142400000Y-106200000D03*
X142400000Y-105200000D03*
X142400000Y-104100000D03*
X142400000Y-103100000D03*
X144500000Y-96600000D03*
X142800000Y-96600000D03*
X142300000Y-95500000D03*
X142300000Y-94500000D03*
X142300000Y-93500000D03*
X144900000Y-95400000D03*
X145000000Y-94400000D03*
X144900000Y-93400000D03*
X144400000Y-92300000D03*
X142600000Y-92400000D03*
X144300000Y-89300000D03*
X142900000Y-89600000D03*
X142900000Y-88700000D03*
X144400000Y-70600000D03*
X144600000Y-69600000D03*
X142800000Y-70700000D03*
X142800000Y-69700000D03*
X143200000Y-68500000D03*
X144000000Y-67800000D03*
D18*
%TO.N,*%
X146390000Y-93800000D03*
%TO.N,GND*%
X194564000Y-83312000D03*
D17*
X156100000Y-59800000D03*
X156100000Y-61300000D03*
D18*
X149460000Y-93670000D03*
X181102000Y-74168000D03*
X191770000Y-69596000D03*
D17*
X144200000Y-82900000D03*
X143000000Y-82800000D03*
X156100000Y-53050000D03*
X154700000Y-53050000D03*
D18*
X180086000Y-78232000D03*
D17*
X143100000Y-78100000D03*
D18*
X190451000Y-70661000D03*
D17*
X144300000Y-78100000D03*
D18*
X193294000Y-82296000D03*
X150360000Y-76370000D03*
X147810000Y-93740000D03*
X186944000Y-69596000D03*
D17*
X156100000Y-48750000D03*
X156100000Y-48000000D03*
X154700000Y-61300000D03*
X156100000Y-47250000D03*
D18*
X152050000Y-71800000D03*
X150970000Y-74620000D03*
D17*
X143000000Y-83500000D03*
X154750000Y-48000000D03*
D18*
X197309000Y-77167000D03*
D17*
X156100000Y-60550000D03*
D18*
X152100000Y-73430000D03*
D17*
X154700000Y-52300000D03*
D18*
X188263000Y-70661000D03*
D17*
X154700000Y-53800000D03*
X156100000Y-52300000D03*
X154750000Y-47250000D03*
X154750000Y-48750000D03*
X144300000Y-78850000D03*
D18*
X180086000Y-75692000D03*
X181102000Y-80010000D03*
D17*
X156100000Y-53800000D03*
D18*
X198374000Y-75692000D03*
D17*
X154700000Y-59800000D03*
X143100000Y-78850000D03*
X154700000Y-60550000D03*
D18*
%TO.N,+5.0V*%
X184060000Y-73850000D03*
X183180000Y-73850000D03*
X151892000Y-76342000D03*
X149398000Y-90180000D03*
X150310000Y-91030000D03*
X148880000Y-74600000D03*
X185000000Y-73830000D03*
X149840000Y-74590000D03*
%TO.N,Net-(U2-\u002AP{slash}S)*%
X149400000Y-78890000D03*
X145450000Y-70870000D03*
%TO.N,/atten_si*%
X172632000Y-97270000D03*
X148330000Y-76370000D03*
%TO.N,/atten_le*%
X170430000Y-97230000D03*
X146143599Y-78123599D03*
%TO.N,/atten_clk*%
X174830000Y-97210000D03*
X146970000Y-78130000D03*
%TO.N,/+12v*%
X194310000Y-77216000D03*
X193294000Y-77216000D03*
X194310000Y-73660000D03*
X192786000Y-78740000D03*
X193294000Y-73660000D03*
%TD*%
%TA.AperFunction,Conductor*%
%TO.N,GND*%
G36*
X199363138Y-39387593D02*
G01*
X199388858Y-39432142D01*
X199390000Y-39445200D01*
X199390000Y-95980469D01*
X199372407Y-96028807D01*
X199327858Y-96054527D01*
X199277200Y-96045594D01*
X199245324Y-96009247D01*
X199241249Y-95999410D01*
X199218344Y-95944112D01*
X199103611Y-95745388D01*
X198963919Y-95563339D01*
X198963913Y-95563333D01*
X198963906Y-95563325D01*
X198801674Y-95401093D01*
X198801666Y-95401086D01*
X198801661Y-95401081D01*
X198735948Y-95350657D01*
X198619614Y-95261390D01*
X198420889Y-95146656D01*
X198208883Y-95058840D01*
X197987242Y-94999453D01*
X197987241Y-94999452D01*
X197987238Y-94999452D01*
X197759734Y-94969500D01*
X197530266Y-94969500D01*
X197302762Y-94999452D01*
X197302758Y-94999453D01*
X197302757Y-94999453D01*
X197081116Y-95058840D01*
X196869110Y-95146656D01*
X196670385Y-95261390D01*
X196488341Y-95401079D01*
X196488325Y-95401093D01*
X196326093Y-95563325D01*
X196326079Y-95563341D01*
X196186390Y-95745385D01*
X196071656Y-95944110D01*
X195983840Y-96156116D01*
X195924453Y-96377757D01*
X195924452Y-96377762D01*
X195894500Y-96605266D01*
X195894500Y-96834734D01*
X195924452Y-97062238D01*
X195924453Y-97062241D01*
X195924453Y-97062242D01*
X195983840Y-97283883D01*
X196071656Y-97495889D01*
X196186390Y-97694614D01*
X196201110Y-97713797D01*
X196326081Y-97876661D01*
X196326086Y-97876666D01*
X196326093Y-97876674D01*
X196488325Y-98038906D01*
X196488333Y-98038913D01*
X196488339Y-98038919D01*
X196670388Y-98178611D01*
X196869112Y-98293344D01*
X197081113Y-98381158D01*
X197081114Y-98381158D01*
X197081116Y-98381159D01*
X197131881Y-98394761D01*
X197302762Y-98440548D01*
X197530266Y-98470500D01*
X197530269Y-98470500D01*
X197759731Y-98470500D01*
X197759734Y-98470500D01*
X197987238Y-98440548D01*
X198208887Y-98381158D01*
X198420888Y-98293344D01*
X198619612Y-98178611D01*
X198801661Y-98038919D01*
X198963919Y-97876661D01*
X199103611Y-97694612D01*
X199218344Y-97495888D01*
X199245324Y-97430751D01*
X199280076Y-97392827D01*
X199331076Y-97386113D01*
X199374460Y-97413751D01*
X199390000Y-97459530D01*
X199390000Y-112363852D01*
X199372407Y-112412190D01*
X199367974Y-112417026D01*
X198996025Y-112788975D01*
X198949405Y-112810715D01*
X198942851Y-112811001D01*
X125805200Y-112811001D01*
X125756862Y-112793408D01*
X125731142Y-112748859D01*
X125730000Y-112735801D01*
X125730000Y-109878534D01*
X139093100Y-109878534D01*
X139093100Y-110085465D01*
X139123391Y-110237752D01*
X139133470Y-110288420D01*
X139212659Y-110479598D01*
X139327623Y-110651655D01*
X139327624Y-110651656D01*
X139327627Y-110651660D01*
X139473939Y-110797972D01*
X139473942Y-110797974D01*
X139473945Y-110797977D01*
X139646002Y-110912941D01*
X139837180Y-110992130D01*
X139989396Y-111022407D01*
X140040134Y-111032500D01*
X140040135Y-111032500D01*
X140247066Y-111032500D01*
X140287656Y-111024426D01*
X140450020Y-110992130D01*
X140641198Y-110912941D01*
X140813255Y-110797977D01*
X140959577Y-110651655D01*
X141074541Y-110479598D01*
X141153730Y-110288420D01*
X141194100Y-110085465D01*
X141194100Y-109981995D01*
X143073600Y-109981995D01*
X143073600Y-109982004D01*
X143081598Y-110083674D01*
X143081599Y-110083679D01*
X143105407Y-110182849D01*
X143105410Y-110182860D01*
X143105413Y-110182868D01*
X143105415Y-110182873D01*
X143144447Y-110277085D01*
X143144454Y-110277098D01*
X143197739Y-110364059D01*
X143197745Y-110364067D01*
X143263979Y-110441620D01*
X143341532Y-110507854D01*
X143341540Y-110507860D01*
X143428501Y-110561145D01*
X143428514Y-110561152D01*
X143488041Y-110585814D01*
X143522740Y-110600190D01*
X143621920Y-110624000D01*
X143621925Y-110624001D01*
X143723595Y-110632000D01*
X143723600Y-110632000D01*
X143723605Y-110632000D01*
X143825274Y-110624001D01*
X143825278Y-110624000D01*
X143825280Y-110624000D01*
X143924460Y-110600190D01*
X144018690Y-110561150D01*
X144105660Y-110507860D01*
X144183220Y-110441620D01*
X144249460Y-110364060D01*
X144302750Y-110277090D01*
X144341790Y-110182860D01*
X144365600Y-110083680D01*
X144365600Y-110083678D01*
X144365601Y-110083674D01*
X144373600Y-109982004D01*
X144373600Y-109981995D01*
X144365634Y-109880739D01*
X144365600Y-109880322D01*
X144365600Y-109880320D01*
X144365171Y-109878534D01*
X146253100Y-109878534D01*
X146253100Y-110085465D01*
X146283391Y-110237752D01*
X146293470Y-110288420D01*
X146372659Y-110479598D01*
X146487623Y-110651655D01*
X146487624Y-110651656D01*
X146487627Y-110651660D01*
X146633939Y-110797972D01*
X146633942Y-110797974D01*
X146633945Y-110797977D01*
X146806002Y-110912941D01*
X146997180Y-110992130D01*
X147149396Y-111022407D01*
X147200134Y-111032500D01*
X147200135Y-111032500D01*
X147407066Y-111032500D01*
X147447656Y-111024426D01*
X147610020Y-110992130D01*
X147801198Y-110912941D01*
X147973255Y-110797977D01*
X148119577Y-110651655D01*
X148234541Y-110479598D01*
X148313730Y-110288420D01*
X148354100Y-110085465D01*
X148354100Y-109895642D01*
X170987200Y-109895642D01*
X170987200Y-109895643D01*
X170987200Y-110068357D01*
X171020895Y-110237753D01*
X171086990Y-110397320D01*
X171182945Y-110540927D01*
X171182947Y-110540929D01*
X171182949Y-110540932D01*
X171305067Y-110663050D01*
X171305070Y-110663052D01*
X171305073Y-110663055D01*
X171448680Y-110759010D01*
X171608247Y-110825105D01*
X171735294Y-110850376D01*
X171777642Y-110858800D01*
X171777643Y-110858800D01*
X171950358Y-110858800D01*
X171984236Y-110852061D01*
X172119753Y-110825105D01*
X172279320Y-110759010D01*
X172422927Y-110663055D01*
X172545055Y-110540927D01*
X172641010Y-110397320D01*
X172707105Y-110237753D01*
X172740800Y-110068357D01*
X172740800Y-109895643D01*
X172740800Y-109895642D01*
X172987201Y-109895642D01*
X172987201Y-109895643D01*
X172987201Y-110068357D01*
X173020896Y-110237753D01*
X173086991Y-110397320D01*
X173182946Y-110540927D01*
X173182948Y-110540929D01*
X173182950Y-110540932D01*
X173305068Y-110663050D01*
X173305071Y-110663052D01*
X173305074Y-110663055D01*
X173448681Y-110759010D01*
X173608248Y-110825105D01*
X173735295Y-110850376D01*
X173777643Y-110858800D01*
X173777644Y-110858800D01*
X173950359Y-110858800D01*
X173984237Y-110852061D01*
X174119754Y-110825105D01*
X174279321Y-110759010D01*
X174422928Y-110663055D01*
X174545056Y-110540927D01*
X174641011Y-110397320D01*
X174707106Y-110237753D01*
X174740801Y-110068357D01*
X174740801Y-109895643D01*
X174740801Y-109895642D01*
X174987200Y-109895642D01*
X174987200Y-109895643D01*
X174987200Y-110068357D01*
X175020895Y-110237753D01*
X175086990Y-110397320D01*
X175182945Y-110540927D01*
X175182947Y-110540929D01*
X175182949Y-110540932D01*
X175305067Y-110663050D01*
X175305070Y-110663052D01*
X175305073Y-110663055D01*
X175448680Y-110759010D01*
X175608247Y-110825105D01*
X175735294Y-110850376D01*
X175777642Y-110858800D01*
X175777643Y-110858800D01*
X175950358Y-110858800D01*
X175984236Y-110852061D01*
X176119753Y-110825105D01*
X176279320Y-110759010D01*
X176422927Y-110663055D01*
X176545055Y-110540927D01*
X176641010Y-110397320D01*
X176707105Y-110237753D01*
X176740800Y-110068357D01*
X176740800Y-109895643D01*
X176740800Y-109895642D01*
X176987201Y-109895642D01*
X176987201Y-109895643D01*
X176987201Y-110068357D01*
X177020896Y-110237753D01*
X177086991Y-110397320D01*
X177182946Y-110540927D01*
X177182948Y-110540929D01*
X177182950Y-110540932D01*
X177305068Y-110663050D01*
X177305071Y-110663052D01*
X177305074Y-110663055D01*
X177448681Y-110759010D01*
X177608248Y-110825105D01*
X177735295Y-110850376D01*
X177777643Y-110858800D01*
X177777644Y-110858800D01*
X177950359Y-110858800D01*
X177984237Y-110852061D01*
X178119754Y-110825105D01*
X178279321Y-110759010D01*
X178422928Y-110663055D01*
X178545056Y-110540927D01*
X178641011Y-110397320D01*
X178707106Y-110237753D01*
X178740801Y-110068357D01*
X178740801Y-109895643D01*
X178740801Y-109895642D01*
X178987202Y-109895642D01*
X178987202Y-109895643D01*
X178987202Y-110068357D01*
X179020897Y-110237753D01*
X179086992Y-110397320D01*
X179182947Y-110540927D01*
X179182949Y-110540929D01*
X179182951Y-110540932D01*
X179305069Y-110663050D01*
X179305072Y-110663052D01*
X179305075Y-110663055D01*
X179448682Y-110759010D01*
X179608249Y-110825105D01*
X179735296Y-110850376D01*
X179777644Y-110858800D01*
X179777645Y-110858800D01*
X179950360Y-110858800D01*
X179984238Y-110852061D01*
X180119755Y-110825105D01*
X180279322Y-110759010D01*
X180422929Y-110663055D01*
X180545057Y-110540927D01*
X180641012Y-110397320D01*
X180707107Y-110237753D01*
X180740802Y-110068357D01*
X180740802Y-109895643D01*
X180740802Y-109895642D01*
X180987200Y-109895642D01*
X180987200Y-109895643D01*
X180987200Y-110068357D01*
X181020895Y-110237753D01*
X181086990Y-110397320D01*
X181182945Y-110540927D01*
X181182947Y-110540929D01*
X181182949Y-110540932D01*
X181305067Y-110663050D01*
X181305070Y-110663052D01*
X181305073Y-110663055D01*
X181448680Y-110759010D01*
X181608247Y-110825105D01*
X181735294Y-110850376D01*
X181777642Y-110858800D01*
X181777643Y-110858800D01*
X181950358Y-110858800D01*
X181984236Y-110852061D01*
X182119753Y-110825105D01*
X182279320Y-110759010D01*
X182422927Y-110663055D01*
X182545055Y-110540927D01*
X182641010Y-110397320D01*
X182707105Y-110237753D01*
X182740800Y-110068357D01*
X182740800Y-109895643D01*
X182740800Y-109895642D01*
X182987202Y-109895642D01*
X182987202Y-109895643D01*
X182987202Y-110068357D01*
X183020897Y-110237753D01*
X183086992Y-110397320D01*
X183182947Y-110540927D01*
X183182949Y-110540929D01*
X183182951Y-110540932D01*
X183305069Y-110663050D01*
X183305072Y-110663052D01*
X183305075Y-110663055D01*
X183448682Y-110759010D01*
X183608249Y-110825105D01*
X183735296Y-110850376D01*
X183777644Y-110858800D01*
X183777645Y-110858800D01*
X183950360Y-110858800D01*
X183984238Y-110852061D01*
X184119755Y-110825105D01*
X184279322Y-110759010D01*
X184422929Y-110663055D01*
X184545057Y-110540927D01*
X184641012Y-110397320D01*
X184707107Y-110237753D01*
X184740802Y-110068357D01*
X184740802Y-109895643D01*
X184737837Y-109880739D01*
X184718023Y-109781126D01*
X184707107Y-109726247D01*
X184641012Y-109566680D01*
X184545057Y-109423073D01*
X184545054Y-109423070D01*
X184545052Y-109423067D01*
X184422934Y-109300949D01*
X184422931Y-109300947D01*
X184422929Y-109300945D01*
X184279322Y-109204990D01*
X184119755Y-109138895D01*
X184119752Y-109138894D01*
X184119751Y-109138894D01*
X183950360Y-109105200D01*
X183950359Y-109105200D01*
X183777645Y-109105200D01*
X183777644Y-109105200D01*
X183608252Y-109138894D01*
X183608249Y-109138895D01*
X183448683Y-109204989D01*
X183305072Y-109300947D01*
X183305069Y-109300949D01*
X183182951Y-109423067D01*
X183182949Y-109423070D01*
X183086991Y-109566681D01*
X183020897Y-109726247D01*
X183020896Y-109726250D01*
X182987202Y-109895642D01*
X182740800Y-109895642D01*
X182737835Y-109880739D01*
X182718021Y-109781126D01*
X182707105Y-109726247D01*
X182641010Y-109566680D01*
X182545055Y-109423073D01*
X182545052Y-109423070D01*
X182545050Y-109423067D01*
X182422932Y-109300949D01*
X182422929Y-109300947D01*
X182422927Y-109300945D01*
X182279320Y-109204990D01*
X182119753Y-109138895D01*
X182119750Y-109138894D01*
X182119749Y-109138894D01*
X181950358Y-109105200D01*
X181950357Y-109105200D01*
X181777643Y-109105200D01*
X181777642Y-109105200D01*
X181608250Y-109138894D01*
X181608247Y-109138895D01*
X181448681Y-109204989D01*
X181305070Y-109300947D01*
X181305067Y-109300949D01*
X181182949Y-109423067D01*
X181182947Y-109423070D01*
X181086989Y-109566681D01*
X181020895Y-109726247D01*
X181020894Y-109726250D01*
X180987200Y-109895642D01*
X180740802Y-109895642D01*
X180737837Y-109880739D01*
X180718023Y-109781126D01*
X180707107Y-109726247D01*
X180641012Y-109566680D01*
X180545057Y-109423073D01*
X180545054Y-109423070D01*
X180545052Y-109423067D01*
X180422934Y-109300949D01*
X180422931Y-109300947D01*
X180422929Y-109300945D01*
X180279322Y-109204990D01*
X180119755Y-109138895D01*
X180119752Y-109138894D01*
X180119751Y-109138894D01*
X179950360Y-109105200D01*
X179950359Y-109105200D01*
X179777645Y-109105200D01*
X179777644Y-109105200D01*
X179608252Y-109138894D01*
X179608249Y-109138895D01*
X179448683Y-109204989D01*
X179305072Y-109300947D01*
X179305069Y-109300949D01*
X179182951Y-109423067D01*
X179182949Y-109423070D01*
X179086991Y-109566681D01*
X179020897Y-109726247D01*
X179020896Y-109726250D01*
X178987202Y-109895642D01*
X178740801Y-109895642D01*
X178737836Y-109880739D01*
X178718022Y-109781126D01*
X178707106Y-109726247D01*
X178641011Y-109566680D01*
X178545056Y-109423073D01*
X178545053Y-109423070D01*
X178545051Y-109423067D01*
X178422933Y-109300949D01*
X178422930Y-109300947D01*
X178422928Y-109300945D01*
X178279321Y-109204990D01*
X178119754Y-109138895D01*
X178119751Y-109138894D01*
X178119750Y-109138894D01*
X177950359Y-109105200D01*
X177950358Y-109105200D01*
X177777644Y-109105200D01*
X177777643Y-109105200D01*
X177608251Y-109138894D01*
X177608248Y-109138895D01*
X177448682Y-109204989D01*
X177305071Y-109300947D01*
X177305068Y-109300949D01*
X177182950Y-109423067D01*
X177182948Y-109423070D01*
X177086990Y-109566681D01*
X177020896Y-109726247D01*
X177020895Y-109726250D01*
X176987201Y-109895642D01*
X176740800Y-109895642D01*
X176737835Y-109880739D01*
X176718021Y-109781126D01*
X176707105Y-109726247D01*
X176641010Y-109566680D01*
X176545055Y-109423073D01*
X176545052Y-109423070D01*
X176545050Y-109423067D01*
X176422932Y-109300949D01*
X176422929Y-109300947D01*
X176422927Y-109300945D01*
X176279320Y-109204990D01*
X176119753Y-109138895D01*
X176119750Y-109138894D01*
X176119749Y-109138894D01*
X175950358Y-109105200D01*
X175950357Y-109105200D01*
X175777643Y-109105200D01*
X175777642Y-109105200D01*
X175608250Y-109138894D01*
X175608247Y-109138895D01*
X175448681Y-109204989D01*
X175305070Y-109300947D01*
X175305067Y-109300949D01*
X175182949Y-109423067D01*
X175182947Y-109423070D01*
X175086989Y-109566681D01*
X175020895Y-109726247D01*
X175020894Y-109726250D01*
X174987200Y-109895642D01*
X174740801Y-109895642D01*
X174737836Y-109880739D01*
X174718022Y-109781126D01*
X174707106Y-109726247D01*
X174641011Y-109566680D01*
X174545056Y-109423073D01*
X174545053Y-109423070D01*
X174545051Y-109423067D01*
X174422933Y-109300949D01*
X174422930Y-109300947D01*
X174422928Y-109300945D01*
X174279321Y-109204990D01*
X174119754Y-109138895D01*
X174119751Y-109138894D01*
X174119750Y-109138894D01*
X173950359Y-109105200D01*
X173950358Y-109105200D01*
X173777644Y-109105200D01*
X173777643Y-109105200D01*
X173608251Y-109138894D01*
X173608248Y-109138895D01*
X173448682Y-109204989D01*
X173305071Y-109300947D01*
X173305068Y-109300949D01*
X173182950Y-109423067D01*
X173182948Y-109423070D01*
X173086990Y-109566681D01*
X173020896Y-109726247D01*
X173020895Y-109726250D01*
X172987201Y-109895642D01*
X172740800Y-109895642D01*
X172737835Y-109880739D01*
X172718021Y-109781126D01*
X172707105Y-109726247D01*
X172641010Y-109566680D01*
X172545055Y-109423073D01*
X172545052Y-109423070D01*
X172545050Y-109423067D01*
X172422932Y-109300949D01*
X172422929Y-109300947D01*
X172422927Y-109300945D01*
X172279320Y-109204990D01*
X172119753Y-109138895D01*
X172119750Y-109138894D01*
X172119749Y-109138894D01*
X171950358Y-109105200D01*
X171950357Y-109105200D01*
X171777643Y-109105200D01*
X171777642Y-109105200D01*
X171608250Y-109138894D01*
X171608247Y-109138895D01*
X171448681Y-109204989D01*
X171305070Y-109300947D01*
X171305067Y-109300949D01*
X171182949Y-109423067D01*
X171182947Y-109423070D01*
X171086989Y-109566681D01*
X171020895Y-109726247D01*
X171020894Y-109726250D01*
X170987200Y-109895642D01*
X148354100Y-109895642D01*
X148354100Y-109878535D01*
X148313730Y-109675580D01*
X148234541Y-109484402D01*
X148119577Y-109312345D01*
X148119574Y-109312342D01*
X148119572Y-109312339D01*
X147973260Y-109166027D01*
X147973256Y-109166024D01*
X147973255Y-109166023D01*
X147801198Y-109051059D01*
X147610020Y-108971870D01*
X147610017Y-108971869D01*
X147610016Y-108971869D01*
X147407066Y-108931500D01*
X147407065Y-108931500D01*
X147200135Y-108931500D01*
X147200134Y-108931500D01*
X146997183Y-108971869D01*
X146997180Y-108971870D01*
X146806003Y-109051058D01*
X146633939Y-109166027D01*
X146487627Y-109312339D01*
X146372658Y-109484403D01*
X146293470Y-109675580D01*
X146293469Y-109675583D01*
X146253100Y-109878534D01*
X144365171Y-109878534D01*
X144341792Y-109781150D01*
X144341790Y-109781140D01*
X144302750Y-109686910D01*
X144302748Y-109686907D01*
X144302745Y-109686901D01*
X144249460Y-109599940D01*
X144249454Y-109599932D01*
X144183220Y-109522379D01*
X144105667Y-109456145D01*
X144105659Y-109456139D01*
X144018698Y-109402854D01*
X144018685Y-109402847D01*
X143924473Y-109363815D01*
X143924468Y-109363813D01*
X143924460Y-109363810D01*
X143924452Y-109363808D01*
X143924449Y-109363807D01*
X143825279Y-109339999D01*
X143825274Y-109339998D01*
X143723605Y-109332000D01*
X143723595Y-109332000D01*
X143621925Y-109339998D01*
X143621920Y-109339999D01*
X143522750Y-109363807D01*
X143522743Y-109363809D01*
X143522740Y-109363810D01*
X143522735Y-109363811D01*
X143522726Y-109363815D01*
X143428514Y-109402847D01*
X143428501Y-109402854D01*
X143341540Y-109456139D01*
X143341532Y-109456145D01*
X143263979Y-109522379D01*
X143197745Y-109599932D01*
X143197739Y-109599940D01*
X143144454Y-109686901D01*
X143144447Y-109686914D01*
X143105415Y-109781126D01*
X143105407Y-109781150D01*
X143081599Y-109880320D01*
X143081598Y-109880325D01*
X143073600Y-109981995D01*
X141194100Y-109981995D01*
X141194100Y-109878535D01*
X141153730Y-109675580D01*
X141074541Y-109484402D01*
X140959577Y-109312345D01*
X140959574Y-109312342D01*
X140959572Y-109312339D01*
X140813260Y-109166027D01*
X140813256Y-109166024D01*
X140813255Y-109166023D01*
X140641198Y-109051059D01*
X140450020Y-108971870D01*
X140450017Y-108971869D01*
X140450016Y-108971869D01*
X140247066Y-108931500D01*
X140247065Y-108931500D01*
X140040135Y-108931500D01*
X140040134Y-108931500D01*
X139837183Y-108971869D01*
X139837180Y-108971870D01*
X139646003Y-109051058D01*
X139473939Y-109166027D01*
X139327627Y-109312339D01*
X139212658Y-109484403D01*
X139133470Y-109675580D01*
X139133469Y-109675583D01*
X139093100Y-109878534D01*
X125730000Y-109878534D01*
X125730000Y-97170375D01*
X169977100Y-97170375D01*
X169977100Y-97289625D01*
X170004752Y-97392827D01*
X170007964Y-97404813D01*
X170007964Y-97404814D01*
X170067589Y-97508087D01*
X170151912Y-97592410D01*
X170211538Y-97626834D01*
X170255187Y-97652036D01*
X170370375Y-97682900D01*
X170370378Y-97682900D01*
X170489622Y-97682900D01*
X170489625Y-97682900D01*
X170604813Y-97652036D01*
X170708087Y-97592410D01*
X170792410Y-97508087D01*
X170852036Y-97404813D01*
X170882900Y-97289625D01*
X170882900Y-97210375D01*
X172179100Y-97210375D01*
X172179100Y-97329625D01*
X172209964Y-97444813D01*
X172209964Y-97444814D01*
X172269589Y-97548087D01*
X172353912Y-97632410D01*
X172413538Y-97666834D01*
X172457187Y-97692036D01*
X172572375Y-97722900D01*
X172572378Y-97722900D01*
X172691622Y-97722900D01*
X172691625Y-97722900D01*
X172806813Y-97692036D01*
X172910087Y-97632410D01*
X172994410Y-97548087D01*
X173054036Y-97444813D01*
X173084900Y-97329625D01*
X173084900Y-97210375D01*
X173068823Y-97150375D01*
X174377100Y-97150375D01*
X174377100Y-97269625D01*
X174393176Y-97329622D01*
X174407964Y-97384813D01*
X174407964Y-97384814D01*
X174467589Y-97488087D01*
X174551912Y-97572410D01*
X174611538Y-97606834D01*
X174655187Y-97632036D01*
X174770375Y-97662900D01*
X174770378Y-97662900D01*
X174889622Y-97662900D01*
X174889625Y-97662900D01*
X175004813Y-97632036D01*
X175108087Y-97572410D01*
X175192410Y-97488087D01*
X175252036Y-97384813D01*
X175282900Y-97269625D01*
X175282900Y-97150375D01*
X175252036Y-97035187D01*
X175246213Y-97025101D01*
X175192410Y-96931912D01*
X175108087Y-96847589D01*
X175004813Y-96787964D01*
X174889625Y-96757100D01*
X174770375Y-96757100D01*
X174695733Y-96777100D01*
X174655186Y-96787964D01*
X174655185Y-96787964D01*
X174551912Y-96847589D01*
X174467589Y-96931912D01*
X174407964Y-97035185D01*
X174407964Y-97035186D01*
X174407964Y-97035187D01*
X174377100Y-97150375D01*
X173068823Y-97150375D01*
X173054036Y-97095187D01*
X173035015Y-97062242D01*
X172994410Y-96991912D01*
X172910087Y-96907589D01*
X172806813Y-96847964D01*
X172805413Y-96847589D01*
X172691625Y-96817100D01*
X172572375Y-96817100D01*
X172485984Y-96840248D01*
X172457186Y-96847964D01*
X172457185Y-96847964D01*
X172353912Y-96907589D01*
X172269589Y-96991912D01*
X172209964Y-97095185D01*
X172209964Y-97095186D01*
X172209964Y-97095187D01*
X172179100Y-97210375D01*
X170882900Y-97210375D01*
X170882900Y-97170375D01*
X170852036Y-97055187D01*
X170840489Y-97035187D01*
X170792410Y-96951912D01*
X170708087Y-96867589D01*
X170604813Y-96807964D01*
X170489625Y-96777100D01*
X170370375Y-96777100D01*
X170283984Y-96800248D01*
X170255186Y-96807964D01*
X170255185Y-96807964D01*
X170151912Y-96867589D01*
X170067589Y-96951912D01*
X170007964Y-97055185D01*
X170007964Y-97055186D01*
X169997676Y-97093583D01*
X169977100Y-97170375D01*
X125730000Y-97170375D01*
X125730000Y-96617457D01*
X183542100Y-96617457D01*
X183542100Y-96822542D01*
X183574180Y-97025089D01*
X183574183Y-97025101D01*
X183634382Y-97210377D01*
X183637555Y-97220140D01*
X183730660Y-97402869D01*
X183807106Y-97508087D01*
X183851204Y-97568783D01*
X183851211Y-97568791D01*
X183996208Y-97713788D01*
X183996216Y-97713795D01*
X183996218Y-97713797D01*
X184162131Y-97834340D01*
X184344860Y-97927445D01*
X184539903Y-97990818D01*
X184742460Y-98022900D01*
X184742464Y-98022900D01*
X184947536Y-98022900D01*
X184947540Y-98022900D01*
X185150097Y-97990818D01*
X185345140Y-97927445D01*
X185527869Y-97834340D01*
X185693782Y-97713797D01*
X185838797Y-97568782D01*
X185959340Y-97402869D01*
X186052445Y-97220140D01*
X186115818Y-97025097D01*
X186147900Y-96822540D01*
X186147900Y-96617460D01*
X186115818Y-96414903D01*
X186052445Y-96219860D01*
X185959340Y-96037131D01*
X185838797Y-95871218D01*
X185838795Y-95871216D01*
X185838788Y-95871208D01*
X185693791Y-95726211D01*
X185693783Y-95726204D01*
X185527870Y-95605661D01*
X185527871Y-95605661D01*
X185527869Y-95605660D01*
X185345140Y-95512555D01*
X185345133Y-95512552D01*
X185345129Y-95512551D01*
X185150101Y-95449183D01*
X185150089Y-95449180D01*
X184947542Y-95417100D01*
X184947540Y-95417100D01*
X184742460Y-95417100D01*
X184742457Y-95417100D01*
X184539910Y-95449180D01*
X184539898Y-95449183D01*
X184344870Y-95512551D01*
X184344862Y-95512554D01*
X184344860Y-95512555D01*
X184344856Y-95512556D01*
X184344856Y-95512557D01*
X184162129Y-95605661D01*
X183996216Y-95726204D01*
X183996208Y-95726211D01*
X183851211Y-95871208D01*
X183851204Y-95871216D01*
X183730661Y-96037129D01*
X183637557Y-96219856D01*
X183637551Y-96219870D01*
X183574183Y-96414898D01*
X183574180Y-96414910D01*
X183542100Y-96617457D01*
X125730000Y-96617457D01*
X125730000Y-93740375D01*
X145937100Y-93740375D01*
X145937100Y-93859625D01*
X145967964Y-93974813D01*
X145967964Y-93974814D01*
X146027589Y-94078087D01*
X146111912Y-94162410D01*
X146171538Y-94196834D01*
X146215187Y-94222036D01*
X146330375Y-94252900D01*
X146330378Y-94252900D01*
X146449622Y-94252900D01*
X146449625Y-94252900D01*
X146564813Y-94222036D01*
X146668087Y-94162410D01*
X146752410Y-94078087D01*
X146812036Y-93974813D01*
X146842900Y-93859625D01*
X146842900Y-93740375D01*
X146812036Y-93625187D01*
X146812035Y-93625185D01*
X146752410Y-93521912D01*
X146668087Y-93437589D01*
X146564813Y-93377964D01*
X146449625Y-93347100D01*
X146330375Y-93347100D01*
X146243984Y-93370248D01*
X146215186Y-93377964D01*
X146215185Y-93377964D01*
X146111912Y-93437589D01*
X146027589Y-93521912D01*
X145967964Y-93625185D01*
X145967964Y-93625186D01*
X145967964Y-93625187D01*
X145937100Y-93740375D01*
X125730000Y-93740375D01*
X125730000Y-90970375D01*
X149857100Y-90970375D01*
X149857100Y-91089625D01*
X149887964Y-91204813D01*
X149887964Y-91204814D01*
X149947589Y-91308087D01*
X150031912Y-91392410D01*
X150091538Y-91426834D01*
X150135187Y-91452036D01*
X150250375Y-91482900D01*
X150250378Y-91482900D01*
X150369622Y-91482900D01*
X150369625Y-91482900D01*
X150484813Y-91452036D01*
X150588087Y-91392410D01*
X150672410Y-91308087D01*
X150732036Y-91204813D01*
X150762900Y-91089625D01*
X150762900Y-90970375D01*
X150732036Y-90855187D01*
X150732035Y-90855185D01*
X150672410Y-90751912D01*
X150588087Y-90667589D01*
X150484813Y-90607964D01*
X150369625Y-90577100D01*
X150250375Y-90577100D01*
X150163984Y-90600248D01*
X150135186Y-90607964D01*
X150135185Y-90607964D01*
X150031912Y-90667589D01*
X149947589Y-90751912D01*
X149887964Y-90855185D01*
X149887964Y-90855186D01*
X149887964Y-90855187D01*
X149857100Y-90970375D01*
X125730000Y-90970375D01*
X125730000Y-90120375D01*
X148945100Y-90120375D01*
X148945100Y-90239625D01*
X148975964Y-90354813D01*
X148975964Y-90354814D01*
X149035589Y-90458087D01*
X149119912Y-90542410D01*
X149179538Y-90576834D01*
X149223187Y-90602036D01*
X149338375Y-90632900D01*
X149338378Y-90632900D01*
X149457622Y-90632900D01*
X149457625Y-90632900D01*
X149572813Y-90602036D01*
X149676087Y-90542410D01*
X149760410Y-90458087D01*
X149820036Y-90354813D01*
X149850900Y-90239625D01*
X149850900Y-90120375D01*
X149820036Y-90005187D01*
X149820035Y-90005185D01*
X149760410Y-89901912D01*
X149676087Y-89817589D01*
X149572813Y-89757964D01*
X149457625Y-89727100D01*
X149338375Y-89727100D01*
X149251984Y-89750248D01*
X149223186Y-89757964D01*
X149223185Y-89757964D01*
X149119912Y-89817589D01*
X149035589Y-89901912D01*
X148975964Y-90005185D01*
X148975964Y-90005186D01*
X148975964Y-90005187D01*
X148945100Y-90120375D01*
X125730000Y-90120375D01*
X125730000Y-78830375D01*
X148947100Y-78830375D01*
X148947100Y-78949625D01*
X148965444Y-79018087D01*
X148977964Y-79064813D01*
X148977964Y-79064814D01*
X149037589Y-79168087D01*
X149121912Y-79252410D01*
X149181538Y-79286834D01*
X149225187Y-79312036D01*
X149340375Y-79342900D01*
X149340378Y-79342900D01*
X149459622Y-79342900D01*
X149459625Y-79342900D01*
X149574813Y-79312036D01*
X149678087Y-79252410D01*
X149762410Y-79168087D01*
X149822036Y-79064813D01*
X149852900Y-78949625D01*
X149852900Y-78830375D01*
X149822036Y-78715187D01*
X149820799Y-78713044D01*
X149801937Y-78680375D01*
X192333100Y-78680375D01*
X192333100Y-78799625D01*
X192341340Y-78830377D01*
X192363964Y-78914813D01*
X192363964Y-78914814D01*
X192423589Y-79018087D01*
X192507912Y-79102410D01*
X192567538Y-79136834D01*
X192611187Y-79162036D01*
X192726375Y-79192900D01*
X192726378Y-79192900D01*
X192845622Y-79192900D01*
X192845625Y-79192900D01*
X192960813Y-79162036D01*
X193064087Y-79102410D01*
X193148410Y-79018087D01*
X193208036Y-78914813D01*
X193238900Y-78799625D01*
X193238900Y-78680375D01*
X193208036Y-78565187D01*
X193151904Y-78467964D01*
X193148410Y-78461912D01*
X193064087Y-78377589D01*
X192960813Y-78317964D01*
X192956898Y-78316915D01*
X192845625Y-78287100D01*
X192726375Y-78287100D01*
X192639984Y-78310248D01*
X192611186Y-78317964D01*
X192611185Y-78317964D01*
X192507912Y-78377589D01*
X192423589Y-78461912D01*
X192363964Y-78565185D01*
X192363964Y-78565186D01*
X192363964Y-78565187D01*
X192333100Y-78680375D01*
X149801937Y-78680375D01*
X149762410Y-78611912D01*
X149678087Y-78527589D01*
X149574813Y-78467964D01*
X149459625Y-78437100D01*
X149340375Y-78437100D01*
X149253984Y-78460248D01*
X149225186Y-78467964D01*
X149225185Y-78467964D01*
X149121912Y-78527589D01*
X149037589Y-78611912D01*
X148977964Y-78715185D01*
X148977964Y-78715186D01*
X148977964Y-78715187D01*
X148947100Y-78830375D01*
X125730000Y-78830375D01*
X125730000Y-78063974D01*
X145690699Y-78063974D01*
X145690699Y-78183224D01*
X145718532Y-78287100D01*
X145721563Y-78298412D01*
X145721563Y-78298413D01*
X145781188Y-78401686D01*
X145865511Y-78486009D01*
X145925137Y-78520433D01*
X145968786Y-78545635D01*
X146083974Y-78576499D01*
X146083977Y-78576499D01*
X146203221Y-78576499D01*
X146203224Y-78576499D01*
X146318412Y-78545635D01*
X146421686Y-78486009D01*
X146445783Y-78461912D01*
X146500425Y-78407271D01*
X146547045Y-78385531D01*
X146596732Y-78398845D01*
X146606773Y-78407271D01*
X146691912Y-78492410D01*
X146751538Y-78526834D01*
X146795187Y-78552036D01*
X146910375Y-78582900D01*
X146910378Y-78582900D01*
X147029622Y-78582900D01*
X147029625Y-78582900D01*
X147144813Y-78552036D01*
X147248087Y-78492410D01*
X147332410Y-78408087D01*
X147392036Y-78304813D01*
X147422900Y-78189625D01*
X147422900Y-78070375D01*
X147392036Y-77955187D01*
X147392035Y-77955185D01*
X147332410Y-77851912D01*
X147248087Y-77767589D01*
X147144813Y-77707964D01*
X147029625Y-77677100D01*
X146910375Y-77677100D01*
X146823984Y-77700248D01*
X146795186Y-77707964D01*
X146795185Y-77707964D01*
X146691912Y-77767589D01*
X146613174Y-77846328D01*
X146566554Y-77868068D01*
X146516867Y-77854754D01*
X146506826Y-77846328D01*
X146421686Y-77761188D01*
X146318412Y-77701563D01*
X146203224Y-77670699D01*
X146083974Y-77670699D01*
X145997583Y-77693847D01*
X145968785Y-77701563D01*
X145968784Y-77701563D01*
X145865511Y-77761188D01*
X145781188Y-77845511D01*
X145721563Y-77948784D01*
X145721563Y-77948785D01*
X145721563Y-77948786D01*
X145690699Y-78063974D01*
X125730000Y-78063974D01*
X125730000Y-77156375D01*
X192841100Y-77156375D01*
X192841100Y-77275625D01*
X192849605Y-77307365D01*
X192871964Y-77390813D01*
X192871964Y-77390814D01*
X192931589Y-77494087D01*
X193015912Y-77578410D01*
X193075538Y-77612834D01*
X193119187Y-77638036D01*
X193234375Y-77668900D01*
X193234378Y-77668900D01*
X193353622Y-77668900D01*
X193353625Y-77668900D01*
X193468813Y-77638036D01*
X193572087Y-77578410D01*
X193656410Y-77494087D01*
X193716036Y-77390813D01*
X193729362Y-77341075D01*
X193758867Y-77298940D01*
X193808554Y-77285626D01*
X193855174Y-77307365D01*
X193874638Y-77341077D01*
X193887964Y-77390813D01*
X193887964Y-77390814D01*
X193947589Y-77494087D01*
X194031912Y-77578410D01*
X194091538Y-77612834D01*
X194135187Y-77638036D01*
X194250375Y-77668900D01*
X194250378Y-77668900D01*
X194369622Y-77668900D01*
X194369625Y-77668900D01*
X194484813Y-77638036D01*
X194588087Y-77578410D01*
X194672410Y-77494087D01*
X194732036Y-77390813D01*
X194762900Y-77275625D01*
X194762900Y-77156375D01*
X194732036Y-77041187D01*
X194732035Y-77041185D01*
X194672410Y-76937912D01*
X194588087Y-76853589D01*
X194484813Y-76793964D01*
X194477614Y-76792035D01*
X194369625Y-76763100D01*
X194250375Y-76763100D01*
X194163984Y-76786248D01*
X194135186Y-76793964D01*
X194135185Y-76793964D01*
X194031912Y-76853589D01*
X193947589Y-76937912D01*
X193887964Y-77041185D01*
X193887964Y-77041187D01*
X193874638Y-77090922D01*
X193845133Y-77133059D01*
X193795446Y-77146373D01*
X193748826Y-77124634D01*
X193729362Y-77090922D01*
X193716036Y-77041187D01*
X193716035Y-77041185D01*
X193656410Y-76937912D01*
X193572087Y-76853589D01*
X193468813Y-76793964D01*
X193461614Y-76792035D01*
X193353625Y-76763100D01*
X193234375Y-76763100D01*
X193147984Y-76786248D01*
X193119186Y-76793964D01*
X193119185Y-76793964D01*
X193015912Y-76853589D01*
X192931589Y-76937912D01*
X192871964Y-77041185D01*
X192871964Y-77041186D01*
X192871964Y-77041187D01*
X192841100Y-77156375D01*
X125730000Y-77156375D01*
X125730000Y-76310375D01*
X147877100Y-76310375D01*
X147877100Y-76429625D01*
X147900462Y-76516813D01*
X147907964Y-76544813D01*
X147907964Y-76544814D01*
X147967589Y-76648087D01*
X148051912Y-76732410D01*
X148105069Y-76763100D01*
X148155187Y-76792036D01*
X148270375Y-76822900D01*
X148270378Y-76822900D01*
X148389622Y-76822900D01*
X148389625Y-76822900D01*
X148504813Y-76792036D01*
X148608087Y-76732410D01*
X148692410Y-76648087D01*
X148752036Y-76544813D01*
X148782900Y-76429625D01*
X148782900Y-76310375D01*
X148775398Y-76282375D01*
X151439100Y-76282375D01*
X151439100Y-76401625D01*
X151469964Y-76516813D01*
X151469964Y-76516814D01*
X151529589Y-76620087D01*
X151613912Y-76704410D01*
X151662410Y-76732410D01*
X151717187Y-76764036D01*
X151832375Y-76794900D01*
X151832378Y-76794900D01*
X151951622Y-76794900D01*
X151951625Y-76794900D01*
X152066813Y-76764036D01*
X152170087Y-76704410D01*
X152254410Y-76620087D01*
X152314036Y-76516813D01*
X152344900Y-76401625D01*
X152344900Y-76282375D01*
X152314036Y-76167187D01*
X152270576Y-76091913D01*
X152254410Y-76063912D01*
X152170087Y-75979589D01*
X152066813Y-75919964D01*
X152056124Y-75917100D01*
X151951625Y-75889100D01*
X151832375Y-75889100D01*
X151745984Y-75912248D01*
X151717186Y-75919964D01*
X151717185Y-75919964D01*
X151613912Y-75979589D01*
X151529589Y-76063912D01*
X151469964Y-76167185D01*
X151469964Y-76167186D01*
X151459676Y-76205583D01*
X151439100Y-76282375D01*
X148775398Y-76282375D01*
X148752036Y-76195187D01*
X148735870Y-76167187D01*
X148692410Y-76091912D01*
X148608087Y-76007589D01*
X148504813Y-75947964D01*
X148389625Y-75917100D01*
X148270375Y-75917100D01*
X148183984Y-75940248D01*
X148155186Y-75947964D01*
X148155185Y-75947964D01*
X148051912Y-76007589D01*
X147967589Y-76091912D01*
X147907964Y-76195185D01*
X147907964Y-76195186D01*
X147907964Y-76195187D01*
X147877100Y-76310375D01*
X125730000Y-76310375D01*
X125730000Y-74540375D01*
X148427100Y-74540375D01*
X148427100Y-74659625D01*
X148451088Y-74749151D01*
X148457964Y-74774813D01*
X148457964Y-74774814D01*
X148517589Y-74878087D01*
X148601912Y-74962410D01*
X148661538Y-74996834D01*
X148705187Y-75022036D01*
X148820375Y-75052900D01*
X148820378Y-75052900D01*
X148939622Y-75052900D01*
X148939625Y-75052900D01*
X149054813Y-75022036D01*
X149158087Y-74962410D01*
X149242410Y-74878087D01*
X149297762Y-74782214D01*
X149337166Y-74749151D01*
X149388605Y-74749151D01*
X149428011Y-74782216D01*
X149477589Y-74868087D01*
X149561912Y-74952410D01*
X149579233Y-74962410D01*
X149665187Y-75012036D01*
X149780375Y-75042900D01*
X149780378Y-75042900D01*
X149899622Y-75042900D01*
X149899625Y-75042900D01*
X150014813Y-75012036D01*
X150118087Y-74952410D01*
X150202410Y-74868087D01*
X150262036Y-74764813D01*
X150292900Y-74649625D01*
X150292900Y-74530375D01*
X150262036Y-74415187D01*
X150208184Y-74321913D01*
X150202410Y-74311912D01*
X150118087Y-74227589D01*
X150014813Y-74167964D01*
X149899625Y-74137100D01*
X149780375Y-74137100D01*
X149693984Y-74160248D01*
X149665186Y-74167964D01*
X149665185Y-74167964D01*
X149561912Y-74227589D01*
X149477589Y-74311912D01*
X149422238Y-74407783D01*
X149382833Y-74440848D01*
X149331393Y-74440848D01*
X149291988Y-74407783D01*
X149242410Y-74321912D01*
X149158087Y-74237589D01*
X149054813Y-74177964D01*
X148939625Y-74147100D01*
X148820375Y-74147100D01*
X148742508Y-74167964D01*
X148705186Y-74177964D01*
X148705185Y-74177964D01*
X148601912Y-74237589D01*
X148517589Y-74321912D01*
X148457964Y-74425185D01*
X148457964Y-74425186D01*
X148457964Y-74425187D01*
X148427100Y-74540375D01*
X125730000Y-74540375D01*
X125730000Y-73790375D01*
X182727100Y-73790375D01*
X182727100Y-73909625D01*
X182754389Y-74011471D01*
X182757964Y-74024813D01*
X182757964Y-74024814D01*
X182817589Y-74128087D01*
X182901912Y-74212410D01*
X182961538Y-74246834D01*
X183005187Y-74272036D01*
X183120375Y-74302900D01*
X183120378Y-74302900D01*
X183239622Y-74302900D01*
X183239625Y-74302900D01*
X183354813Y-74272036D01*
X183458087Y-74212410D01*
X183542410Y-74128087D01*
X183542411Y-74128085D01*
X183554875Y-74106498D01*
X183594280Y-74073433D01*
X183645720Y-74073433D01*
X183685125Y-74106498D01*
X183697589Y-74128087D01*
X183781912Y-74212410D01*
X183841538Y-74246834D01*
X183885187Y-74272036D01*
X184000375Y-74302900D01*
X184000378Y-74302900D01*
X184119622Y-74302900D01*
X184119625Y-74302900D01*
X184234813Y-74272036D01*
X184338087Y-74212410D01*
X184422410Y-74128087D01*
X184422412Y-74128085D01*
X184470648Y-74044537D01*
X184510053Y-74011471D01*
X184561492Y-74011471D01*
X184600898Y-74044535D01*
X184600898Y-74044536D01*
X184637589Y-74108087D01*
X184721912Y-74192410D01*
X184781538Y-74226834D01*
X184825187Y-74252036D01*
X184940375Y-74282900D01*
X184940378Y-74282900D01*
X185059622Y-74282900D01*
X185059625Y-74282900D01*
X185174813Y-74252036D01*
X185278087Y-74192410D01*
X185362410Y-74108087D01*
X185422036Y-74004813D01*
X185452900Y-73889625D01*
X185452900Y-73770375D01*
X185422036Y-73655187D01*
X185409253Y-73633046D01*
X185390390Y-73600375D01*
X192841100Y-73600375D01*
X192841100Y-73719625D01*
X192854699Y-73770377D01*
X192871964Y-73834813D01*
X192871964Y-73834814D01*
X192931589Y-73938087D01*
X193015912Y-74022410D01*
X193075538Y-74056834D01*
X193119187Y-74082036D01*
X193234375Y-74112900D01*
X193234378Y-74112900D01*
X193353622Y-74112900D01*
X193353625Y-74112900D01*
X193468813Y-74082036D01*
X193572087Y-74022410D01*
X193656410Y-73938087D01*
X193716036Y-73834813D01*
X193729362Y-73785075D01*
X193758867Y-73742940D01*
X193808554Y-73729626D01*
X193855174Y-73751365D01*
X193874637Y-73785075D01*
X193876058Y-73790377D01*
X193887964Y-73834813D01*
X193887964Y-73834814D01*
X193947589Y-73938087D01*
X194031912Y-74022410D01*
X194091538Y-74056834D01*
X194135187Y-74082036D01*
X194250375Y-74112900D01*
X194250378Y-74112900D01*
X194369622Y-74112900D01*
X194369625Y-74112900D01*
X194484813Y-74082036D01*
X194588087Y-74022410D01*
X194672410Y-73938087D01*
X194732036Y-73834813D01*
X194762900Y-73719625D01*
X194762900Y-73600375D01*
X194732036Y-73485187D01*
X194687451Y-73407964D01*
X194672410Y-73381912D01*
X194588087Y-73297589D01*
X194484813Y-73237964D01*
X194369625Y-73207100D01*
X194250375Y-73207100D01*
X194163984Y-73230248D01*
X194135186Y-73237964D01*
X194135185Y-73237964D01*
X194031912Y-73297589D01*
X193947589Y-73381912D01*
X193887964Y-73485185D01*
X193887964Y-73485187D01*
X193874638Y-73534922D01*
X193845133Y-73577059D01*
X193795446Y-73590373D01*
X193748826Y-73568634D01*
X193729362Y-73534922D01*
X193716036Y-73485187D01*
X193671451Y-73407964D01*
X193656410Y-73381912D01*
X193572087Y-73297589D01*
X193468813Y-73237964D01*
X193353625Y-73207100D01*
X193234375Y-73207100D01*
X193147984Y-73230248D01*
X193119186Y-73237964D01*
X193119185Y-73237964D01*
X193015912Y-73297589D01*
X192931589Y-73381912D01*
X192871964Y-73485185D01*
X192871964Y-73485186D01*
X192871964Y-73485187D01*
X192841100Y-73600375D01*
X185390390Y-73600375D01*
X185362410Y-73551912D01*
X185278087Y-73467589D01*
X185174813Y-73407964D01*
X185059625Y-73377100D01*
X184940375Y-73377100D01*
X184865733Y-73397100D01*
X184825186Y-73407964D01*
X184825185Y-73407964D01*
X184721912Y-73467589D01*
X184637589Y-73551912D01*
X184589351Y-73635463D01*
X184549946Y-73668528D01*
X184498506Y-73668528D01*
X184459101Y-73635463D01*
X184422410Y-73571912D01*
X184338087Y-73487589D01*
X184234813Y-73427964D01*
X184119625Y-73397100D01*
X184000375Y-73397100D01*
X183913984Y-73420248D01*
X183885186Y-73427964D01*
X183885185Y-73427964D01*
X183781912Y-73487589D01*
X183697590Y-73571911D01*
X183685125Y-73593502D01*
X183645719Y-73626566D01*
X183594279Y-73626566D01*
X183554875Y-73593502D01*
X183542409Y-73571911D01*
X183458087Y-73487589D01*
X183354813Y-73427964D01*
X183239625Y-73397100D01*
X183120375Y-73397100D01*
X183033984Y-73420248D01*
X183005186Y-73427964D01*
X183005185Y-73427964D01*
X182901912Y-73487589D01*
X182817589Y-73571912D01*
X182757964Y-73675185D01*
X182757964Y-73675186D01*
X182757964Y-73675187D01*
X182727100Y-73790375D01*
X125730000Y-73790375D01*
X125730000Y-72056535D01*
X166145500Y-72056535D01*
X166145500Y-72263465D01*
X166185870Y-72466420D01*
X166265059Y-72657598D01*
X166380023Y-72829655D01*
X166380024Y-72829656D01*
X166380027Y-72829660D01*
X166526339Y-72975972D01*
X166526342Y-72975974D01*
X166526345Y-72975977D01*
X166698402Y-73090941D01*
X166889580Y-73170130D01*
X167041796Y-73200407D01*
X167092534Y-73210500D01*
X167092535Y-73210500D01*
X167299466Y-73210500D01*
X167340056Y-73202426D01*
X167502420Y-73170130D01*
X167693598Y-73090941D01*
X167865655Y-72975977D01*
X168011977Y-72829655D01*
X168126941Y-72657598D01*
X168206130Y-72466420D01*
X168246500Y-72263465D01*
X168246500Y-72056535D01*
X168206130Y-71853580D01*
X168126941Y-71662402D01*
X168011977Y-71490345D01*
X168011974Y-71490342D01*
X168011972Y-71490339D01*
X167865660Y-71344027D01*
X167865656Y-71344024D01*
X167865655Y-71344023D01*
X167693598Y-71229059D01*
X167502420Y-71149870D01*
X167502417Y-71149869D01*
X167502416Y-71149869D01*
X167299466Y-71109500D01*
X167299465Y-71109500D01*
X167092535Y-71109500D01*
X167092534Y-71109500D01*
X166889583Y-71149869D01*
X166889580Y-71149870D01*
X166698403Y-71229058D01*
X166526339Y-71344027D01*
X166380027Y-71490339D01*
X166265058Y-71662403D01*
X166185870Y-71853580D01*
X166145500Y-72056535D01*
X125730000Y-72056535D01*
X125730000Y-70810375D01*
X144997100Y-70810375D01*
X144997100Y-70929625D01*
X145027964Y-71044813D01*
X145027964Y-71044814D01*
X145087589Y-71148087D01*
X145171912Y-71232410D01*
X145231538Y-71266834D01*
X145275187Y-71292036D01*
X145390375Y-71322900D01*
X145390378Y-71322900D01*
X145509622Y-71322900D01*
X145509625Y-71322900D01*
X145624813Y-71292036D01*
X145728087Y-71232410D01*
X145812410Y-71148087D01*
X145872036Y-71044813D01*
X145902900Y-70929625D01*
X145902900Y-70810375D01*
X145872036Y-70695187D01*
X145872035Y-70695185D01*
X145812410Y-70591912D01*
X145728087Y-70507589D01*
X145624813Y-70447964D01*
X145509625Y-70417100D01*
X145390375Y-70417100D01*
X145303984Y-70440248D01*
X145275186Y-70447964D01*
X145275185Y-70447964D01*
X145171912Y-70507589D01*
X145087589Y-70591912D01*
X145027964Y-70695185D01*
X145027964Y-70695186D01*
X145027964Y-70695187D01*
X144997100Y-70810375D01*
X125730000Y-70810375D01*
X125730000Y-68579995D01*
X166546000Y-68579995D01*
X166546000Y-68580004D01*
X166553998Y-68681674D01*
X166553999Y-68681679D01*
X166577807Y-68780849D01*
X166577810Y-68780860D01*
X166577813Y-68780868D01*
X166577815Y-68780873D01*
X166616847Y-68875085D01*
X166616854Y-68875098D01*
X166670139Y-68962059D01*
X166670145Y-68962067D01*
X166736379Y-69039620D01*
X166813932Y-69105854D01*
X166813940Y-69105860D01*
X166900901Y-69159145D01*
X166900914Y-69159152D01*
X166960441Y-69183814D01*
X166995140Y-69198190D01*
X167094320Y-69222000D01*
X167094325Y-69222001D01*
X167195995Y-69230000D01*
X167196000Y-69230000D01*
X167196005Y-69230000D01*
X167297674Y-69222001D01*
X167297678Y-69222000D01*
X167297680Y-69222000D01*
X167396860Y-69198190D01*
X167491090Y-69159150D01*
X167578060Y-69105860D01*
X167655620Y-69039620D01*
X167721860Y-68962060D01*
X167775150Y-68875090D01*
X167814190Y-68780860D01*
X167838000Y-68681680D01*
X167838000Y-68681678D01*
X167838001Y-68681674D01*
X167846000Y-68580004D01*
X167846000Y-68579995D01*
X167838001Y-68478325D01*
X167838000Y-68478320D01*
X167814192Y-68379150D01*
X167814190Y-68379140D01*
X167775150Y-68284910D01*
X167775148Y-68284907D01*
X167775145Y-68284901D01*
X167721860Y-68197940D01*
X167721854Y-68197932D01*
X167655620Y-68120379D01*
X167578067Y-68054145D01*
X167578059Y-68054139D01*
X167491098Y-68000854D01*
X167491085Y-68000847D01*
X167396873Y-67961815D01*
X167396868Y-67961813D01*
X167396860Y-67961810D01*
X167396852Y-67961808D01*
X167396849Y-67961807D01*
X167297679Y-67937999D01*
X167297674Y-67937998D01*
X167196005Y-67930000D01*
X167195995Y-67930000D01*
X167094325Y-67937998D01*
X167094320Y-67937999D01*
X166995150Y-67961807D01*
X166995143Y-67961809D01*
X166995140Y-67961810D01*
X166995135Y-67961811D01*
X166995126Y-67961815D01*
X166900914Y-68000847D01*
X166900901Y-68000854D01*
X166813940Y-68054139D01*
X166813932Y-68054145D01*
X166736379Y-68120379D01*
X166670145Y-68197932D01*
X166670139Y-68197940D01*
X166616854Y-68284901D01*
X166616847Y-68284914D01*
X166577815Y-68379126D01*
X166577807Y-68379150D01*
X166553999Y-68478320D01*
X166553998Y-68478325D01*
X166546000Y-68579995D01*
X125730000Y-68579995D01*
X125730000Y-64896535D01*
X166145500Y-64896535D01*
X166145500Y-65103465D01*
X166185870Y-65306420D01*
X166265059Y-65497598D01*
X166380023Y-65669655D01*
X166380024Y-65669656D01*
X166380027Y-65669660D01*
X166526339Y-65815972D01*
X166526342Y-65815974D01*
X166526345Y-65815977D01*
X166698402Y-65930941D01*
X166889580Y-66010130D01*
X167041796Y-66040407D01*
X167092534Y-66050500D01*
X167092535Y-66050500D01*
X167299466Y-66050500D01*
X167340056Y-66042426D01*
X167502420Y-66010130D01*
X167693598Y-65930941D01*
X167865655Y-65815977D01*
X168011977Y-65669655D01*
X168126941Y-65497598D01*
X168206130Y-65306420D01*
X168246500Y-65103465D01*
X168246500Y-64896535D01*
X168206130Y-64693580D01*
X168126941Y-64502402D01*
X168011977Y-64330345D01*
X168011974Y-64330342D01*
X168011972Y-64330339D01*
X167865660Y-64184027D01*
X167865656Y-64184024D01*
X167865655Y-64184023D01*
X167693598Y-64069059D01*
X167502420Y-63989870D01*
X167502417Y-63989869D01*
X167502416Y-63989869D01*
X167299466Y-63949500D01*
X167299465Y-63949500D01*
X167092535Y-63949500D01*
X167092534Y-63949500D01*
X166889583Y-63989869D01*
X166889580Y-63989870D01*
X166698403Y-64069058D01*
X166526339Y-64184027D01*
X166380027Y-64330339D01*
X166265058Y-64502403D01*
X166185870Y-64693580D01*
X166145500Y-64896535D01*
X125730000Y-64896535D01*
X125730000Y-43638134D01*
X150804250Y-43638134D01*
X150804250Y-43845065D01*
X150823625Y-43942473D01*
X150844620Y-44048020D01*
X150923809Y-44239198D01*
X151038773Y-44411255D01*
X151038774Y-44411256D01*
X151038777Y-44411260D01*
X151185089Y-44557572D01*
X151185092Y-44557574D01*
X151185095Y-44557577D01*
X151357152Y-44672541D01*
X151548330Y-44751730D01*
X151700546Y-44782007D01*
X151751284Y-44792100D01*
X151751285Y-44792100D01*
X151958216Y-44792100D01*
X151998806Y-44784026D01*
X152161170Y-44751730D01*
X152352348Y-44672541D01*
X152524405Y-44557577D01*
X152670727Y-44411255D01*
X152785691Y-44239198D01*
X152864880Y-44048020D01*
X152905250Y-43845065D01*
X152905250Y-43741595D01*
X154784750Y-43741595D01*
X154784750Y-43741604D01*
X154792748Y-43843274D01*
X154792749Y-43843279D01*
X154816557Y-43942449D01*
X154816560Y-43942460D01*
X154816563Y-43942468D01*
X154816565Y-43942473D01*
X154855597Y-44036685D01*
X154855604Y-44036698D01*
X154908889Y-44123659D01*
X154908895Y-44123667D01*
X154975129Y-44201220D01*
X155052682Y-44267454D01*
X155052690Y-44267460D01*
X155139651Y-44320745D01*
X155139664Y-44320752D01*
X155199191Y-44345414D01*
X155233890Y-44359790D01*
X155333070Y-44383600D01*
X155333075Y-44383601D01*
X155434745Y-44391600D01*
X155434750Y-44391600D01*
X155434755Y-44391600D01*
X155536424Y-44383601D01*
X155536428Y-44383600D01*
X155536430Y-44383600D01*
X155635610Y-44359790D01*
X155729840Y-44320750D01*
X155816810Y-44267460D01*
X155894370Y-44201220D01*
X155960610Y-44123660D01*
X156013900Y-44036690D01*
X156052940Y-43942460D01*
X156076750Y-43843280D01*
X156076750Y-43843278D01*
X156076751Y-43843274D01*
X156084750Y-43741604D01*
X156084750Y-43741595D01*
X156076784Y-43640339D01*
X156076750Y-43639922D01*
X156076750Y-43639920D01*
X156076321Y-43638134D01*
X157964250Y-43638134D01*
X157964250Y-43845065D01*
X157983625Y-43942473D01*
X158004620Y-44048020D01*
X158083809Y-44239198D01*
X158198773Y-44411255D01*
X158198774Y-44411256D01*
X158198777Y-44411260D01*
X158345089Y-44557572D01*
X158345092Y-44557574D01*
X158345095Y-44557577D01*
X158517152Y-44672541D01*
X158708330Y-44751730D01*
X158860546Y-44782007D01*
X158911284Y-44792100D01*
X158911285Y-44792100D01*
X159118216Y-44792100D01*
X159158806Y-44784026D01*
X159321170Y-44751730D01*
X159512348Y-44672541D01*
X159684405Y-44557577D01*
X159830727Y-44411255D01*
X159945691Y-44239198D01*
X160024880Y-44048020D01*
X160065250Y-43845065D01*
X160065250Y-43638135D01*
X160024880Y-43435180D01*
X159945691Y-43244002D01*
X159830727Y-43071945D01*
X159830724Y-43071942D01*
X159830722Y-43071939D01*
X159684410Y-42925627D01*
X159684406Y-42925624D01*
X159684405Y-42925623D01*
X159512348Y-42810659D01*
X159321170Y-42731470D01*
X159321167Y-42731469D01*
X159321166Y-42731469D01*
X159118216Y-42691100D01*
X159118215Y-42691100D01*
X158911285Y-42691100D01*
X158911284Y-42691100D01*
X158708333Y-42731469D01*
X158708330Y-42731470D01*
X158517153Y-42810658D01*
X158345089Y-42925627D01*
X158198777Y-43071939D01*
X158083808Y-43244003D01*
X158004620Y-43435180D01*
X158004619Y-43435183D01*
X157964250Y-43638134D01*
X156076321Y-43638134D01*
X156052942Y-43540750D01*
X156052940Y-43540740D01*
X156013900Y-43446510D01*
X156013898Y-43446507D01*
X156013895Y-43446501D01*
X155960610Y-43359540D01*
X155960604Y-43359532D01*
X155894370Y-43281979D01*
X155816817Y-43215745D01*
X155816809Y-43215739D01*
X155729848Y-43162454D01*
X155729835Y-43162447D01*
X155635623Y-43123415D01*
X155635618Y-43123413D01*
X155635610Y-43123410D01*
X155635602Y-43123408D01*
X155635599Y-43123407D01*
X155536429Y-43099599D01*
X155536424Y-43099598D01*
X155434755Y-43091600D01*
X155434745Y-43091600D01*
X155333075Y-43099598D01*
X155333070Y-43099599D01*
X155233900Y-43123407D01*
X155233893Y-43123409D01*
X155233890Y-43123410D01*
X155233885Y-43123411D01*
X155233876Y-43123415D01*
X155139664Y-43162447D01*
X155139651Y-43162454D01*
X155052690Y-43215739D01*
X155052682Y-43215745D01*
X154975129Y-43281979D01*
X154908895Y-43359532D01*
X154908889Y-43359540D01*
X154855604Y-43446501D01*
X154855597Y-43446514D01*
X154816565Y-43540726D01*
X154816557Y-43540750D01*
X154792749Y-43639920D01*
X154792748Y-43639925D01*
X154784750Y-43741595D01*
X152905250Y-43741595D01*
X152905250Y-43638135D01*
X152864880Y-43435180D01*
X152785691Y-43244002D01*
X152670727Y-43071945D01*
X152670724Y-43071942D01*
X152670722Y-43071939D01*
X152524410Y-42925627D01*
X152524406Y-42925624D01*
X152524405Y-42925623D01*
X152352348Y-42810659D01*
X152161170Y-42731470D01*
X152161167Y-42731469D01*
X152161166Y-42731469D01*
X151958216Y-42691100D01*
X151958215Y-42691100D01*
X151751285Y-42691100D01*
X151751284Y-42691100D01*
X151548333Y-42731469D01*
X151548330Y-42731470D01*
X151357153Y-42810658D01*
X151185089Y-42925627D01*
X151038777Y-43071939D01*
X150923808Y-43244003D01*
X150844620Y-43435180D01*
X150844619Y-43435183D01*
X150804250Y-43638134D01*
X125730000Y-43638134D01*
X125730000Y-39461148D01*
X125735615Y-39445720D01*
X125737046Y-39429367D01*
X125746460Y-39415922D01*
X125747593Y-39412810D01*
X125752026Y-39407974D01*
X125767974Y-39392026D01*
X125814594Y-39370286D01*
X125821148Y-39370000D01*
X199314800Y-39370000D01*
X199363138Y-39387593D01*
G37*
%TD.AperFunction*%
%TD*%
M02*
