%TF.GenerationSoftware,KiCad,Pcbnew,9.0.9-9.0.9~ubuntu22.04.1*%
%TF.CreationDate,2026-09-22T08:18:59-04:00*%
%TF.ProjectId,fpm_afe,66706d5f-6166-4652-9e6b-696361645f70,rev?*%
%TF.SameCoordinates,Original*%
%TF.FileFunction,Soldermask,Bot*%
%TF.FilePolarity,Negative*%
%FSLAX46Y46*%
G04 Gerber Fmt 4.6, Leading zero omitted, Abs format (unit mm)*
G04 Created by KiCad (PCBNEW 9.0.9-9.0.9~ubuntu22.04.1) date 2026-09-22 08:18:59*
%MOMM*%
%LPD*%
G01*
G04 APERTURE LIST*
%ADD10C,1.226200*%
%ADD11C,1.576200*%
%ADD12C,0.010000*%
%ADD13C,0.508000*%
%ADD14C,7.500000*%
%ADD15C,1.600000*%
%ADD16C,0.500000*%
%ADD17C,1.447800*%
%ADD18C,3.000000*%
G04 APERTURE END LIST*
D10*
%TO.C,J1*%
X185458100Y-96720000D02*
G75*
G02*
X184231900Y-96720000I-613100J0D01*
G01*
X184231900Y-96720000D02*
G75*
G02*
X185458100Y-96720000I613100J0D01*
G01*
D11*
X198433100Y-96720000D02*
G75*
G02*
X196856900Y-96720000I-788100J0D01*
G01*
X196856900Y-96720000D02*
G75*
G02*
X198433100Y-96720000I788100J0D01*
G01*
D12*
X191571200Y-97946200D02*
X189118800Y-97946200D01*
X189118800Y-95493800D01*
X191571200Y-95493800D01*
X191571200Y-97946200D01*
G36*
X191571200Y-97946200D02*
G01*
X189118800Y-97946200D01*
X189118800Y-95493800D01*
X191571200Y-95493800D01*
X191571200Y-97946200D01*
G37*
%TD*%
D13*
%TO.C,U2*%
X145893599Y-73612500D03*
X144893599Y-73612500D03*
X143993599Y-73612500D03*
X145893599Y-74612500D03*
X144893599Y-74612500D03*
X143993599Y-74612500D03*
X145893599Y-75612500D03*
X144893599Y-75612500D03*
X143993599Y-75612500D03*
%TD*%
D14*
%TO.C,MT3*%
X129540000Y-109061001D03*
%TD*%
D13*
%TO.C,U5*%
X144255200Y-99034700D03*
X143455200Y-99034700D03*
X142655200Y-99034700D03*
X144255200Y-99834700D03*
X143455200Y-99834700D03*
X142655200Y-99834700D03*
X144255200Y-100634700D03*
X143455200Y-100634700D03*
X142655200Y-100634700D03*
%TD*%
D15*
%TO.C,J3*%
X147303600Y-109982000D03*
X140143600Y-109982000D03*
D16*
X144773600Y-109982000D03*
X144623600Y-109382000D03*
X144523600Y-110582000D03*
X144373600Y-108782000D03*
X144373600Y-108132000D03*
X144373600Y-107482000D03*
X144023600Y-110982000D03*
X143323600Y-110982000D03*
X143073600Y-108782000D03*
X143073600Y-108132000D03*
X143073600Y-107482000D03*
X142823600Y-110582000D03*
X142814300Y-109382000D03*
X142673600Y-109982000D03*
%TD*%
D17*
%TO.C,J4*%
X171864000Y-109982000D03*
X171864000Y-107981999D03*
X173864001Y-109982000D03*
X173864001Y-107981999D03*
X175864000Y-109982000D03*
X175864000Y-107981999D03*
X177864001Y-109982000D03*
X177864001Y-107981999D03*
X179864002Y-109982000D03*
X179864002Y-107981999D03*
X181864000Y-109982000D03*
X181864000Y-107981999D03*
X183864002Y-109982000D03*
X183864002Y-107981999D03*
%TD*%
D13*
%TO.C,U4*%
X155955199Y-55981700D03*
X155155199Y-55981700D03*
X154355199Y-55981700D03*
X155955199Y-56781700D03*
X155155199Y-56781700D03*
X154355199Y-56781700D03*
X155955199Y-57581700D03*
X155155199Y-57581700D03*
X154355199Y-57581700D03*
%TD*%
D14*
%TO.C,MT1*%
X129540000Y-43180000D03*
%TD*%
D15*
%TO.C,J2*%
X151854750Y-43741600D03*
X159014750Y-43741600D03*
D16*
X154384750Y-43741600D03*
X154534750Y-44341600D03*
X154634750Y-43141600D03*
X154784750Y-44941600D03*
X154784750Y-45591600D03*
X154784750Y-46241600D03*
X155134750Y-42741600D03*
X155834750Y-42741600D03*
X156084750Y-44941600D03*
X156084750Y-45591600D03*
X156084750Y-46241600D03*
X156334750Y-43141600D03*
X156344050Y-44341600D03*
X156484750Y-43741600D03*
%TD*%
D14*
%TO.C,MT2*%
X195580000Y-43180000D03*
%TD*%
%TO.C,MT4*%
X195580000Y-109061001D03*
%TD*%
D18*
%TO.C,J1*%
X197645000Y-96720000D03*
%TD*%
D15*
%TO.C,J5*%
X167196000Y-65000000D03*
X167196000Y-72160000D03*
D16*
X167196000Y-67530000D03*
X166596000Y-67680000D03*
X167796000Y-67780000D03*
X165996000Y-67930000D03*
X165346000Y-67930000D03*
X164696000Y-67930000D03*
X168196000Y-68280000D03*
X168196000Y-68980000D03*
X165996000Y-69230000D03*
X165346000Y-69230000D03*
X164696000Y-69230000D03*
X167796000Y-69480000D03*
X166596000Y-69489300D03*
X167196000Y-69630000D03*
%TD*%
M02*
