%TF.GenerationSoftware,KiCad,Pcbnew,9.0.9-9.0.9~ubuntu22.04.1*%
%TF.CreationDate,2026-09-22T08:18:59-04:00*%
%TF.ProjectId,fpm_afe,66706d5f-6166-4652-9e6b-696361645f70,rev?*%
%TF.SameCoordinates,Original*%
%TF.FileFunction,Copper,L4,Inr*%
%TF.FilePolarity,Positive*%
%FSLAX46Y46*%
G04 Gerber Fmt 4.6, Leading zero omitted, Abs format (unit mm)*
G04 Created by KiCad (PCBNEW 9.0.9-9.0.9~ubuntu22.04.1) date 2026-09-22 08:18:59*
%MOMM*%
%LPD*%
G01*
G04 APERTURE LIST*
%TA.AperFunction,ComponentPad*%
%ADD10C,0.508000*%
%TD*%
%TA.AperFunction,ComponentPad*%
%ADD11C,7.500000*%
%TD*%
%TA.AperFunction,ComponentPad*%
%ADD12C,0.500000*%
%TD*%
%TA.AperFunction,ComponentPad*%
%ADD13C,1.447800*%
%TD*%
%TA.AperFunction,HeatsinkPad*%
%ADD14C,0.500000*%
%TD*%
%TA.AperFunction,ComponentPad*%
%ADD15R,2.300000X2.300000*%
%TD*%
%TA.AperFunction,ComponentPad*%
%ADD16C,2.300000*%
%TD*%
%TA.AperFunction,ViaPad*%
%ADD17C,0.500000*%
%TD*%
%TA.AperFunction,ViaPad*%
%ADD18C,0.600000*%
%TD*%
%TA.AperFunction,Conductor*%
%ADD19C,0.254000*%
%TD*%
%TA.AperFunction,Conductor*%
%ADD20C,0.200000*%
%TD*%
G04 APERTURE END LIST*
D10*
%TO.N,GND*%
%TO.C,U2*%
X145893599Y-73612500D03*
X144893599Y-73612500D03*
X143993599Y-73612500D03*
X145893599Y-74612500D03*
X144893599Y-74612500D03*
X143993599Y-74612500D03*
X145893599Y-75612500D03*
X144893599Y-75612500D03*
X143993599Y-75612500D03*
%TD*%
D11*
%TO.N,GND*%
%TO.C,MT3*%
X129540000Y-109061001D03*
%TD*%
D10*
%TO.N,GND*%
%TO.C,U5*%
X144255200Y-99034700D03*
X143455200Y-99034700D03*
X142655200Y-99034700D03*
X144255200Y-99834700D03*
X143455200Y-99834700D03*
X142655200Y-99834700D03*
X144255200Y-100634700D03*
X143455200Y-100634700D03*
X142655200Y-100634700D03*
%TD*%
D12*
%TO.N,GND*%
%TO.C,J3*%
X144773600Y-109982000D03*
X144623600Y-109382000D03*
X144523600Y-110582000D03*
X144373600Y-108782000D03*
X144373600Y-108132000D03*
X144373600Y-107482000D03*
X144023600Y-110982000D03*
X143323600Y-110982000D03*
X143073600Y-108782000D03*
X143073600Y-108132000D03*
X143073600Y-107482000D03*
X142823600Y-110582000D03*
X142814300Y-109382000D03*
X142673600Y-109982000D03*
%TD*%
D13*
%TO.N,Net-(J4-Pad1)*%
%TO.C,J4*%
X171864000Y-109982000D03*
%TO.N,GND*%
X171864000Y-107981999D03*
%TO.N,Net-(J4-Pad3)*%
X173864001Y-109982000D03*
%TO.N,GND*%
X173864001Y-107981999D03*
%TO.N,Net-(J4-Pad5)*%
X175864000Y-109982000D03*
%TO.N,GND*%
X175864000Y-107981999D03*
%TO.N,unconnected-(J4-Pad7)*%
X177864001Y-109982000D03*
%TO.N,GND*%
X177864001Y-107981999D03*
%TO.N,unconnected-(J4-Pad9)*%
X179864002Y-109982000D03*
%TO.N,GND*%
X179864002Y-107981999D03*
%TO.N,unconnected-(J4-Pad11)*%
X181864000Y-109982000D03*
%TO.N,GND*%
X181864000Y-107981999D03*
%TO.N,unconnected-(J4-Pad13)*%
X183864002Y-109982000D03*
%TO.N,GND*%
X183864002Y-107981999D03*
%TD*%
D10*
%TO.N,GND*%
%TO.C,U4*%
X155955199Y-55981700D03*
X155155199Y-55981700D03*
X154355199Y-55981700D03*
X155955199Y-56781700D03*
X155155199Y-56781700D03*
X154355199Y-56781700D03*
X155955199Y-57581700D03*
X155155199Y-57581700D03*
X154355199Y-57581700D03*
%TD*%
D11*
%TO.N,GND*%
%TO.C,MT1*%
X129540000Y-43180000D03*
%TD*%
D12*
%TO.N,GND*%
%TO.C,J2*%
X154384750Y-43741600D03*
X154534750Y-44341600D03*
X154634750Y-43141600D03*
X154784750Y-44941600D03*
X154784750Y-45591600D03*
X154784750Y-46241600D03*
X155134750Y-42741600D03*
X155834750Y-42741600D03*
X156084750Y-44941600D03*
X156084750Y-45591600D03*
X156084750Y-46241600D03*
X156334750Y-43141600D03*
X156344050Y-44341600D03*
X156484750Y-43741600D03*
%TD*%
D11*
%TO.N,GND*%
%TO.C,MT2*%
X195580000Y-43180000D03*
%TD*%
%TO.N,GND*%
%TO.C,MT4*%
X195580000Y-109061001D03*
%TD*%
D14*
%TO.N,GND*%
%TO.C,U1*%
X188500000Y-77740000D03*
X188500000Y-78740000D03*
X188500000Y-79740000D03*
X189500000Y-77740000D03*
X189500000Y-78740000D03*
X189500000Y-79740000D03*
X190500000Y-77740000D03*
X190500000Y-78740000D03*
X190500000Y-79740000D03*
%TD*%
D15*
%TO.N,GND*%
%TO.C,J1*%
X190345000Y-96720000D03*
D16*
%TO.N,/+12v*%
X184845000Y-96720000D03*
%TD*%
D12*
%TO.N,GND*%
%TO.C,J5*%
X167196000Y-67530000D03*
X166596000Y-67680000D03*
X167796000Y-67780000D03*
X165996000Y-67930000D03*
X165346000Y-67930000D03*
X164696000Y-67930000D03*
X168196000Y-68280000D03*
X168196000Y-68980000D03*
X165996000Y-69230000D03*
X165346000Y-69230000D03*
X164696000Y-69230000D03*
X167796000Y-69480000D03*
X166596000Y-69489300D03*
X167196000Y-69630000D03*
%TD*%
D17*
%TO.N,GND*%
X145000000Y-79600000D03*
X145000000Y-80700000D03*
X144900000Y-81800000D03*
X142100000Y-81800000D03*
X142100000Y-80600000D03*
X142200000Y-79500000D03*
X158000000Y-70000000D03*
X158100000Y-67200000D03*
X159000000Y-67200000D03*
X159900000Y-67200000D03*
X161000000Y-67200000D03*
X162000000Y-67800000D03*
X163300000Y-67800000D03*
X163300000Y-69500000D03*
X162200000Y-69500000D03*
X161100000Y-70000000D03*
X160000000Y-70000000D03*
X159000000Y-70000000D03*
X157400000Y-69500000D03*
X157300000Y-67700000D03*
X145100000Y-106200000D03*
X145100000Y-105100000D03*
X145100000Y-104100000D03*
X145000000Y-103100000D03*
X142400000Y-106200000D03*
X142400000Y-105200000D03*
X142400000Y-104100000D03*
X142400000Y-103100000D03*
X144500000Y-96600000D03*
X142800000Y-96600000D03*
X142300000Y-95500000D03*
X142300000Y-94500000D03*
X142300000Y-93500000D03*
X144900000Y-95400000D03*
X145000000Y-94400000D03*
X144900000Y-93400000D03*
X144400000Y-92300000D03*
X142600000Y-92400000D03*
X144300000Y-89300000D03*
X142900000Y-89600000D03*
X142900000Y-88700000D03*
X144400000Y-70600000D03*
X144600000Y-69600000D03*
X142800000Y-70700000D03*
X142800000Y-69700000D03*
X143200000Y-68500000D03*
X144000000Y-67800000D03*
D18*
%TO.N,*%
X146390000Y-93800000D03*
%TO.N,GND*%
X194564000Y-83312000D03*
D17*
X156100000Y-59800000D03*
X156100000Y-61300000D03*
D18*
X149460000Y-93670000D03*
X181102000Y-74168000D03*
X191770000Y-69596000D03*
D17*
X144200000Y-82900000D03*
X143000000Y-82800000D03*
X156100000Y-53050000D03*
X154700000Y-53050000D03*
D18*
X180086000Y-78232000D03*
D17*
X143100000Y-78100000D03*
D18*
X190451000Y-70661000D03*
D17*
X144300000Y-78100000D03*
D18*
X193294000Y-82296000D03*
X150360000Y-76370000D03*
X147810000Y-93740000D03*
X186944000Y-69596000D03*
D17*
X156100000Y-48750000D03*
X156100000Y-48000000D03*
X154700000Y-61300000D03*
X156100000Y-47250000D03*
D18*
X152050000Y-71800000D03*
X150970000Y-74620000D03*
D17*
X143000000Y-83500000D03*
X154750000Y-48000000D03*
D18*
X197309000Y-77167000D03*
D17*
X156100000Y-60550000D03*
D18*
X152100000Y-73430000D03*
D17*
X154700000Y-52300000D03*
D18*
X188263000Y-70661000D03*
D17*
X154700000Y-53800000D03*
X156100000Y-52300000D03*
X154750000Y-47250000D03*
X154750000Y-48750000D03*
X144300000Y-78850000D03*
D18*
X180086000Y-75692000D03*
X181102000Y-80010000D03*
D17*
X156100000Y-53800000D03*
D18*
X198374000Y-75692000D03*
D17*
X154700000Y-59800000D03*
X143100000Y-78850000D03*
X154700000Y-60550000D03*
D18*
%TO.N,+5.0V*%
X184060000Y-73850000D03*
X183180000Y-73850000D03*
X151892000Y-76342000D03*
X149398000Y-90180000D03*
X150310000Y-91030000D03*
X148880000Y-74600000D03*
X185000000Y-73830000D03*
X149840000Y-74590000D03*
%TO.N,Net-(U2-\u002AP{slash}S)*%
X149400000Y-78890000D03*
X145450000Y-70870000D03*
%TO.N,/atten_si*%
X172632000Y-97270000D03*
X148330000Y-76370000D03*
%TO.N,/atten_le*%
X170430000Y-97230000D03*
X146143599Y-78123599D03*
%TO.N,/atten_clk*%
X174830000Y-97210000D03*
X146970000Y-78130000D03*
%TO.N,/+12v*%
X194310000Y-77216000D03*
X193294000Y-77216000D03*
X194310000Y-73660000D03*
X192786000Y-78740000D03*
X193294000Y-73660000D03*
%TD*%
D19*
%TO.N,/atten_si*%
X176025000Y-97355000D02*
X176025000Y-98215000D01*
X148330000Y-76370000D02*
X148330000Y-79320000D01*
X163360000Y-94350000D02*
X173020000Y-94350000D01*
X176025000Y-98215000D02*
X175620000Y-98620000D01*
X148330000Y-79320000D02*
X163360000Y-94350000D01*
X175620000Y-98620000D02*
X173982000Y-98620000D01*
X173020000Y-94350000D02*
X176025000Y-97355000D01*
X173982000Y-98620000D02*
X172632000Y-97270000D01*
%TO.N,/atten_le*%
X146143599Y-78823599D02*
X146143599Y-78123599D01*
X170430000Y-97230000D02*
X164550000Y-97230000D01*
X164550000Y-97230000D02*
X146143599Y-78823599D01*
%TO.N,/atten_clk*%
X163560000Y-95400000D02*
X173020000Y-95400000D01*
X146970000Y-78810000D02*
X163560000Y-95400000D01*
X146970000Y-78130000D02*
X146970000Y-78810000D01*
X173020000Y-95400000D02*
X174830000Y-97210000D01*
D20*
%TO.N,/+12v*%
X192786000Y-78740000D02*
X192786000Y-77724000D01*
X192786000Y-77724000D02*
X193294000Y-77216000D01*
%TD*%
M02*
