M48
; DRILL file {KiCad 9.0.9-9.0.9~ubuntu22.04.1} date 2026-09-22T08:18:47-0400
; FORMAT={-:-/ absolute / metric / decimal}
; #@! TF.CreationDate,2026-09-22T08:18:47-04:00
; #@! TF.GenerationSoftware,Kicad,Pcbnew,9.0.9-9.0.9~ubuntu22.04.1
; #@! TF.FileFunction,Plated,1,6,PTH
FMAT,2
METRIC
; #@! TA.AperFunction,Plated,PTH,ViaDrill
T1C0.200
; #@! TA.AperFunction,Plated,PTH,ComponentDrill
T2C0.200
; #@! TA.AperFunction,Plated,PTH,ComponentDrill
T3C0.203
; #@! TA.AperFunction,Plated,PTH,ViaDrill
T4C0.300
; #@! TA.AperFunction,Plated,PTH,ComponentDrill
T5C0.940
; #@! TA.AperFunction,Plated,PTH,ComponentDrill
T6C1.800
; #@! TA.AperFunction,Plated,PTH,ComponentDrill
T7C4.300
%
G90
G05
T1
X142.1Y-80.6
X142.1Y-81.8
X142.2Y-79.5
X142.3Y-93.5
X142.3Y-94.5
X142.3Y-95.5
X142.4Y-103.1
X142.4Y-104.1
X142.4Y-105.2
X142.4Y-106.2
X142.6Y-92.4
X142.8Y-69.7
X142.8Y-70.7
X142.8Y-96.6
X142.9Y-88.7
X142.9Y-89.6
X143.0Y-82.8
X143.0Y-83.5
X143.1Y-78.1
X143.1Y-78.85
X143.2Y-68.5
X144.0Y-67.8
X144.2Y-82.9
X144.3Y-78.1
X144.3Y-78.85
X144.3Y-89.3
X144.4Y-70.6
X144.4Y-92.3
X144.5Y-96.6
X144.6Y-69.6
X144.9Y-81.8
X144.9Y-93.4
X144.9Y-95.4
X145.0Y-79.6
X145.0Y-80.7
X145.0Y-94.4
X145.0Y-103.1
X145.1Y-104.1
X145.1Y-105.1
X145.1Y-106.2
X154.7Y-52.3
X154.7Y-53.05
X154.7Y-53.8
X154.7Y-59.8
X154.7Y-60.55
X154.7Y-61.3
X154.75Y-47.25
X154.75Y-48.0
X154.75Y-48.75
X156.1Y-47.25
X156.1Y-48.0
X156.1Y-48.75
X156.1Y-52.3
X156.1Y-53.05
X156.1Y-53.8
X156.1Y-59.8
X156.1Y-60.55
X156.1Y-61.3
X157.3Y-67.7
X157.4Y-69.5
X158.0Y-70.0
X158.1Y-67.2
X159.0Y-67.2
X159.0Y-70.0
X159.9Y-67.2
X160.0Y-70.0
X161.0Y-67.2
X161.1Y-70.0
X162.0Y-67.8
X162.2Y-69.5
X163.3Y-67.8
X163.3Y-69.5
T2
X142.674Y-109.982
X142.814Y-109.382
X142.824Y-110.582
X143.074Y-107.482
X143.074Y-108.132
X143.074Y-108.782
X143.324Y-110.982
X144.024Y-110.982
X144.374Y-107.482
X144.374Y-108.132
X144.374Y-108.782
X144.524Y-110.582
X144.624Y-109.382
X144.774Y-109.982
X154.385Y-43.742
X154.535Y-44.342
X154.635Y-43.142
X154.785Y-44.942
X154.785Y-45.592
X154.785Y-46.242
X155.135Y-42.742
X155.835Y-42.742
X156.085Y-44.942
X156.085Y-45.592
X156.085Y-46.242
X156.335Y-43.142
X156.344Y-44.342
X156.485Y-43.742
X164.696Y-67.93
X164.696Y-69.23
X165.346Y-67.93
X165.346Y-69.23
X165.996Y-67.93
X165.996Y-69.23
X166.596Y-67.68
X166.596Y-69.489
X167.196Y-67.53
X167.196Y-69.63
X167.796Y-67.78
X167.796Y-69.48
X168.196Y-68.28
X168.196Y-68.98
X188.5Y-77.74
X188.5Y-78.74
X188.5Y-79.74
X189.5Y-77.74
X189.5Y-78.74
X189.5Y-79.74
X190.5Y-77.74
X190.5Y-78.74
X190.5Y-79.74
T3
X142.655Y-99.035
X142.655Y-99.835
X142.655Y-100.635
X143.455Y-99.035
X143.455Y-99.835
X143.455Y-100.635
X143.994Y-73.612
X143.994Y-74.612
X143.994Y-75.612
X144.255Y-99.035
X144.255Y-99.835
X144.255Y-100.635
X144.894Y-73.612
X144.894Y-74.612
X144.894Y-75.612
X145.894Y-73.612
X145.894Y-74.612
X145.894Y-75.612
X154.355Y-55.982
X154.355Y-56.782
X154.355Y-57.582
X155.155Y-55.982
X155.155Y-56.782
X155.155Y-57.582
X155.955Y-55.982
X155.955Y-56.782
X155.955Y-57.582
T4
X145.45Y-70.87
X146.144Y-78.124
X146.39Y-93.8
X146.97Y-78.13
X147.81Y-93.74
X148.33Y-76.37
X148.88Y-74.6
X149.398Y-90.18
X149.4Y-78.89
X149.46Y-93.67
X149.84Y-74.59
X150.31Y-91.03
X150.36Y-76.37
X150.97Y-74.62
X151.892Y-76.342
X152.05Y-71.8
X152.1Y-73.43
X170.43Y-97.23
X172.632Y-97.27
X174.83Y-97.21
X180.086Y-75.692
X180.086Y-78.232
X181.102Y-74.168
X181.102Y-80.01
X183.18Y-73.85
X184.06Y-73.85
X185.0Y-73.83
X186.944Y-69.596
X188.263Y-70.661
X190.451Y-70.661
X191.77Y-69.596
X192.786Y-78.74
X193.294Y-73.66
X193.294Y-77.216
X193.294Y-82.296
X194.31Y-73.66
X194.31Y-77.216
X194.564Y-83.312
X197.309Y-77.167
X198.374Y-75.692
T5
X171.864Y-107.982
X171.864Y-109.982
X173.864Y-107.982
X173.864Y-109.982
X175.864Y-107.982
X175.864Y-109.982
X177.864Y-107.982
X177.864Y-109.982
X179.864Y-107.982
X179.864Y-109.982
X181.864Y-107.982
X181.864Y-109.982
X183.864Y-107.982
X183.864Y-109.982
T6
X184.845Y-96.72
X190.345Y-96.72
T7
X129.54Y-43.18
X129.54Y-109.061
X195.58Y-43.18
X195.58Y-109.061
M30
