%TF.GenerationSoftware,KiCad,Pcbnew,9.0.9-9.0.9~ubuntu22.04.1*%
%TF.CreationDate,2026-09-22T08:18:59-04:00*%
%TF.ProjectId,fpm_afe,66706d5f-6166-4652-9e6b-696361645f70,rev?*%
%TF.SameCoordinates,Original*%
%TF.FileFunction,Paste,Top*%
%TF.FilePolarity,Positive*%
%FSLAX46Y46*%
G04 Gerber Fmt 4.6, Leading zero omitted, Abs format (unit mm)*
G04 Created by KiCad (PCBNEW 9.0.9-9.0.9~ubuntu22.04.1) date 2026-09-22 08:18:59*
%MOMM*%
%LPD*%
G01*
G04 APERTURE LIST*
G04 Aperture macros list*
%AMRoundRect*
0 Rectangle with rounded corners*
0 $1 Rounding radius*
0 $2 $3 $4 $5 $6 $7 $8 $9 X,Y pos of 4 corners*
0 Add a 4 corners polygon primitive as box body*
4,1,4,$2,$3,$4,$5,$6,$7,$8,$9,$2,$3,0*
0 Add four circle primitives for the rounded corners*
1,1,$1+$1,$2,$3*
1,1,$1+$1,$4,$5*
1,1,$1+$1,$6,$7*
1,1,$1+$1,$8,$9*
0 Add four rect primitives between the rounded corners*
20,1,$1+$1,$2,$3,$4,$5,0*
20,1,$1+$1,$4,$5,$6,$7,0*
20,1,$1+$1,$6,$7,$8,$9,0*
20,1,$1+$1,$8,$9,$2,$3,0*%
%AMFreePoly0*
4,1,9,1.028700,1.882799,0.280000,1.159500,0.280000,-0.779100,-0.280000,-0.779100,-0.280000,1.159500,-1.028700,1.882799,-1.028700,4.029700,1.028700,4.029700,1.028700,1.882799,1.028700,1.882799,$1*%
G04 Aperture macros list end*
%ADD10C,0.000000*%
%ADD11R,0.254000X0.762000*%
%ADD12R,0.762000X0.254000*%
%ADD13R,3.149600X3.149600*%
%ADD14R,0.550000X0.660000*%
%ADD15R,1.130000X0.432000*%
%ADD16R,1.558200X0.560000*%
%ADD17FreePoly0,270.000000*%
%ADD18RoundRect,0.250000X-0.325000X-0.650000X0.325000X-0.650000X0.325000X0.650000X-0.325000X0.650000X0*%
%ADD19RoundRect,0.200000X0.275000X-0.200000X0.275000X0.200000X-0.275000X0.200000X-0.275000X-0.200000X0*%
%ADD20R,0.177800X0.711200*%
%ADD21R,0.711200X0.177800*%
%ADD22R,2.590800X2.590800*%
%ADD23RoundRect,0.225000X-0.250000X0.225000X-0.250000X-0.225000X0.250000X-0.225000X0.250000X0.225000X0*%
%ADD24RoundRect,0.250000X0.325000X0.650000X-0.325000X0.650000X-0.325000X-0.650000X0.325000X-0.650000X0*%
%ADD25RoundRect,0.225000X0.225000X0.250000X-0.225000X0.250000X-0.225000X-0.250000X0.225000X-0.250000X0*%
%ADD26R,1.701800X1.092200*%
%ADD27R,0.330200X0.762000*%
%ADD28RoundRect,0.250000X0.650000X-0.325000X0.650000X0.325000X-0.650000X0.325000X-0.650000X-0.325000X0*%
%ADD29RoundRect,0.250000X-0.650000X0.325000X-0.650000X-0.325000X0.650000X-0.325000X0.650000X0.325000X0*%
%ADD30RoundRect,0.225000X-0.225000X-0.250000X0.225000X-0.250000X0.225000X0.250000X-0.225000X0.250000X0*%
%ADD31RoundRect,0.200000X-0.275000X0.200000X-0.275000X-0.200000X0.275000X-0.200000X0.275000X0.200000X0*%
%ADD32RoundRect,0.250000X-0.385000X-0.385000X0.385000X-0.385000X0.385000X0.385000X-0.385000X0.385000X0*%
%ADD33RoundRect,0.087500X-0.425000X-0.087500X0.425000X-0.087500X0.425000X0.087500X-0.425000X0.087500X0*%
%ADD34RoundRect,0.087500X-0.087500X-0.425000X0.087500X-0.425000X0.087500X0.425000X-0.087500X0.425000X0*%
G04 APERTURE END LIST*
D10*
%TO.C,U2*%
G36*
X146368399Y-74512500D02*
G01*
X144993599Y-74512500D01*
X144993599Y-73137700D01*
X146368399Y-73137700D01*
X146368399Y-74512500D01*
G37*
G36*
X144793599Y-74512500D02*
G01*
X143418799Y-74512500D01*
X143418799Y-73137700D01*
X144793599Y-73137700D01*
X144793599Y-74512500D01*
G37*
G36*
X146368399Y-76087300D02*
G01*
X144993599Y-76087300D01*
X144993599Y-74712500D01*
X146368399Y-74712500D01*
X146368399Y-76087300D01*
G37*
G36*
X144793599Y-76087300D02*
G01*
X143418799Y-76087300D01*
X143418799Y-74712500D01*
X144793599Y-74712500D01*
X144793599Y-76087300D01*
G37*
%TO.C,U3*%
G36*
X147641600Y-87045800D02*
G01*
X145494699Y-87045800D01*
X144771400Y-86297100D01*
X143936000Y-86297100D01*
X143936000Y-85737100D01*
X144771400Y-85737100D01*
X145494699Y-84988400D01*
X147641600Y-84988400D01*
X147641600Y-87045800D01*
G37*
%TD*%
D11*
%TO.C,U2*%
X146643598Y-72186800D03*
X146143599Y-72186800D03*
X145643600Y-72186800D03*
X145143599Y-72186800D03*
X144643599Y-72186800D03*
X144143598Y-72186800D03*
X143643599Y-72186800D03*
X143143600Y-72186800D03*
D12*
X142467899Y-72862501D03*
X142467899Y-73362500D03*
X142467899Y-73862499D03*
X142467899Y-74362500D03*
X142467899Y-74862500D03*
X142467899Y-75362501D03*
X142467899Y-75862500D03*
X142467899Y-76362499D03*
D11*
X143143600Y-77038200D03*
X143643599Y-77038200D03*
X144143598Y-77038200D03*
X144643599Y-77038200D03*
X145143599Y-77038200D03*
X145643600Y-77038200D03*
X146143599Y-77038200D03*
X146643598Y-77038200D03*
D12*
X147319299Y-76362499D03*
X147319299Y-75862500D03*
X147319299Y-75362501D03*
X147319299Y-74862500D03*
X147319299Y-74362500D03*
X147319299Y-73862499D03*
X147319299Y-73362500D03*
X147319299Y-72862501D03*
D13*
X144893599Y-74612500D03*
%TD*%
D14*
%TO.C,U8*%
X155391000Y-49720600D03*
D15*
X155956000Y-50520600D03*
D14*
X155391000Y-51320600D03*
D15*
X154826000Y-50520600D03*
%TD*%
D16*
%TO.C,U3*%
X143611900Y-84517100D03*
D17*
X143611900Y-86017100D03*
D16*
X143611900Y-87517100D03*
%TD*%
D18*
%TO.C,C17*%
X194359000Y-75692000D03*
X197309000Y-75692000D03*
%TD*%
D19*
%TO.C,R2*%
X150368000Y-78904600D03*
X150368000Y-77254600D03*
%TD*%
%TO.C,R5*%
X170434000Y-99885000D03*
X170434000Y-98235000D03*
%TD*%
D20*
%TO.C,U5*%
X144705200Y-97891600D03*
X144205201Y-97891600D03*
X143705200Y-97891600D03*
X143205200Y-97891600D03*
X142705199Y-97891600D03*
X142205200Y-97891600D03*
D21*
X141512100Y-98584700D03*
X141512100Y-99084699D03*
X141512100Y-99584700D03*
X141512100Y-100084700D03*
X141512100Y-100584701D03*
X141512100Y-101084700D03*
D20*
X142205200Y-101777800D03*
X142705199Y-101777800D03*
X143205200Y-101777800D03*
X143705200Y-101777800D03*
X144205201Y-101777800D03*
X144705200Y-101777800D03*
D21*
X145398300Y-101084700D03*
X145398300Y-100584701D03*
X145398300Y-100084700D03*
X145398300Y-99584700D03*
X145398300Y-99084699D03*
X145398300Y-98584700D03*
D22*
X143455200Y-99834700D03*
%TD*%
D23*
%TO.C,C6*%
X143611600Y-79946200D03*
X143611600Y-81496200D03*
%TD*%
D24*
%TO.C,C12*%
X184101000Y-75692000D03*
X181151000Y-75692000D03*
%TD*%
D23*
%TO.C,C1*%
X146350000Y-91045000D03*
X146350000Y-92595000D03*
%TD*%
%TO.C,C3*%
X149398000Y-91045000D03*
X149398000Y-92595000D03*
%TD*%
D25*
%TO.C,C10*%
X150875000Y-71770000D03*
X149325000Y-71770000D03*
%TD*%
D20*
%TO.C,U4*%
X156405199Y-54838600D03*
X155905200Y-54838600D03*
X155405199Y-54838600D03*
X154905199Y-54838600D03*
X154405198Y-54838600D03*
X153905199Y-54838600D03*
D21*
X153212099Y-55531700D03*
X153212099Y-56031699D03*
X153212099Y-56531700D03*
X153212099Y-57031700D03*
X153212099Y-57531701D03*
X153212099Y-58031700D03*
D20*
X153905199Y-58724800D03*
X154405198Y-58724800D03*
X154905199Y-58724800D03*
X155405199Y-58724800D03*
X155905200Y-58724800D03*
X156405199Y-58724800D03*
D21*
X157098299Y-58031700D03*
X157098299Y-57531701D03*
X157098299Y-57031700D03*
X157098299Y-56531700D03*
X157098299Y-56031699D03*
X157098299Y-55531700D03*
D22*
X155155199Y-56781700D03*
%TD*%
D26*
%TO.C,U7*%
X150012400Y-63500000D03*
X150012400Y-66040000D03*
X150012400Y-68580000D03*
X155397200Y-68580000D03*
X155397200Y-66040000D03*
X155397200Y-63500000D03*
%TD*%
D27*
%TO.C,L2*%
X144780000Y-91084400D03*
X143586200Y-91084400D03*
%TD*%
D25*
%TO.C,C4*%
X147282200Y-68529200D03*
X145732200Y-68529200D03*
%TD*%
D19*
%TO.C,R6*%
X172632000Y-99885000D03*
X172632000Y-98235000D03*
%TD*%
%TO.C,R7*%
X174830000Y-99885000D03*
X174830000Y-98235000D03*
%TD*%
D23*
%TO.C,C2*%
X147874000Y-91045000D03*
X147874000Y-92595000D03*
%TD*%
D28*
%TO.C,C14*%
X186944000Y-73611000D03*
X186944000Y-70661000D03*
%TD*%
D23*
%TO.C,C7*%
X143687800Y-93624400D03*
X143687800Y-95174400D03*
%TD*%
%TO.C,C8*%
X143713200Y-103880400D03*
X143713200Y-105430400D03*
%TD*%
D29*
%TO.C,C18*%
X194564000Y-79248000D03*
X194564000Y-82198000D03*
%TD*%
D24*
%TO.C,C13*%
X184101000Y-78232000D03*
X181151000Y-78232000D03*
%TD*%
D30*
%TO.C,C11*%
X158889400Y-68570000D03*
X160439400Y-68570000D03*
%TD*%
D31*
%TO.C,R1*%
X151892000Y-77254600D03*
X151892000Y-78904600D03*
%TD*%
D32*
%TO.C,U1*%
X188710000Y-77950000D03*
X188710000Y-79530000D03*
X190290000Y-77950000D03*
X190290000Y-79530000D03*
D33*
X187137500Y-77440000D03*
X187137500Y-78090000D03*
X187137500Y-78740000D03*
X187137500Y-79390000D03*
X187137500Y-80040000D03*
D34*
X188200000Y-81102500D03*
X188850000Y-81102500D03*
X189500000Y-81102500D03*
X190150000Y-81102500D03*
X190800000Y-81102500D03*
D33*
X191862500Y-80040000D03*
X191862500Y-79390000D03*
X191862500Y-78740000D03*
X191862500Y-78090000D03*
X191862500Y-77440000D03*
D34*
X190800000Y-76377500D03*
X190150000Y-76377500D03*
X189500000Y-76377500D03*
X188850000Y-76377500D03*
X188200000Y-76377500D03*
%TD*%
D28*
%TO.C,C16*%
X191770000Y-73611000D03*
X191770000Y-70661000D03*
%TD*%
D25*
%TO.C,C9*%
X150875000Y-73370000D03*
X149325000Y-73370000D03*
%TD*%
M02*
