%TF.GenerationSoftware,KiCad,Pcbnew,9.0.9-9.0.9~ubuntu22.04.1*%
%TF.CreationDate,2026-09-22T08:18:59-04:00*%
%TF.ProjectId,fpm_afe,66706d5f-6166-4652-9e6b-696361645f70,rev?*%
%TF.SameCoordinates,Original*%
%TF.FileFunction,Legend,Top*%
%TF.FilePolarity,Positive*%
%FSLAX46Y46*%
G04 Gerber Fmt 4.6, Leading zero omitted, Abs format (unit mm)*
G04 Created by KiCad (PCBNEW 9.0.9-9.0.9~ubuntu22.04.1) date 2026-09-22 08:18:59*
%MOMM*%
%LPD*%
G01*
G04 APERTURE LIST*
%ADD10C,0.300000*%
%ADD11C,0.150000*%
%ADD12C,0.120000*%
%ADD13C,0.152400*%
%ADD14C,0.000000*%
%ADD15C,0.508000*%
%ADD16C,0.127000*%
G04 APERTURE END LIST*
D10*
X167554510Y-50041164D02*
X167554510Y-48541164D01*
X167554510Y-48541164D02*
X168411653Y-50041164D01*
X168411653Y-50041164D02*
X168411653Y-48541164D01*
X169054511Y-49969736D02*
X169268797Y-50041164D01*
X169268797Y-50041164D02*
X169625939Y-50041164D01*
X169625939Y-50041164D02*
X169768797Y-49969736D01*
X169768797Y-49969736D02*
X169840225Y-49898307D01*
X169840225Y-49898307D02*
X169911654Y-49755450D01*
X169911654Y-49755450D02*
X169911654Y-49612593D01*
X169911654Y-49612593D02*
X169840225Y-49469736D01*
X169840225Y-49469736D02*
X169768797Y-49398307D01*
X169768797Y-49398307D02*
X169625939Y-49326878D01*
X169625939Y-49326878D02*
X169340225Y-49255450D01*
X169340225Y-49255450D02*
X169197368Y-49184021D01*
X169197368Y-49184021D02*
X169125939Y-49112593D01*
X169125939Y-49112593D02*
X169054511Y-48969736D01*
X169054511Y-48969736D02*
X169054511Y-48826878D01*
X169054511Y-48826878D02*
X169125939Y-48684021D01*
X169125939Y-48684021D02*
X169197368Y-48612593D01*
X169197368Y-48612593D02*
X169340225Y-48541164D01*
X169340225Y-48541164D02*
X169697368Y-48541164D01*
X169697368Y-48541164D02*
X169911654Y-48612593D01*
X171268796Y-50041164D02*
X170554510Y-50041164D01*
X170554510Y-50041164D02*
X170554510Y-48541164D01*
X171697368Y-49969736D02*
X171911654Y-50041164D01*
X171911654Y-50041164D02*
X172268796Y-50041164D01*
X172268796Y-50041164D02*
X172411654Y-49969736D01*
X172411654Y-49969736D02*
X172483082Y-49898307D01*
X172483082Y-49898307D02*
X172554511Y-49755450D01*
X172554511Y-49755450D02*
X172554511Y-49612593D01*
X172554511Y-49612593D02*
X172483082Y-49469736D01*
X172483082Y-49469736D02*
X172411654Y-49398307D01*
X172411654Y-49398307D02*
X172268796Y-49326878D01*
X172268796Y-49326878D02*
X171983082Y-49255450D01*
X171983082Y-49255450D02*
X171840225Y-49184021D01*
X171840225Y-49184021D02*
X171768796Y-49112593D01*
X171768796Y-49112593D02*
X171697368Y-48969736D01*
X171697368Y-48969736D02*
X171697368Y-48826878D01*
X171697368Y-48826878D02*
X171768796Y-48684021D01*
X171768796Y-48684021D02*
X171840225Y-48612593D01*
X171840225Y-48612593D02*
X171983082Y-48541164D01*
X171983082Y-48541164D02*
X172340225Y-48541164D01*
X172340225Y-48541164D02*
X172554511Y-48612593D01*
X173197367Y-49469736D02*
X174340225Y-49469736D01*
X175054510Y-50041164D02*
X175054510Y-48541164D01*
X175768796Y-50041164D02*
X175768796Y-48541164D01*
X168054510Y-51670366D02*
X167554510Y-51670366D01*
X167554510Y-52456080D02*
X167554510Y-50956080D01*
X167554510Y-50956080D02*
X168268796Y-50956080D01*
X168840224Y-52456080D02*
X168840224Y-51456080D01*
X168840224Y-50956080D02*
X168768796Y-51027509D01*
X168768796Y-51027509D02*
X168840224Y-51098937D01*
X168840224Y-51098937D02*
X168911653Y-51027509D01*
X168911653Y-51027509D02*
X168840224Y-50956080D01*
X168840224Y-50956080D02*
X168840224Y-51098937D01*
X169768796Y-52456080D02*
X169625939Y-52384652D01*
X169625939Y-52384652D02*
X169554510Y-52241794D01*
X169554510Y-52241794D02*
X169554510Y-50956080D01*
X170554510Y-52456080D02*
X170411653Y-52384652D01*
X170411653Y-52384652D02*
X170340224Y-52241794D01*
X170340224Y-52241794D02*
X170340224Y-50956080D01*
X172268795Y-52456080D02*
X172268795Y-50956080D01*
X172268795Y-50956080D02*
X172840224Y-50956080D01*
X172840224Y-50956080D02*
X172983081Y-51027509D01*
X172983081Y-51027509D02*
X173054510Y-51098937D01*
X173054510Y-51098937D02*
X173125938Y-51241794D01*
X173125938Y-51241794D02*
X173125938Y-51456080D01*
X173125938Y-51456080D02*
X173054510Y-51598937D01*
X173054510Y-51598937D02*
X172983081Y-51670366D01*
X172983081Y-51670366D02*
X172840224Y-51741794D01*
X172840224Y-51741794D02*
X172268795Y-51741794D01*
X174411653Y-52456080D02*
X174411653Y-51670366D01*
X174411653Y-51670366D02*
X174340224Y-51527509D01*
X174340224Y-51527509D02*
X174197367Y-51456080D01*
X174197367Y-51456080D02*
X173911653Y-51456080D01*
X173911653Y-51456080D02*
X173768795Y-51527509D01*
X174411653Y-52384652D02*
X174268795Y-52456080D01*
X174268795Y-52456080D02*
X173911653Y-52456080D01*
X173911653Y-52456080D02*
X173768795Y-52384652D01*
X173768795Y-52384652D02*
X173697367Y-52241794D01*
X173697367Y-52241794D02*
X173697367Y-52098937D01*
X173697367Y-52098937D02*
X173768795Y-51956080D01*
X173768795Y-51956080D02*
X173911653Y-51884652D01*
X173911653Y-51884652D02*
X174268795Y-51884652D01*
X174268795Y-51884652D02*
X174411653Y-51813223D01*
X174911653Y-51456080D02*
X175483081Y-51456080D01*
X175125938Y-50956080D02*
X175125938Y-52241794D01*
X175125938Y-52241794D02*
X175197367Y-52384652D01*
X175197367Y-52384652D02*
X175340224Y-52456080D01*
X175340224Y-52456080D02*
X175483081Y-52456080D01*
X175768796Y-51456080D02*
X176340224Y-51456080D01*
X175983081Y-50956080D02*
X175983081Y-52241794D01*
X175983081Y-52241794D02*
X176054510Y-52384652D01*
X176054510Y-52384652D02*
X176197367Y-52456080D01*
X176197367Y-52456080D02*
X176340224Y-52456080D01*
X177411653Y-52384652D02*
X177268796Y-52456080D01*
X177268796Y-52456080D02*
X176983082Y-52456080D01*
X176983082Y-52456080D02*
X176840224Y-52384652D01*
X176840224Y-52384652D02*
X176768796Y-52241794D01*
X176768796Y-52241794D02*
X176768796Y-51670366D01*
X176768796Y-51670366D02*
X176840224Y-51527509D01*
X176840224Y-51527509D02*
X176983082Y-51456080D01*
X176983082Y-51456080D02*
X177268796Y-51456080D01*
X177268796Y-51456080D02*
X177411653Y-51527509D01*
X177411653Y-51527509D02*
X177483082Y-51670366D01*
X177483082Y-51670366D02*
X177483082Y-51813223D01*
X177483082Y-51813223D02*
X176768796Y-51956080D01*
X178125938Y-52456080D02*
X178125938Y-51456080D01*
X178125938Y-51741794D02*
X178197367Y-51598937D01*
X178197367Y-51598937D02*
X178268796Y-51527509D01*
X178268796Y-51527509D02*
X178411653Y-51456080D01*
X178411653Y-51456080D02*
X178554510Y-51456080D01*
X179054509Y-51456080D02*
X179054509Y-52456080D01*
X179054509Y-51598937D02*
X179125938Y-51527509D01*
X179125938Y-51527509D02*
X179268795Y-51456080D01*
X179268795Y-51456080D02*
X179483081Y-51456080D01*
X179483081Y-51456080D02*
X179625938Y-51527509D01*
X179625938Y-51527509D02*
X179697367Y-51670366D01*
X179697367Y-51670366D02*
X179697367Y-52456080D01*
X181554509Y-52456080D02*
X181554509Y-50956080D01*
X181554509Y-50956080D02*
X182054509Y-52027509D01*
X182054509Y-52027509D02*
X182554509Y-50956080D01*
X182554509Y-50956080D02*
X182554509Y-52456080D01*
X183483081Y-52456080D02*
X183340224Y-52384652D01*
X183340224Y-52384652D02*
X183268795Y-52313223D01*
X183268795Y-52313223D02*
X183197367Y-52170366D01*
X183197367Y-52170366D02*
X183197367Y-51741794D01*
X183197367Y-51741794D02*
X183268795Y-51598937D01*
X183268795Y-51598937D02*
X183340224Y-51527509D01*
X183340224Y-51527509D02*
X183483081Y-51456080D01*
X183483081Y-51456080D02*
X183697367Y-51456080D01*
X183697367Y-51456080D02*
X183840224Y-51527509D01*
X183840224Y-51527509D02*
X183911653Y-51598937D01*
X183911653Y-51598937D02*
X183983081Y-51741794D01*
X183983081Y-51741794D02*
X183983081Y-52170366D01*
X183983081Y-52170366D02*
X183911653Y-52313223D01*
X183911653Y-52313223D02*
X183840224Y-52384652D01*
X183840224Y-52384652D02*
X183697367Y-52456080D01*
X183697367Y-52456080D02*
X183483081Y-52456080D01*
X184625938Y-51456080D02*
X184625938Y-52456080D01*
X184625938Y-51598937D02*
X184697367Y-51527509D01*
X184697367Y-51527509D02*
X184840224Y-51456080D01*
X184840224Y-51456080D02*
X185054510Y-51456080D01*
X185054510Y-51456080D02*
X185197367Y-51527509D01*
X185197367Y-51527509D02*
X185268796Y-51670366D01*
X185268796Y-51670366D02*
X185268796Y-52456080D01*
X185983081Y-52456080D02*
X185983081Y-51456080D01*
X185983081Y-50956080D02*
X185911653Y-51027509D01*
X185911653Y-51027509D02*
X185983081Y-51098937D01*
X185983081Y-51098937D02*
X186054510Y-51027509D01*
X186054510Y-51027509D02*
X185983081Y-50956080D01*
X185983081Y-50956080D02*
X185983081Y-51098937D01*
X186483082Y-51456080D02*
X187054510Y-51456080D01*
X186697367Y-50956080D02*
X186697367Y-52241794D01*
X186697367Y-52241794D02*
X186768796Y-52384652D01*
X186768796Y-52384652D02*
X186911653Y-52456080D01*
X186911653Y-52456080D02*
X187054510Y-52456080D01*
X187768796Y-52456080D02*
X187625939Y-52384652D01*
X187625939Y-52384652D02*
X187554510Y-52313223D01*
X187554510Y-52313223D02*
X187483082Y-52170366D01*
X187483082Y-52170366D02*
X187483082Y-51741794D01*
X187483082Y-51741794D02*
X187554510Y-51598937D01*
X187554510Y-51598937D02*
X187625939Y-51527509D01*
X187625939Y-51527509D02*
X187768796Y-51456080D01*
X187768796Y-51456080D02*
X187983082Y-51456080D01*
X187983082Y-51456080D02*
X188125939Y-51527509D01*
X188125939Y-51527509D02*
X188197368Y-51598937D01*
X188197368Y-51598937D02*
X188268796Y-51741794D01*
X188268796Y-51741794D02*
X188268796Y-52170366D01*
X188268796Y-52170366D02*
X188197368Y-52313223D01*
X188197368Y-52313223D02*
X188125939Y-52384652D01*
X188125939Y-52384652D02*
X187983082Y-52456080D01*
X187983082Y-52456080D02*
X187768796Y-52456080D01*
X188911653Y-52456080D02*
X188911653Y-51456080D01*
X188911653Y-51741794D02*
X188983082Y-51598937D01*
X188983082Y-51598937D02*
X189054511Y-51527509D01*
X189054511Y-51527509D02*
X189197368Y-51456080D01*
X189197368Y-51456080D02*
X189340225Y-51456080D01*
X190911653Y-52027509D02*
X191625939Y-52027509D01*
X190768796Y-52456080D02*
X191268796Y-50956080D01*
X191268796Y-50956080D02*
X191768796Y-52456080D01*
X192768795Y-51670366D02*
X192268795Y-51670366D01*
X192268795Y-52456080D02*
X192268795Y-50956080D01*
X192268795Y-50956080D02*
X192983081Y-50956080D01*
X193554509Y-51670366D02*
X194054509Y-51670366D01*
X194268795Y-52456080D02*
X193554509Y-52456080D01*
X193554509Y-52456080D02*
X193554509Y-50956080D01*
X193554509Y-50956080D02*
X194268795Y-50956080D01*
X167554510Y-54085282D02*
X168054510Y-54085282D01*
X168268796Y-54870996D02*
X167554510Y-54870996D01*
X167554510Y-54870996D02*
X167554510Y-53370996D01*
X167554510Y-53370996D02*
X168268796Y-53370996D01*
X168911653Y-54299568D02*
X170054511Y-54299568D01*
X170697368Y-54799568D02*
X170911654Y-54870996D01*
X170911654Y-54870996D02*
X171268796Y-54870996D01*
X171268796Y-54870996D02*
X171411654Y-54799568D01*
X171411654Y-54799568D02*
X171483082Y-54728139D01*
X171483082Y-54728139D02*
X171554511Y-54585282D01*
X171554511Y-54585282D02*
X171554511Y-54442425D01*
X171554511Y-54442425D02*
X171483082Y-54299568D01*
X171483082Y-54299568D02*
X171411654Y-54228139D01*
X171411654Y-54228139D02*
X171268796Y-54156710D01*
X171268796Y-54156710D02*
X170983082Y-54085282D01*
X170983082Y-54085282D02*
X170840225Y-54013853D01*
X170840225Y-54013853D02*
X170768796Y-53942425D01*
X170768796Y-53942425D02*
X170697368Y-53799568D01*
X170697368Y-53799568D02*
X170697368Y-53656710D01*
X170697368Y-53656710D02*
X170768796Y-53513853D01*
X170768796Y-53513853D02*
X170840225Y-53442425D01*
X170840225Y-53442425D02*
X170983082Y-53370996D01*
X170983082Y-53370996D02*
X171340225Y-53370996D01*
X171340225Y-53370996D02*
X171554511Y-53442425D01*
X172197367Y-54870996D02*
X172197367Y-53370996D01*
X173054510Y-54870996D02*
X172411653Y-54013853D01*
X173054510Y-53370996D02*
X172197367Y-54228139D01*
X173697367Y-54299568D02*
X174840225Y-54299568D01*
X175483082Y-53513853D02*
X175554510Y-53442425D01*
X175554510Y-53442425D02*
X175697368Y-53370996D01*
X175697368Y-53370996D02*
X176054510Y-53370996D01*
X176054510Y-53370996D02*
X176197368Y-53442425D01*
X176197368Y-53442425D02*
X176268796Y-53513853D01*
X176268796Y-53513853D02*
X176340225Y-53656710D01*
X176340225Y-53656710D02*
X176340225Y-53799568D01*
X176340225Y-53799568D02*
X176268796Y-54013853D01*
X176268796Y-54013853D02*
X175411653Y-54870996D01*
X175411653Y-54870996D02*
X176340225Y-54870996D01*
X177625939Y-53370996D02*
X177340224Y-53370996D01*
X177340224Y-53370996D02*
X177197367Y-53442425D01*
X177197367Y-53442425D02*
X177125939Y-53513853D01*
X177125939Y-53513853D02*
X176983081Y-53728139D01*
X176983081Y-53728139D02*
X176911653Y-54013853D01*
X176911653Y-54013853D02*
X176911653Y-54585282D01*
X176911653Y-54585282D02*
X176983081Y-54728139D01*
X176983081Y-54728139D02*
X177054510Y-54799568D01*
X177054510Y-54799568D02*
X177197367Y-54870996D01*
X177197367Y-54870996D02*
X177483081Y-54870996D01*
X177483081Y-54870996D02*
X177625939Y-54799568D01*
X177625939Y-54799568D02*
X177697367Y-54728139D01*
X177697367Y-54728139D02*
X177768796Y-54585282D01*
X177768796Y-54585282D02*
X177768796Y-54228139D01*
X177768796Y-54228139D02*
X177697367Y-54085282D01*
X177697367Y-54085282D02*
X177625939Y-54013853D01*
X177625939Y-54013853D02*
X177483081Y-53942425D01*
X177483081Y-53942425D02*
X177197367Y-53942425D01*
X177197367Y-53942425D02*
X177054510Y-54013853D01*
X177054510Y-54013853D02*
X176983081Y-54085282D01*
X176983081Y-54085282D02*
X176911653Y-54228139D01*
X178697367Y-53370996D02*
X178840224Y-53370996D01*
X178840224Y-53370996D02*
X178983081Y-53442425D01*
X178983081Y-53442425D02*
X179054510Y-53513853D01*
X179054510Y-53513853D02*
X179125938Y-53656710D01*
X179125938Y-53656710D02*
X179197367Y-53942425D01*
X179197367Y-53942425D02*
X179197367Y-54299568D01*
X179197367Y-54299568D02*
X179125938Y-54585282D01*
X179125938Y-54585282D02*
X179054510Y-54728139D01*
X179054510Y-54728139D02*
X178983081Y-54799568D01*
X178983081Y-54799568D02*
X178840224Y-54870996D01*
X178840224Y-54870996D02*
X178697367Y-54870996D01*
X178697367Y-54870996D02*
X178554510Y-54799568D01*
X178554510Y-54799568D02*
X178483081Y-54728139D01*
X178483081Y-54728139D02*
X178411652Y-54585282D01*
X178411652Y-54585282D02*
X178340224Y-54299568D01*
X178340224Y-54299568D02*
X178340224Y-53942425D01*
X178340224Y-53942425D02*
X178411652Y-53656710D01*
X178411652Y-53656710D02*
X178483081Y-53513853D01*
X178483081Y-53513853D02*
X178554510Y-53442425D01*
X178554510Y-53442425D02*
X178697367Y-53370996D01*
X180483081Y-53870996D02*
X180483081Y-54870996D01*
X180125938Y-53299568D02*
X179768795Y-54370996D01*
X179768795Y-54370996D02*
X180697366Y-54370996D01*
X168411653Y-57285912D02*
X167911653Y-56571626D01*
X167554510Y-57285912D02*
X167554510Y-55785912D01*
X167554510Y-55785912D02*
X168125939Y-55785912D01*
X168125939Y-55785912D02*
X168268796Y-55857341D01*
X168268796Y-55857341D02*
X168340225Y-55928769D01*
X168340225Y-55928769D02*
X168411653Y-56071626D01*
X168411653Y-56071626D02*
X168411653Y-56285912D01*
X168411653Y-56285912D02*
X168340225Y-56428769D01*
X168340225Y-56428769D02*
X168268796Y-56500198D01*
X168268796Y-56500198D02*
X168125939Y-56571626D01*
X168125939Y-56571626D02*
X167554510Y-56571626D01*
X169625939Y-57214484D02*
X169483082Y-57285912D01*
X169483082Y-57285912D02*
X169197368Y-57285912D01*
X169197368Y-57285912D02*
X169054510Y-57214484D01*
X169054510Y-57214484D02*
X168983082Y-57071626D01*
X168983082Y-57071626D02*
X168983082Y-56500198D01*
X168983082Y-56500198D02*
X169054510Y-56357341D01*
X169054510Y-56357341D02*
X169197368Y-56285912D01*
X169197368Y-56285912D02*
X169483082Y-56285912D01*
X169483082Y-56285912D02*
X169625939Y-56357341D01*
X169625939Y-56357341D02*
X169697368Y-56500198D01*
X169697368Y-56500198D02*
X169697368Y-56643055D01*
X169697368Y-56643055D02*
X168983082Y-56785912D01*
X170197367Y-56285912D02*
X170554510Y-57285912D01*
X170554510Y-57285912D02*
X170911653Y-56285912D01*
X173411653Y-57285912D02*
X172554510Y-57285912D01*
X172983081Y-57285912D02*
X172983081Y-55785912D01*
X172983081Y-55785912D02*
X172840224Y-56000198D01*
X172840224Y-56000198D02*
X172697367Y-56143055D01*
X172697367Y-56143055D02*
X172554510Y-56214484D01*
X167625939Y-59700828D02*
X167911653Y-59700828D01*
X167911653Y-59700828D02*
X168054510Y-59629400D01*
X168054510Y-59629400D02*
X168125939Y-59557971D01*
X168125939Y-59557971D02*
X168268796Y-59343685D01*
X168268796Y-59343685D02*
X168340225Y-59057971D01*
X168340225Y-59057971D02*
X168340225Y-58486542D01*
X168340225Y-58486542D02*
X168268796Y-58343685D01*
X168268796Y-58343685D02*
X168197368Y-58272257D01*
X168197368Y-58272257D02*
X168054510Y-58200828D01*
X168054510Y-58200828D02*
X167768796Y-58200828D01*
X167768796Y-58200828D02*
X167625939Y-58272257D01*
X167625939Y-58272257D02*
X167554510Y-58343685D01*
X167554510Y-58343685D02*
X167483082Y-58486542D01*
X167483082Y-58486542D02*
X167483082Y-58843685D01*
X167483082Y-58843685D02*
X167554510Y-58986542D01*
X167554510Y-58986542D02*
X167625939Y-59057971D01*
X167625939Y-59057971D02*
X167768796Y-59129400D01*
X167768796Y-59129400D02*
X168054510Y-59129400D01*
X168054510Y-59129400D02*
X168197368Y-59057971D01*
X168197368Y-59057971D02*
X168268796Y-58986542D01*
X168268796Y-58986542D02*
X168340225Y-58843685D01*
X168983081Y-59129400D02*
X170125939Y-59129400D01*
X170768796Y-58343685D02*
X170840224Y-58272257D01*
X170840224Y-58272257D02*
X170983082Y-58200828D01*
X170983082Y-58200828D02*
X171340224Y-58200828D01*
X171340224Y-58200828D02*
X171483082Y-58272257D01*
X171483082Y-58272257D02*
X171554510Y-58343685D01*
X171554510Y-58343685D02*
X171625939Y-58486542D01*
X171625939Y-58486542D02*
X171625939Y-58629400D01*
X171625939Y-58629400D02*
X171554510Y-58843685D01*
X171554510Y-58843685D02*
X170697367Y-59700828D01*
X170697367Y-59700828D02*
X171625939Y-59700828D01*
X172554510Y-58200828D02*
X172697367Y-58200828D01*
X172697367Y-58200828D02*
X172840224Y-58272257D01*
X172840224Y-58272257D02*
X172911653Y-58343685D01*
X172911653Y-58343685D02*
X172983081Y-58486542D01*
X172983081Y-58486542D02*
X173054510Y-58772257D01*
X173054510Y-58772257D02*
X173054510Y-59129400D01*
X173054510Y-59129400D02*
X172983081Y-59415114D01*
X172983081Y-59415114D02*
X172911653Y-59557971D01*
X172911653Y-59557971D02*
X172840224Y-59629400D01*
X172840224Y-59629400D02*
X172697367Y-59700828D01*
X172697367Y-59700828D02*
X172554510Y-59700828D01*
X172554510Y-59700828D02*
X172411653Y-59629400D01*
X172411653Y-59629400D02*
X172340224Y-59557971D01*
X172340224Y-59557971D02*
X172268795Y-59415114D01*
X172268795Y-59415114D02*
X172197367Y-59129400D01*
X172197367Y-59129400D02*
X172197367Y-58772257D01*
X172197367Y-58772257D02*
X172268795Y-58486542D01*
X172268795Y-58486542D02*
X172340224Y-58343685D01*
X172340224Y-58343685D02*
X172411653Y-58272257D01*
X172411653Y-58272257D02*
X172554510Y-58200828D01*
X173697366Y-59129400D02*
X174840224Y-59129400D01*
X175483081Y-58343685D02*
X175554509Y-58272257D01*
X175554509Y-58272257D02*
X175697367Y-58200828D01*
X175697367Y-58200828D02*
X176054509Y-58200828D01*
X176054509Y-58200828D02*
X176197367Y-58272257D01*
X176197367Y-58272257D02*
X176268795Y-58343685D01*
X176268795Y-58343685D02*
X176340224Y-58486542D01*
X176340224Y-58486542D02*
X176340224Y-58629400D01*
X176340224Y-58629400D02*
X176268795Y-58843685D01*
X176268795Y-58843685D02*
X175411652Y-59700828D01*
X175411652Y-59700828D02*
X176340224Y-59700828D01*
X177625938Y-58200828D02*
X177340223Y-58200828D01*
X177340223Y-58200828D02*
X177197366Y-58272257D01*
X177197366Y-58272257D02*
X177125938Y-58343685D01*
X177125938Y-58343685D02*
X176983080Y-58557971D01*
X176983080Y-58557971D02*
X176911652Y-58843685D01*
X176911652Y-58843685D02*
X176911652Y-59415114D01*
X176911652Y-59415114D02*
X176983080Y-59557971D01*
X176983080Y-59557971D02*
X177054509Y-59629400D01*
X177054509Y-59629400D02*
X177197366Y-59700828D01*
X177197366Y-59700828D02*
X177483080Y-59700828D01*
X177483080Y-59700828D02*
X177625938Y-59629400D01*
X177625938Y-59629400D02*
X177697366Y-59557971D01*
X177697366Y-59557971D02*
X177768795Y-59415114D01*
X177768795Y-59415114D02*
X177768795Y-59057971D01*
X177768795Y-59057971D02*
X177697366Y-58915114D01*
X177697366Y-58915114D02*
X177625938Y-58843685D01*
X177625938Y-58843685D02*
X177483080Y-58772257D01*
X177483080Y-58772257D02*
X177197366Y-58772257D01*
X177197366Y-58772257D02*
X177054509Y-58843685D01*
X177054509Y-58843685D02*
X176983080Y-58915114D01*
X176983080Y-58915114D02*
X176911652Y-59057971D01*
D11*
X149726779Y-111959819D02*
X149726779Y-110959819D01*
X149726779Y-111436009D02*
X150298207Y-111436009D01*
X150298207Y-111959819D02*
X150298207Y-110959819D01*
X150774398Y-111959819D02*
X150774398Y-111293152D01*
X150774398Y-110959819D02*
X150726779Y-111007438D01*
X150726779Y-111007438D02*
X150774398Y-111055057D01*
X150774398Y-111055057D02*
X150822017Y-111007438D01*
X150822017Y-111007438D02*
X150774398Y-110959819D01*
X150774398Y-110959819D02*
X150774398Y-111055057D01*
X151679159Y-111293152D02*
X151679159Y-112102676D01*
X151679159Y-112102676D02*
X151631540Y-112197914D01*
X151631540Y-112197914D02*
X151583921Y-112245533D01*
X151583921Y-112245533D02*
X151488683Y-112293152D01*
X151488683Y-112293152D02*
X151345826Y-112293152D01*
X151345826Y-112293152D02*
X151250588Y-112245533D01*
X151679159Y-111912200D02*
X151583921Y-111959819D01*
X151583921Y-111959819D02*
X151393445Y-111959819D01*
X151393445Y-111959819D02*
X151298207Y-111912200D01*
X151298207Y-111912200D02*
X151250588Y-111864580D01*
X151250588Y-111864580D02*
X151202969Y-111769342D01*
X151202969Y-111769342D02*
X151202969Y-111483628D01*
X151202969Y-111483628D02*
X151250588Y-111388390D01*
X151250588Y-111388390D02*
X151298207Y-111340771D01*
X151298207Y-111340771D02*
X151393445Y-111293152D01*
X151393445Y-111293152D02*
X151583921Y-111293152D01*
X151583921Y-111293152D02*
X151679159Y-111340771D01*
X152155350Y-111959819D02*
X152155350Y-110959819D01*
X152583921Y-111959819D02*
X152583921Y-111436009D01*
X152583921Y-111436009D02*
X152536302Y-111340771D01*
X152536302Y-111340771D02*
X152441064Y-111293152D01*
X152441064Y-111293152D02*
X152298207Y-111293152D01*
X152298207Y-111293152D02*
X152202969Y-111340771D01*
X152202969Y-111340771D02*
X152155350Y-111388390D01*
X154345826Y-111007438D02*
X154250588Y-110959819D01*
X154250588Y-110959819D02*
X154107731Y-110959819D01*
X154107731Y-110959819D02*
X153964874Y-111007438D01*
X153964874Y-111007438D02*
X153869636Y-111102676D01*
X153869636Y-111102676D02*
X153822017Y-111197914D01*
X153822017Y-111197914D02*
X153774398Y-111388390D01*
X153774398Y-111388390D02*
X153774398Y-111531247D01*
X153774398Y-111531247D02*
X153822017Y-111721723D01*
X153822017Y-111721723D02*
X153869636Y-111816961D01*
X153869636Y-111816961D02*
X153964874Y-111912200D01*
X153964874Y-111912200D02*
X154107731Y-111959819D01*
X154107731Y-111959819D02*
X154202969Y-111959819D01*
X154202969Y-111959819D02*
X154345826Y-111912200D01*
X154345826Y-111912200D02*
X154393445Y-111864580D01*
X154393445Y-111864580D02*
X154393445Y-111531247D01*
X154393445Y-111531247D02*
X154202969Y-111531247D01*
X155250588Y-111959819D02*
X155250588Y-111436009D01*
X155250588Y-111436009D02*
X155202969Y-111340771D01*
X155202969Y-111340771D02*
X155107731Y-111293152D01*
X155107731Y-111293152D02*
X154917255Y-111293152D01*
X154917255Y-111293152D02*
X154822017Y-111340771D01*
X155250588Y-111912200D02*
X155155350Y-111959819D01*
X155155350Y-111959819D02*
X154917255Y-111959819D01*
X154917255Y-111959819D02*
X154822017Y-111912200D01*
X154822017Y-111912200D02*
X154774398Y-111816961D01*
X154774398Y-111816961D02*
X154774398Y-111721723D01*
X154774398Y-111721723D02*
X154822017Y-111626485D01*
X154822017Y-111626485D02*
X154917255Y-111578866D01*
X154917255Y-111578866D02*
X155155350Y-111578866D01*
X155155350Y-111578866D02*
X155250588Y-111531247D01*
X155726779Y-111959819D02*
X155726779Y-111293152D01*
X155726779Y-110959819D02*
X155679160Y-111007438D01*
X155679160Y-111007438D02*
X155726779Y-111055057D01*
X155726779Y-111055057D02*
X155774398Y-111007438D01*
X155774398Y-111007438D02*
X155726779Y-110959819D01*
X155726779Y-110959819D02*
X155726779Y-111055057D01*
X156202969Y-111293152D02*
X156202969Y-111959819D01*
X156202969Y-111388390D02*
X156250588Y-111340771D01*
X156250588Y-111340771D02*
X156345826Y-111293152D01*
X156345826Y-111293152D02*
X156488683Y-111293152D01*
X156488683Y-111293152D02*
X156583921Y-111340771D01*
X156583921Y-111340771D02*
X156631540Y-111436009D01*
X156631540Y-111436009D02*
X156631540Y-111959819D01*
X158060112Y-110959819D02*
X158250588Y-110959819D01*
X158250588Y-110959819D02*
X158345826Y-111007438D01*
X158345826Y-111007438D02*
X158441064Y-111102676D01*
X158441064Y-111102676D02*
X158488683Y-111293152D01*
X158488683Y-111293152D02*
X158488683Y-111626485D01*
X158488683Y-111626485D02*
X158441064Y-111816961D01*
X158441064Y-111816961D02*
X158345826Y-111912200D01*
X158345826Y-111912200D02*
X158250588Y-111959819D01*
X158250588Y-111959819D02*
X158060112Y-111959819D01*
X158060112Y-111959819D02*
X157964874Y-111912200D01*
X157964874Y-111912200D02*
X157869636Y-111816961D01*
X157869636Y-111816961D02*
X157822017Y-111626485D01*
X157822017Y-111626485D02*
X157822017Y-111293152D01*
X157822017Y-111293152D02*
X157869636Y-111102676D01*
X157869636Y-111102676D02*
X157964874Y-111007438D01*
X157964874Y-111007438D02*
X158060112Y-110959819D01*
X159345826Y-111293152D02*
X159345826Y-111959819D01*
X158917255Y-111293152D02*
X158917255Y-111816961D01*
X158917255Y-111816961D02*
X158964874Y-111912200D01*
X158964874Y-111912200D02*
X159060112Y-111959819D01*
X159060112Y-111959819D02*
X159202969Y-111959819D01*
X159202969Y-111959819D02*
X159298207Y-111912200D01*
X159298207Y-111912200D02*
X159345826Y-111864580D01*
X159679160Y-111293152D02*
X160060112Y-111293152D01*
X159822017Y-110959819D02*
X159822017Y-111816961D01*
X159822017Y-111816961D02*
X159869636Y-111912200D01*
X159869636Y-111912200D02*
X159964874Y-111959819D01*
X159964874Y-111959819D02*
X160060112Y-111959819D01*
X160393446Y-111293152D02*
X160393446Y-112293152D01*
X160393446Y-111340771D02*
X160488684Y-111293152D01*
X160488684Y-111293152D02*
X160679160Y-111293152D01*
X160679160Y-111293152D02*
X160774398Y-111340771D01*
X160774398Y-111340771D02*
X160822017Y-111388390D01*
X160822017Y-111388390D02*
X160869636Y-111483628D01*
X160869636Y-111483628D02*
X160869636Y-111769342D01*
X160869636Y-111769342D02*
X160822017Y-111864580D01*
X160822017Y-111864580D02*
X160774398Y-111912200D01*
X160774398Y-111912200D02*
X160679160Y-111959819D01*
X160679160Y-111959819D02*
X160488684Y-111959819D01*
X160488684Y-111959819D02*
X160393446Y-111912200D01*
X161726779Y-111293152D02*
X161726779Y-111959819D01*
X161298208Y-111293152D02*
X161298208Y-111816961D01*
X161298208Y-111816961D02*
X161345827Y-111912200D01*
X161345827Y-111912200D02*
X161441065Y-111959819D01*
X161441065Y-111959819D02*
X161583922Y-111959819D01*
X161583922Y-111959819D02*
X161679160Y-111912200D01*
X161679160Y-111912200D02*
X161726779Y-111864580D01*
X162060113Y-111293152D02*
X162441065Y-111293152D01*
X162202970Y-110959819D02*
X162202970Y-111816961D01*
X162202970Y-111816961D02*
X162250589Y-111912200D01*
X162250589Y-111912200D02*
X162345827Y-111959819D01*
X162345827Y-111959819D02*
X162441065Y-111959819D01*
X161832969Y-75910820D02*
X161356779Y-75910820D01*
X161356779Y-75910820D02*
X161356779Y-74910820D01*
X162309160Y-75910820D02*
X162213922Y-75863201D01*
X162213922Y-75863201D02*
X162166303Y-75815581D01*
X162166303Y-75815581D02*
X162118684Y-75720343D01*
X162118684Y-75720343D02*
X162118684Y-75434629D01*
X162118684Y-75434629D02*
X162166303Y-75339391D01*
X162166303Y-75339391D02*
X162213922Y-75291772D01*
X162213922Y-75291772D02*
X162309160Y-75244153D01*
X162309160Y-75244153D02*
X162452017Y-75244153D01*
X162452017Y-75244153D02*
X162547255Y-75291772D01*
X162547255Y-75291772D02*
X162594874Y-75339391D01*
X162594874Y-75339391D02*
X162642493Y-75434629D01*
X162642493Y-75434629D02*
X162642493Y-75720343D01*
X162642493Y-75720343D02*
X162594874Y-75815581D01*
X162594874Y-75815581D02*
X162547255Y-75863201D01*
X162547255Y-75863201D02*
X162452017Y-75910820D01*
X162452017Y-75910820D02*
X162309160Y-75910820D01*
X162975827Y-75244153D02*
X163166303Y-75910820D01*
X163166303Y-75910820D02*
X163356779Y-75434629D01*
X163356779Y-75434629D02*
X163547255Y-75910820D01*
X163547255Y-75910820D02*
X163737731Y-75244153D01*
X165404398Y-74958439D02*
X165309160Y-74910820D01*
X165309160Y-74910820D02*
X165166303Y-74910820D01*
X165166303Y-74910820D02*
X165023446Y-74958439D01*
X165023446Y-74958439D02*
X164928208Y-75053677D01*
X164928208Y-75053677D02*
X164880589Y-75148915D01*
X164880589Y-75148915D02*
X164832970Y-75339391D01*
X164832970Y-75339391D02*
X164832970Y-75482248D01*
X164832970Y-75482248D02*
X164880589Y-75672724D01*
X164880589Y-75672724D02*
X164928208Y-75767962D01*
X164928208Y-75767962D02*
X165023446Y-75863201D01*
X165023446Y-75863201D02*
X165166303Y-75910820D01*
X165166303Y-75910820D02*
X165261541Y-75910820D01*
X165261541Y-75910820D02*
X165404398Y-75863201D01*
X165404398Y-75863201D02*
X165452017Y-75815581D01*
X165452017Y-75815581D02*
X165452017Y-75482248D01*
X165452017Y-75482248D02*
X165261541Y-75482248D01*
X166309160Y-75910820D02*
X166309160Y-75387010D01*
X166309160Y-75387010D02*
X166261541Y-75291772D01*
X166261541Y-75291772D02*
X166166303Y-75244153D01*
X166166303Y-75244153D02*
X165975827Y-75244153D01*
X165975827Y-75244153D02*
X165880589Y-75291772D01*
X166309160Y-75863201D02*
X166213922Y-75910820D01*
X166213922Y-75910820D02*
X165975827Y-75910820D01*
X165975827Y-75910820D02*
X165880589Y-75863201D01*
X165880589Y-75863201D02*
X165832970Y-75767962D01*
X165832970Y-75767962D02*
X165832970Y-75672724D01*
X165832970Y-75672724D02*
X165880589Y-75577486D01*
X165880589Y-75577486D02*
X165975827Y-75529867D01*
X165975827Y-75529867D02*
X166213922Y-75529867D01*
X166213922Y-75529867D02*
X166309160Y-75482248D01*
X166785351Y-75910820D02*
X166785351Y-75244153D01*
X166785351Y-74910820D02*
X166737732Y-74958439D01*
X166737732Y-74958439D02*
X166785351Y-75006058D01*
X166785351Y-75006058D02*
X166832970Y-74958439D01*
X166832970Y-74958439D02*
X166785351Y-74910820D01*
X166785351Y-74910820D02*
X166785351Y-75006058D01*
X167261541Y-75244153D02*
X167261541Y-75910820D01*
X167261541Y-75339391D02*
X167309160Y-75291772D01*
X167309160Y-75291772D02*
X167404398Y-75244153D01*
X167404398Y-75244153D02*
X167547255Y-75244153D01*
X167547255Y-75244153D02*
X167642493Y-75291772D01*
X167642493Y-75291772D02*
X167690112Y-75387010D01*
X167690112Y-75387010D02*
X167690112Y-75910820D01*
X169118684Y-74910820D02*
X169309160Y-74910820D01*
X169309160Y-74910820D02*
X169404398Y-74958439D01*
X169404398Y-74958439D02*
X169499636Y-75053677D01*
X169499636Y-75053677D02*
X169547255Y-75244153D01*
X169547255Y-75244153D02*
X169547255Y-75577486D01*
X169547255Y-75577486D02*
X169499636Y-75767962D01*
X169499636Y-75767962D02*
X169404398Y-75863201D01*
X169404398Y-75863201D02*
X169309160Y-75910820D01*
X169309160Y-75910820D02*
X169118684Y-75910820D01*
X169118684Y-75910820D02*
X169023446Y-75863201D01*
X169023446Y-75863201D02*
X168928208Y-75767962D01*
X168928208Y-75767962D02*
X168880589Y-75577486D01*
X168880589Y-75577486D02*
X168880589Y-75244153D01*
X168880589Y-75244153D02*
X168928208Y-75053677D01*
X168928208Y-75053677D02*
X169023446Y-74958439D01*
X169023446Y-74958439D02*
X169118684Y-74910820D01*
X170404398Y-75244153D02*
X170404398Y-75910820D01*
X169975827Y-75244153D02*
X169975827Y-75767962D01*
X169975827Y-75767962D02*
X170023446Y-75863201D01*
X170023446Y-75863201D02*
X170118684Y-75910820D01*
X170118684Y-75910820D02*
X170261541Y-75910820D01*
X170261541Y-75910820D02*
X170356779Y-75863201D01*
X170356779Y-75863201D02*
X170404398Y-75815581D01*
X170737732Y-75244153D02*
X171118684Y-75244153D01*
X170880589Y-74910820D02*
X170880589Y-75767962D01*
X170880589Y-75767962D02*
X170928208Y-75863201D01*
X170928208Y-75863201D02*
X171023446Y-75910820D01*
X171023446Y-75910820D02*
X171118684Y-75910820D01*
X171452018Y-75244153D02*
X171452018Y-76244153D01*
X171452018Y-75291772D02*
X171547256Y-75244153D01*
X171547256Y-75244153D02*
X171737732Y-75244153D01*
X171737732Y-75244153D02*
X171832970Y-75291772D01*
X171832970Y-75291772D02*
X171880589Y-75339391D01*
X171880589Y-75339391D02*
X171928208Y-75434629D01*
X171928208Y-75434629D02*
X171928208Y-75720343D01*
X171928208Y-75720343D02*
X171880589Y-75815581D01*
X171880589Y-75815581D02*
X171832970Y-75863201D01*
X171832970Y-75863201D02*
X171737732Y-75910820D01*
X171737732Y-75910820D02*
X171547256Y-75910820D01*
X171547256Y-75910820D02*
X171452018Y-75863201D01*
X172785351Y-75244153D02*
X172785351Y-75910820D01*
X172356780Y-75244153D02*
X172356780Y-75767962D01*
X172356780Y-75767962D02*
X172404399Y-75863201D01*
X172404399Y-75863201D02*
X172499637Y-75910820D01*
X172499637Y-75910820D02*
X172642494Y-75910820D01*
X172642494Y-75910820D02*
X172737732Y-75863201D01*
X172737732Y-75863201D02*
X172785351Y-75815581D01*
X173118685Y-75244153D02*
X173499637Y-75244153D01*
X173261542Y-74910820D02*
X173261542Y-75767962D01*
X173261542Y-75767962D02*
X173309161Y-75863201D01*
X173309161Y-75863201D02*
X173404399Y-75910820D01*
X173404399Y-75910820D02*
X173499637Y-75910820D01*
X161626779Y-42389419D02*
X161626779Y-41389419D01*
X162102969Y-41722752D02*
X162102969Y-42389419D01*
X162102969Y-41817990D02*
X162150588Y-41770371D01*
X162150588Y-41770371D02*
X162245826Y-41722752D01*
X162245826Y-41722752D02*
X162388683Y-41722752D01*
X162388683Y-41722752D02*
X162483921Y-41770371D01*
X162483921Y-41770371D02*
X162531540Y-41865609D01*
X162531540Y-41865609D02*
X162531540Y-42389419D01*
X163007731Y-41722752D02*
X163007731Y-42722752D01*
X163007731Y-41770371D02*
X163102969Y-41722752D01*
X163102969Y-41722752D02*
X163293445Y-41722752D01*
X163293445Y-41722752D02*
X163388683Y-41770371D01*
X163388683Y-41770371D02*
X163436302Y-41817990D01*
X163436302Y-41817990D02*
X163483921Y-41913228D01*
X163483921Y-41913228D02*
X163483921Y-42198942D01*
X163483921Y-42198942D02*
X163436302Y-42294180D01*
X163436302Y-42294180D02*
X163388683Y-42341800D01*
X163388683Y-42341800D02*
X163293445Y-42389419D01*
X163293445Y-42389419D02*
X163102969Y-42389419D01*
X163102969Y-42389419D02*
X163007731Y-42341800D01*
X164341064Y-41722752D02*
X164341064Y-42389419D01*
X163912493Y-41722752D02*
X163912493Y-42246561D01*
X163912493Y-42246561D02*
X163960112Y-42341800D01*
X163960112Y-42341800D02*
X164055350Y-42389419D01*
X164055350Y-42389419D02*
X164198207Y-42389419D01*
X164198207Y-42389419D02*
X164293445Y-42341800D01*
X164293445Y-42341800D02*
X164341064Y-42294180D01*
X164674398Y-41722752D02*
X165055350Y-41722752D01*
X164817255Y-41389419D02*
X164817255Y-42246561D01*
X164817255Y-42246561D02*
X164864874Y-42341800D01*
X164864874Y-42341800D02*
X164960112Y-42389419D01*
X164960112Y-42389419D02*
X165055350Y-42389419D01*
X139598095Y-71404819D02*
X139598095Y-72214342D01*
X139598095Y-72214342D02*
X139645714Y-72309580D01*
X139645714Y-72309580D02*
X139693333Y-72357200D01*
X139693333Y-72357200D02*
X139788571Y-72404819D01*
X139788571Y-72404819D02*
X139979047Y-72404819D01*
X139979047Y-72404819D02*
X140074285Y-72357200D01*
X140074285Y-72357200D02*
X140121904Y-72309580D01*
X140121904Y-72309580D02*
X140169523Y-72214342D01*
X140169523Y-72214342D02*
X140169523Y-71404819D01*
X140598095Y-71500057D02*
X140645714Y-71452438D01*
X140645714Y-71452438D02*
X140740952Y-71404819D01*
X140740952Y-71404819D02*
X140979047Y-71404819D01*
X140979047Y-71404819D02*
X141074285Y-71452438D01*
X141074285Y-71452438D02*
X141121904Y-71500057D01*
X141121904Y-71500057D02*
X141169523Y-71595295D01*
X141169523Y-71595295D02*
X141169523Y-71690533D01*
X141169523Y-71690533D02*
X141121904Y-71833390D01*
X141121904Y-71833390D02*
X140550476Y-72404819D01*
X140550476Y-72404819D02*
X141169523Y-72404819D01*
X146348418Y-71170799D02*
X146586513Y-71170799D01*
X146491275Y-71408894D02*
X146586513Y-71170799D01*
X146586513Y-71170799D02*
X146491275Y-70932704D01*
X146776989Y-71313656D02*
X146586513Y-71170799D01*
X146586513Y-71170799D02*
X146776989Y-71027942D01*
X147438779Y-71170800D02*
X147200684Y-71170800D01*
X147295922Y-70932705D02*
X147200684Y-71170800D01*
X147200684Y-71170800D02*
X147295922Y-71408895D01*
X147010208Y-71027943D02*
X147200684Y-71170800D01*
X147200684Y-71170800D02*
X147010208Y-71313657D01*
D12*
X157190476Y-51063855D02*
X157190476Y-51711474D01*
X157190476Y-51711474D02*
X157228571Y-51787664D01*
X157228571Y-51787664D02*
X157266666Y-51825760D01*
X157266666Y-51825760D02*
X157342857Y-51863855D01*
X157342857Y-51863855D02*
X157495238Y-51863855D01*
X157495238Y-51863855D02*
X157571428Y-51825760D01*
X157571428Y-51825760D02*
X157609523Y-51787664D01*
X157609523Y-51787664D02*
X157647619Y-51711474D01*
X157647619Y-51711474D02*
X157647619Y-51063855D01*
X158142856Y-51406712D02*
X158066666Y-51368617D01*
X158066666Y-51368617D02*
X158028571Y-51330521D01*
X158028571Y-51330521D02*
X157990475Y-51254331D01*
X157990475Y-51254331D02*
X157990475Y-51216236D01*
X157990475Y-51216236D02*
X158028571Y-51140045D01*
X158028571Y-51140045D02*
X158066666Y-51101950D01*
X158066666Y-51101950D02*
X158142856Y-51063855D01*
X158142856Y-51063855D02*
X158295237Y-51063855D01*
X158295237Y-51063855D02*
X158371428Y-51101950D01*
X158371428Y-51101950D02*
X158409523Y-51140045D01*
X158409523Y-51140045D02*
X158447618Y-51216236D01*
X158447618Y-51216236D02*
X158447618Y-51254331D01*
X158447618Y-51254331D02*
X158409523Y-51330521D01*
X158409523Y-51330521D02*
X158371428Y-51368617D01*
X158371428Y-51368617D02*
X158295237Y-51406712D01*
X158295237Y-51406712D02*
X158142856Y-51406712D01*
X158142856Y-51406712D02*
X158066666Y-51444807D01*
X158066666Y-51444807D02*
X158028571Y-51482902D01*
X158028571Y-51482902D02*
X157990475Y-51559093D01*
X157990475Y-51559093D02*
X157990475Y-51711474D01*
X157990475Y-51711474D02*
X158028571Y-51787664D01*
X158028571Y-51787664D02*
X158066666Y-51825760D01*
X158066666Y-51825760D02*
X158142856Y-51863855D01*
X158142856Y-51863855D02*
X158295237Y-51863855D01*
X158295237Y-51863855D02*
X158371428Y-51825760D01*
X158371428Y-51825760D02*
X158409523Y-51787664D01*
X158409523Y-51787664D02*
X158447618Y-51711474D01*
X158447618Y-51711474D02*
X158447618Y-51559093D01*
X158447618Y-51559093D02*
X158409523Y-51482902D01*
X158409523Y-51482902D02*
X158371428Y-51444807D01*
X158371428Y-51444807D02*
X158295237Y-51406712D01*
D11*
X140358095Y-83674819D02*
X140358095Y-84484342D01*
X140358095Y-84484342D02*
X140405714Y-84579580D01*
X140405714Y-84579580D02*
X140453333Y-84627200D01*
X140453333Y-84627200D02*
X140548571Y-84674819D01*
X140548571Y-84674819D02*
X140739047Y-84674819D01*
X140739047Y-84674819D02*
X140834285Y-84627200D01*
X140834285Y-84627200D02*
X140881904Y-84579580D01*
X140881904Y-84579580D02*
X140929523Y-84484342D01*
X140929523Y-84484342D02*
X140929523Y-83674819D01*
X141310476Y-83674819D02*
X141929523Y-83674819D01*
X141929523Y-83674819D02*
X141596190Y-84055771D01*
X141596190Y-84055771D02*
X141739047Y-84055771D01*
X141739047Y-84055771D02*
X141834285Y-84103390D01*
X141834285Y-84103390D02*
X141881904Y-84151009D01*
X141881904Y-84151009D02*
X141929523Y-84246247D01*
X141929523Y-84246247D02*
X141929523Y-84484342D01*
X141929523Y-84484342D02*
X141881904Y-84579580D01*
X141881904Y-84579580D02*
X141834285Y-84627200D01*
X141834285Y-84627200D02*
X141739047Y-84674819D01*
X141739047Y-84674819D02*
X141453333Y-84674819D01*
X141453333Y-84674819D02*
X141358095Y-84627200D01*
X141358095Y-84627200D02*
X141310476Y-84579580D01*
X195191142Y-74201580D02*
X195143523Y-74249200D01*
X195143523Y-74249200D02*
X195000666Y-74296819D01*
X195000666Y-74296819D02*
X194905428Y-74296819D01*
X194905428Y-74296819D02*
X194762571Y-74249200D01*
X194762571Y-74249200D02*
X194667333Y-74153961D01*
X194667333Y-74153961D02*
X194619714Y-74058723D01*
X194619714Y-74058723D02*
X194572095Y-73868247D01*
X194572095Y-73868247D02*
X194572095Y-73725390D01*
X194572095Y-73725390D02*
X194619714Y-73534914D01*
X194619714Y-73534914D02*
X194667333Y-73439676D01*
X194667333Y-73439676D02*
X194762571Y-73344438D01*
X194762571Y-73344438D02*
X194905428Y-73296819D01*
X194905428Y-73296819D02*
X195000666Y-73296819D01*
X195000666Y-73296819D02*
X195143523Y-73344438D01*
X195143523Y-73344438D02*
X195191142Y-73392057D01*
X196143523Y-74296819D02*
X195572095Y-74296819D01*
X195857809Y-74296819D02*
X195857809Y-73296819D01*
X195857809Y-73296819D02*
X195762571Y-73439676D01*
X195762571Y-73439676D02*
X195667333Y-73534914D01*
X195667333Y-73534914D02*
X195572095Y-73582533D01*
X196476857Y-73296819D02*
X197143523Y-73296819D01*
X197143523Y-73296819D02*
X196714952Y-74296819D01*
X149392819Y-78246266D02*
X148916628Y-78579599D01*
X149392819Y-78817694D02*
X148392819Y-78817694D01*
X148392819Y-78817694D02*
X148392819Y-78436742D01*
X148392819Y-78436742D02*
X148440438Y-78341504D01*
X148440438Y-78341504D02*
X148488057Y-78293885D01*
X148488057Y-78293885D02*
X148583295Y-78246266D01*
X148583295Y-78246266D02*
X148726152Y-78246266D01*
X148726152Y-78246266D02*
X148821390Y-78293885D01*
X148821390Y-78293885D02*
X148869009Y-78341504D01*
X148869009Y-78341504D02*
X148916628Y-78436742D01*
X148916628Y-78436742D02*
X148916628Y-78817694D01*
X148488057Y-77865313D02*
X148440438Y-77817694D01*
X148440438Y-77817694D02*
X148392819Y-77722456D01*
X148392819Y-77722456D02*
X148392819Y-77484361D01*
X148392819Y-77484361D02*
X148440438Y-77389123D01*
X148440438Y-77389123D02*
X148488057Y-77341504D01*
X148488057Y-77341504D02*
X148583295Y-77293885D01*
X148583295Y-77293885D02*
X148678533Y-77293885D01*
X148678533Y-77293885D02*
X148821390Y-77341504D01*
X148821390Y-77341504D02*
X149392819Y-77912932D01*
X149392819Y-77912932D02*
X149392819Y-77293885D01*
X170864819Y-102086666D02*
X170388628Y-102419999D01*
X170864819Y-102658094D02*
X169864819Y-102658094D01*
X169864819Y-102658094D02*
X169864819Y-102277142D01*
X169864819Y-102277142D02*
X169912438Y-102181904D01*
X169912438Y-102181904D02*
X169960057Y-102134285D01*
X169960057Y-102134285D02*
X170055295Y-102086666D01*
X170055295Y-102086666D02*
X170198152Y-102086666D01*
X170198152Y-102086666D02*
X170293390Y-102134285D01*
X170293390Y-102134285D02*
X170341009Y-102181904D01*
X170341009Y-102181904D02*
X170388628Y-102277142D01*
X170388628Y-102277142D02*
X170388628Y-102658094D01*
X169864819Y-101181904D02*
X169864819Y-101658094D01*
X169864819Y-101658094D02*
X170341009Y-101705713D01*
X170341009Y-101705713D02*
X170293390Y-101658094D01*
X170293390Y-101658094D02*
X170245771Y-101562856D01*
X170245771Y-101562856D02*
X170245771Y-101324761D01*
X170245771Y-101324761D02*
X170293390Y-101229523D01*
X170293390Y-101229523D02*
X170341009Y-101181904D01*
X170341009Y-101181904D02*
X170436247Y-101134285D01*
X170436247Y-101134285D02*
X170674342Y-101134285D01*
X170674342Y-101134285D02*
X170769580Y-101181904D01*
X170769580Y-101181904D02*
X170817200Y-101229523D01*
X170817200Y-101229523D02*
X170864819Y-101324761D01*
X170864819Y-101324761D02*
X170864819Y-101562856D01*
X170864819Y-101562856D02*
X170817200Y-101658094D01*
X170817200Y-101658094D02*
X170769580Y-101705713D01*
X138808095Y-97474819D02*
X138808095Y-98284342D01*
X138808095Y-98284342D02*
X138855714Y-98379580D01*
X138855714Y-98379580D02*
X138903333Y-98427200D01*
X138903333Y-98427200D02*
X138998571Y-98474819D01*
X138998571Y-98474819D02*
X139189047Y-98474819D01*
X139189047Y-98474819D02*
X139284285Y-98427200D01*
X139284285Y-98427200D02*
X139331904Y-98379580D01*
X139331904Y-98379580D02*
X139379523Y-98284342D01*
X139379523Y-98284342D02*
X139379523Y-97474819D01*
X140331904Y-97474819D02*
X139855714Y-97474819D01*
X139855714Y-97474819D02*
X139808095Y-97951009D01*
X139808095Y-97951009D02*
X139855714Y-97903390D01*
X139855714Y-97903390D02*
X139950952Y-97855771D01*
X139950952Y-97855771D02*
X140189047Y-97855771D01*
X140189047Y-97855771D02*
X140284285Y-97903390D01*
X140284285Y-97903390D02*
X140331904Y-97951009D01*
X140331904Y-97951009D02*
X140379523Y-98046247D01*
X140379523Y-98046247D02*
X140379523Y-98284342D01*
X140379523Y-98284342D02*
X140331904Y-98379580D01*
X140331904Y-98379580D02*
X140284285Y-98427200D01*
X140284285Y-98427200D02*
X140189047Y-98474819D01*
X140189047Y-98474819D02*
X139950952Y-98474819D01*
X139950952Y-98474819D02*
X139855714Y-98427200D01*
X139855714Y-98427200D02*
X139808095Y-98379580D01*
X145250380Y-96748600D02*
X145012285Y-96748600D01*
X145107523Y-96510505D02*
X145012285Y-96748600D01*
X145012285Y-96748600D02*
X145107523Y-96986695D01*
X144821809Y-96605743D02*
X145012285Y-96748600D01*
X145012285Y-96748600D02*
X144821809Y-96891457D01*
X149926666Y-109436819D02*
X149926666Y-110151104D01*
X149926666Y-110151104D02*
X149879047Y-110293961D01*
X149879047Y-110293961D02*
X149783809Y-110389200D01*
X149783809Y-110389200D02*
X149640952Y-110436819D01*
X149640952Y-110436819D02*
X149545714Y-110436819D01*
X150307619Y-109436819D02*
X150926666Y-109436819D01*
X150926666Y-109436819D02*
X150593333Y-109817771D01*
X150593333Y-109817771D02*
X150736190Y-109817771D01*
X150736190Y-109817771D02*
X150831428Y-109865390D01*
X150831428Y-109865390D02*
X150879047Y-109913009D01*
X150879047Y-109913009D02*
X150926666Y-110008247D01*
X150926666Y-110008247D02*
X150926666Y-110246342D01*
X150926666Y-110246342D02*
X150879047Y-110341580D01*
X150879047Y-110341580D02*
X150831428Y-110389200D01*
X150831428Y-110389200D02*
X150736190Y-110436819D01*
X150736190Y-110436819D02*
X150450476Y-110436819D01*
X150450476Y-110436819D02*
X150355238Y-110389200D01*
X150355238Y-110389200D02*
X150307619Y-110341580D01*
X145401180Y-80887866D02*
X145448800Y-80935485D01*
X145448800Y-80935485D02*
X145496419Y-81078342D01*
X145496419Y-81078342D02*
X145496419Y-81173580D01*
X145496419Y-81173580D02*
X145448800Y-81316437D01*
X145448800Y-81316437D02*
X145353561Y-81411675D01*
X145353561Y-81411675D02*
X145258323Y-81459294D01*
X145258323Y-81459294D02*
X145067847Y-81506913D01*
X145067847Y-81506913D02*
X144924990Y-81506913D01*
X144924990Y-81506913D02*
X144734514Y-81459294D01*
X144734514Y-81459294D02*
X144639276Y-81411675D01*
X144639276Y-81411675D02*
X144544038Y-81316437D01*
X144544038Y-81316437D02*
X144496419Y-81173580D01*
X144496419Y-81173580D02*
X144496419Y-81078342D01*
X144496419Y-81078342D02*
X144544038Y-80935485D01*
X144544038Y-80935485D02*
X144591657Y-80887866D01*
X144496419Y-80030723D02*
X144496419Y-80221199D01*
X144496419Y-80221199D02*
X144544038Y-80316437D01*
X144544038Y-80316437D02*
X144591657Y-80364056D01*
X144591657Y-80364056D02*
X144734514Y-80459294D01*
X144734514Y-80459294D02*
X144924990Y-80506913D01*
X144924990Y-80506913D02*
X145305942Y-80506913D01*
X145305942Y-80506913D02*
X145401180Y-80459294D01*
X145401180Y-80459294D02*
X145448800Y-80411675D01*
X145448800Y-80411675D02*
X145496419Y-80316437D01*
X145496419Y-80316437D02*
X145496419Y-80125961D01*
X145496419Y-80125961D02*
X145448800Y-80030723D01*
X145448800Y-80030723D02*
X145401180Y-79983104D01*
X145401180Y-79983104D02*
X145305942Y-79935485D01*
X145305942Y-79935485D02*
X145067847Y-79935485D01*
X145067847Y-79935485D02*
X144972609Y-79983104D01*
X144972609Y-79983104D02*
X144924990Y-80030723D01*
X144924990Y-80030723D02*
X144877371Y-80125961D01*
X144877371Y-80125961D02*
X144877371Y-80316437D01*
X144877371Y-80316437D02*
X144924990Y-80411675D01*
X144924990Y-80411675D02*
X144972609Y-80459294D01*
X144972609Y-80459294D02*
X145067847Y-80506913D01*
X181983142Y-74169580D02*
X181935523Y-74217200D01*
X181935523Y-74217200D02*
X181792666Y-74264819D01*
X181792666Y-74264819D02*
X181697428Y-74264819D01*
X181697428Y-74264819D02*
X181554571Y-74217200D01*
X181554571Y-74217200D02*
X181459333Y-74121961D01*
X181459333Y-74121961D02*
X181411714Y-74026723D01*
X181411714Y-74026723D02*
X181364095Y-73836247D01*
X181364095Y-73836247D02*
X181364095Y-73693390D01*
X181364095Y-73693390D02*
X181411714Y-73502914D01*
X181411714Y-73502914D02*
X181459333Y-73407676D01*
X181459333Y-73407676D02*
X181554571Y-73312438D01*
X181554571Y-73312438D02*
X181697428Y-73264819D01*
X181697428Y-73264819D02*
X181792666Y-73264819D01*
X181792666Y-73264819D02*
X181935523Y-73312438D01*
X181935523Y-73312438D02*
X181983142Y-73360057D01*
X182935523Y-74264819D02*
X182364095Y-74264819D01*
X182649809Y-74264819D02*
X182649809Y-73264819D01*
X182649809Y-73264819D02*
X182554571Y-73407676D01*
X182554571Y-73407676D02*
X182459333Y-73502914D01*
X182459333Y-73502914D02*
X182364095Y-73550533D01*
X183316476Y-73360057D02*
X183364095Y-73312438D01*
X183364095Y-73312438D02*
X183459333Y-73264819D01*
X183459333Y-73264819D02*
X183697428Y-73264819D01*
X183697428Y-73264819D02*
X183792666Y-73312438D01*
X183792666Y-73312438D02*
X183840285Y-73360057D01*
X183840285Y-73360057D02*
X183887904Y-73455295D01*
X183887904Y-73455295D02*
X183887904Y-73550533D01*
X183887904Y-73550533D02*
X183840285Y-73693390D01*
X183840285Y-73693390D02*
X183268857Y-74264819D01*
X183268857Y-74264819D02*
X183887904Y-74264819D01*
X178656666Y-104034819D02*
X178656666Y-104749104D01*
X178656666Y-104749104D02*
X178609047Y-104891961D01*
X178609047Y-104891961D02*
X178513809Y-104987200D01*
X178513809Y-104987200D02*
X178370952Y-105034819D01*
X178370952Y-105034819D02*
X178275714Y-105034819D01*
X179561428Y-104368152D02*
X179561428Y-105034819D01*
X179323333Y-103987200D02*
X179085238Y-104701485D01*
X179085238Y-104701485D02*
X179704285Y-104701485D01*
X146709580Y-95016666D02*
X146757200Y-95064285D01*
X146757200Y-95064285D02*
X146804819Y-95207142D01*
X146804819Y-95207142D02*
X146804819Y-95302380D01*
X146804819Y-95302380D02*
X146757200Y-95445237D01*
X146757200Y-95445237D02*
X146661961Y-95540475D01*
X146661961Y-95540475D02*
X146566723Y-95588094D01*
X146566723Y-95588094D02*
X146376247Y-95635713D01*
X146376247Y-95635713D02*
X146233390Y-95635713D01*
X146233390Y-95635713D02*
X146042914Y-95588094D01*
X146042914Y-95588094D02*
X145947676Y-95540475D01*
X145947676Y-95540475D02*
X145852438Y-95445237D01*
X145852438Y-95445237D02*
X145804819Y-95302380D01*
X145804819Y-95302380D02*
X145804819Y-95207142D01*
X145804819Y-95207142D02*
X145852438Y-95064285D01*
X145852438Y-95064285D02*
X145900057Y-95016666D01*
X146804819Y-94064285D02*
X146804819Y-94635713D01*
X146804819Y-94349999D02*
X145804819Y-94349999D01*
X145804819Y-94349999D02*
X145947676Y-94445237D01*
X145947676Y-94445237D02*
X146042914Y-94540475D01*
X146042914Y-94540475D02*
X146090533Y-94635713D01*
X150049580Y-95056666D02*
X150097200Y-95104285D01*
X150097200Y-95104285D02*
X150144819Y-95247142D01*
X150144819Y-95247142D02*
X150144819Y-95342380D01*
X150144819Y-95342380D02*
X150097200Y-95485237D01*
X150097200Y-95485237D02*
X150001961Y-95580475D01*
X150001961Y-95580475D02*
X149906723Y-95628094D01*
X149906723Y-95628094D02*
X149716247Y-95675713D01*
X149716247Y-95675713D02*
X149573390Y-95675713D01*
X149573390Y-95675713D02*
X149382914Y-95628094D01*
X149382914Y-95628094D02*
X149287676Y-95580475D01*
X149287676Y-95580475D02*
X149192438Y-95485237D01*
X149192438Y-95485237D02*
X149144819Y-95342380D01*
X149144819Y-95342380D02*
X149144819Y-95247142D01*
X149144819Y-95247142D02*
X149192438Y-95104285D01*
X149192438Y-95104285D02*
X149240057Y-95056666D01*
X149144819Y-94723332D02*
X149144819Y-94104285D01*
X149144819Y-94104285D02*
X149525771Y-94437618D01*
X149525771Y-94437618D02*
X149525771Y-94294761D01*
X149525771Y-94294761D02*
X149573390Y-94199523D01*
X149573390Y-94199523D02*
X149621009Y-94151904D01*
X149621009Y-94151904D02*
X149716247Y-94104285D01*
X149716247Y-94104285D02*
X149954342Y-94104285D01*
X149954342Y-94104285D02*
X150049580Y-94151904D01*
X150049580Y-94151904D02*
X150097200Y-94199523D01*
X150097200Y-94199523D02*
X150144819Y-94294761D01*
X150144819Y-94294761D02*
X150144819Y-94580475D01*
X150144819Y-94580475D02*
X150097200Y-94675713D01*
X150097200Y-94675713D02*
X150049580Y-94723332D01*
X152518142Y-72383580D02*
X152470523Y-72431200D01*
X152470523Y-72431200D02*
X152327666Y-72478819D01*
X152327666Y-72478819D02*
X152232428Y-72478819D01*
X152232428Y-72478819D02*
X152089571Y-72431200D01*
X152089571Y-72431200D02*
X151994333Y-72335961D01*
X151994333Y-72335961D02*
X151946714Y-72240723D01*
X151946714Y-72240723D02*
X151899095Y-72050247D01*
X151899095Y-72050247D02*
X151899095Y-71907390D01*
X151899095Y-71907390D02*
X151946714Y-71716914D01*
X151946714Y-71716914D02*
X151994333Y-71621676D01*
X151994333Y-71621676D02*
X152089571Y-71526438D01*
X152089571Y-71526438D02*
X152232428Y-71478819D01*
X152232428Y-71478819D02*
X152327666Y-71478819D01*
X152327666Y-71478819D02*
X152470523Y-71526438D01*
X152470523Y-71526438D02*
X152518142Y-71574057D01*
X153470523Y-72478819D02*
X152899095Y-72478819D01*
X153184809Y-72478819D02*
X153184809Y-71478819D01*
X153184809Y-71478819D02*
X153089571Y-71621676D01*
X153089571Y-71621676D02*
X152994333Y-71716914D01*
X152994333Y-71716914D02*
X152899095Y-71764533D01*
X154089571Y-71478819D02*
X154184809Y-71478819D01*
X154184809Y-71478819D02*
X154280047Y-71526438D01*
X154280047Y-71526438D02*
X154327666Y-71574057D01*
X154327666Y-71574057D02*
X154375285Y-71669295D01*
X154375285Y-71669295D02*
X154422904Y-71859771D01*
X154422904Y-71859771D02*
X154422904Y-72097866D01*
X154422904Y-72097866D02*
X154375285Y-72288342D01*
X154375285Y-72288342D02*
X154327666Y-72383580D01*
X154327666Y-72383580D02*
X154280047Y-72431200D01*
X154280047Y-72431200D02*
X154184809Y-72478819D01*
X154184809Y-72478819D02*
X154089571Y-72478819D01*
X154089571Y-72478819D02*
X153994333Y-72431200D01*
X153994333Y-72431200D02*
X153946714Y-72383580D01*
X153946714Y-72383580D02*
X153899095Y-72288342D01*
X153899095Y-72288342D02*
X153851476Y-72097866D01*
X153851476Y-72097866D02*
X153851476Y-71859771D01*
X153851476Y-71859771D02*
X153899095Y-71669295D01*
X153899095Y-71669295D02*
X153946714Y-71574057D01*
X153946714Y-71574057D02*
X153994333Y-71526438D01*
X153994333Y-71526438D02*
X154089571Y-71478819D01*
X158308095Y-54514819D02*
X158308095Y-55324342D01*
X158308095Y-55324342D02*
X158355714Y-55419580D01*
X158355714Y-55419580D02*
X158403333Y-55467200D01*
X158403333Y-55467200D02*
X158498571Y-55514819D01*
X158498571Y-55514819D02*
X158689047Y-55514819D01*
X158689047Y-55514819D02*
X158784285Y-55467200D01*
X158784285Y-55467200D02*
X158831904Y-55419580D01*
X158831904Y-55419580D02*
X158879523Y-55324342D01*
X158879523Y-55324342D02*
X158879523Y-54514819D01*
X159784285Y-54848152D02*
X159784285Y-55514819D01*
X159546190Y-54467200D02*
X159308095Y-55181485D01*
X159308095Y-55181485D02*
X159927142Y-55181485D01*
X156754819Y-53695599D02*
X156992914Y-53695599D01*
X156897676Y-53933694D02*
X156992914Y-53695599D01*
X156992914Y-53695599D02*
X156897676Y-53457504D01*
X157183390Y-53838456D02*
X156992914Y-53695599D01*
X156992914Y-53695599D02*
X157183390Y-53552742D01*
X149638095Y-60304819D02*
X149638095Y-61114342D01*
X149638095Y-61114342D02*
X149685714Y-61209580D01*
X149685714Y-61209580D02*
X149733333Y-61257200D01*
X149733333Y-61257200D02*
X149828571Y-61304819D01*
X149828571Y-61304819D02*
X150019047Y-61304819D01*
X150019047Y-61304819D02*
X150114285Y-61257200D01*
X150114285Y-61257200D02*
X150161904Y-61209580D01*
X150161904Y-61209580D02*
X150209523Y-61114342D01*
X150209523Y-61114342D02*
X150209523Y-60304819D01*
X150590476Y-60304819D02*
X151257142Y-60304819D01*
X151257142Y-60304819D02*
X150828571Y-61304819D01*
X141563333Y-91539219D02*
X141087143Y-91539219D01*
X141087143Y-91539219D02*
X141087143Y-90539219D01*
X141849048Y-90634457D02*
X141896667Y-90586838D01*
X141896667Y-90586838D02*
X141991905Y-90539219D01*
X141991905Y-90539219D02*
X142230000Y-90539219D01*
X142230000Y-90539219D02*
X142325238Y-90586838D01*
X142325238Y-90586838D02*
X142372857Y-90634457D01*
X142372857Y-90634457D02*
X142420476Y-90729695D01*
X142420476Y-90729695D02*
X142420476Y-90824933D01*
X142420476Y-90824933D02*
X142372857Y-90967790D01*
X142372857Y-90967790D02*
X141801429Y-91539219D01*
X141801429Y-91539219D02*
X142420476Y-91539219D01*
X146199953Y-67269580D02*
X146152334Y-67317200D01*
X146152334Y-67317200D02*
X146009477Y-67364819D01*
X146009477Y-67364819D02*
X145914239Y-67364819D01*
X145914239Y-67364819D02*
X145771382Y-67317200D01*
X145771382Y-67317200D02*
X145676144Y-67221961D01*
X145676144Y-67221961D02*
X145628525Y-67126723D01*
X145628525Y-67126723D02*
X145580906Y-66936247D01*
X145580906Y-66936247D02*
X145580906Y-66793390D01*
X145580906Y-66793390D02*
X145628525Y-66602914D01*
X145628525Y-66602914D02*
X145676144Y-66507676D01*
X145676144Y-66507676D02*
X145771382Y-66412438D01*
X145771382Y-66412438D02*
X145914239Y-66364819D01*
X145914239Y-66364819D02*
X146009477Y-66364819D01*
X146009477Y-66364819D02*
X146152334Y-66412438D01*
X146152334Y-66412438D02*
X146199953Y-66460057D01*
X147057096Y-66698152D02*
X147057096Y-67364819D01*
X146819001Y-66317200D02*
X146580906Y-67031485D01*
X146580906Y-67031485D02*
X147199953Y-67031485D01*
X173104819Y-102116666D02*
X172628628Y-102449999D01*
X173104819Y-102688094D02*
X172104819Y-102688094D01*
X172104819Y-102688094D02*
X172104819Y-102307142D01*
X172104819Y-102307142D02*
X172152438Y-102211904D01*
X172152438Y-102211904D02*
X172200057Y-102164285D01*
X172200057Y-102164285D02*
X172295295Y-102116666D01*
X172295295Y-102116666D02*
X172438152Y-102116666D01*
X172438152Y-102116666D02*
X172533390Y-102164285D01*
X172533390Y-102164285D02*
X172581009Y-102211904D01*
X172581009Y-102211904D02*
X172628628Y-102307142D01*
X172628628Y-102307142D02*
X172628628Y-102688094D01*
X172104819Y-101259523D02*
X172104819Y-101449999D01*
X172104819Y-101449999D02*
X172152438Y-101545237D01*
X172152438Y-101545237D02*
X172200057Y-101592856D01*
X172200057Y-101592856D02*
X172342914Y-101688094D01*
X172342914Y-101688094D02*
X172533390Y-101735713D01*
X172533390Y-101735713D02*
X172914342Y-101735713D01*
X172914342Y-101735713D02*
X173009580Y-101688094D01*
X173009580Y-101688094D02*
X173057200Y-101640475D01*
X173057200Y-101640475D02*
X173104819Y-101545237D01*
X173104819Y-101545237D02*
X173104819Y-101354761D01*
X173104819Y-101354761D02*
X173057200Y-101259523D01*
X173057200Y-101259523D02*
X173009580Y-101211904D01*
X173009580Y-101211904D02*
X172914342Y-101164285D01*
X172914342Y-101164285D02*
X172676247Y-101164285D01*
X172676247Y-101164285D02*
X172581009Y-101211904D01*
X172581009Y-101211904D02*
X172533390Y-101259523D01*
X172533390Y-101259523D02*
X172485771Y-101354761D01*
X172485771Y-101354761D02*
X172485771Y-101545237D01*
X172485771Y-101545237D02*
X172533390Y-101640475D01*
X172533390Y-101640475D02*
X172581009Y-101688094D01*
X172581009Y-101688094D02*
X172676247Y-101735713D01*
X175504819Y-102086666D02*
X175028628Y-102419999D01*
X175504819Y-102658094D02*
X174504819Y-102658094D01*
X174504819Y-102658094D02*
X174504819Y-102277142D01*
X174504819Y-102277142D02*
X174552438Y-102181904D01*
X174552438Y-102181904D02*
X174600057Y-102134285D01*
X174600057Y-102134285D02*
X174695295Y-102086666D01*
X174695295Y-102086666D02*
X174838152Y-102086666D01*
X174838152Y-102086666D02*
X174933390Y-102134285D01*
X174933390Y-102134285D02*
X174981009Y-102181904D01*
X174981009Y-102181904D02*
X175028628Y-102277142D01*
X175028628Y-102277142D02*
X175028628Y-102658094D01*
X174504819Y-101753332D02*
X174504819Y-101086666D01*
X174504819Y-101086666D02*
X175504819Y-101515237D01*
X161676666Y-44464819D02*
X161676666Y-45179104D01*
X161676666Y-45179104D02*
X161629047Y-45321961D01*
X161629047Y-45321961D02*
X161533809Y-45417200D01*
X161533809Y-45417200D02*
X161390952Y-45464819D01*
X161390952Y-45464819D02*
X161295714Y-45464819D01*
X162105238Y-44560057D02*
X162152857Y-44512438D01*
X162152857Y-44512438D02*
X162248095Y-44464819D01*
X162248095Y-44464819D02*
X162486190Y-44464819D01*
X162486190Y-44464819D02*
X162581428Y-44512438D01*
X162581428Y-44512438D02*
X162629047Y-44560057D01*
X162629047Y-44560057D02*
X162676666Y-44655295D01*
X162676666Y-44655295D02*
X162676666Y-44750533D01*
X162676666Y-44750533D02*
X162629047Y-44893390D01*
X162629047Y-44893390D02*
X162057619Y-45464819D01*
X162057619Y-45464819D02*
X162676666Y-45464819D01*
X148459580Y-95076666D02*
X148507200Y-95124285D01*
X148507200Y-95124285D02*
X148554819Y-95267142D01*
X148554819Y-95267142D02*
X148554819Y-95362380D01*
X148554819Y-95362380D02*
X148507200Y-95505237D01*
X148507200Y-95505237D02*
X148411961Y-95600475D01*
X148411961Y-95600475D02*
X148316723Y-95648094D01*
X148316723Y-95648094D02*
X148126247Y-95695713D01*
X148126247Y-95695713D02*
X147983390Y-95695713D01*
X147983390Y-95695713D02*
X147792914Y-95648094D01*
X147792914Y-95648094D02*
X147697676Y-95600475D01*
X147697676Y-95600475D02*
X147602438Y-95505237D01*
X147602438Y-95505237D02*
X147554819Y-95362380D01*
X147554819Y-95362380D02*
X147554819Y-95267142D01*
X147554819Y-95267142D02*
X147602438Y-95124285D01*
X147602438Y-95124285D02*
X147650057Y-95076666D01*
X147650057Y-94695713D02*
X147602438Y-94648094D01*
X147602438Y-94648094D02*
X147554819Y-94552856D01*
X147554819Y-94552856D02*
X147554819Y-94314761D01*
X147554819Y-94314761D02*
X147602438Y-94219523D01*
X147602438Y-94219523D02*
X147650057Y-94171904D01*
X147650057Y-94171904D02*
X147745295Y-94124285D01*
X147745295Y-94124285D02*
X147840533Y-94124285D01*
X147840533Y-94124285D02*
X147983390Y-94171904D01*
X147983390Y-94171904D02*
X148554819Y-94743332D01*
X148554819Y-94743332D02*
X148554819Y-94124285D01*
X185453580Y-72778857D02*
X185501200Y-72826476D01*
X185501200Y-72826476D02*
X185548819Y-72969333D01*
X185548819Y-72969333D02*
X185548819Y-73064571D01*
X185548819Y-73064571D02*
X185501200Y-73207428D01*
X185501200Y-73207428D02*
X185405961Y-73302666D01*
X185405961Y-73302666D02*
X185310723Y-73350285D01*
X185310723Y-73350285D02*
X185120247Y-73397904D01*
X185120247Y-73397904D02*
X184977390Y-73397904D01*
X184977390Y-73397904D02*
X184786914Y-73350285D01*
X184786914Y-73350285D02*
X184691676Y-73302666D01*
X184691676Y-73302666D02*
X184596438Y-73207428D01*
X184596438Y-73207428D02*
X184548819Y-73064571D01*
X184548819Y-73064571D02*
X184548819Y-72969333D01*
X184548819Y-72969333D02*
X184596438Y-72826476D01*
X184596438Y-72826476D02*
X184644057Y-72778857D01*
X185548819Y-71826476D02*
X185548819Y-72397904D01*
X185548819Y-72112190D02*
X184548819Y-72112190D01*
X184548819Y-72112190D02*
X184691676Y-72207428D01*
X184691676Y-72207428D02*
X184786914Y-72302666D01*
X184786914Y-72302666D02*
X184834533Y-72397904D01*
X184882152Y-70969333D02*
X185548819Y-70969333D01*
X184501200Y-71207428D02*
X185215485Y-71445523D01*
X185215485Y-71445523D02*
X185215485Y-70826476D01*
X141283333Y-94899560D02*
X141235714Y-94947180D01*
X141235714Y-94947180D02*
X141092857Y-94994799D01*
X141092857Y-94994799D02*
X140997619Y-94994799D01*
X140997619Y-94994799D02*
X140854762Y-94947180D01*
X140854762Y-94947180D02*
X140759524Y-94851941D01*
X140759524Y-94851941D02*
X140711905Y-94756703D01*
X140711905Y-94756703D02*
X140664286Y-94566227D01*
X140664286Y-94566227D02*
X140664286Y-94423370D01*
X140664286Y-94423370D02*
X140711905Y-94232894D01*
X140711905Y-94232894D02*
X140759524Y-94137656D01*
X140759524Y-94137656D02*
X140854762Y-94042418D01*
X140854762Y-94042418D02*
X140997619Y-93994799D01*
X140997619Y-93994799D02*
X141092857Y-93994799D01*
X141092857Y-93994799D02*
X141235714Y-94042418D01*
X141235714Y-94042418D02*
X141283333Y-94090037D01*
X141616667Y-93994799D02*
X142283333Y-93994799D01*
X142283333Y-93994799D02*
X141854762Y-94994799D01*
X145393333Y-105014980D02*
X145345714Y-105062600D01*
X145345714Y-105062600D02*
X145202857Y-105110219D01*
X145202857Y-105110219D02*
X145107619Y-105110219D01*
X145107619Y-105110219D02*
X144964762Y-105062600D01*
X144964762Y-105062600D02*
X144869524Y-104967361D01*
X144869524Y-104967361D02*
X144821905Y-104872123D01*
X144821905Y-104872123D02*
X144774286Y-104681647D01*
X144774286Y-104681647D02*
X144774286Y-104538790D01*
X144774286Y-104538790D02*
X144821905Y-104348314D01*
X144821905Y-104348314D02*
X144869524Y-104253076D01*
X144869524Y-104253076D02*
X144964762Y-104157838D01*
X144964762Y-104157838D02*
X145107619Y-104110219D01*
X145107619Y-104110219D02*
X145202857Y-104110219D01*
X145202857Y-104110219D02*
X145345714Y-104157838D01*
X145345714Y-104157838D02*
X145393333Y-104205457D01*
X145964762Y-104538790D02*
X145869524Y-104491171D01*
X145869524Y-104491171D02*
X145821905Y-104443552D01*
X145821905Y-104443552D02*
X145774286Y-104348314D01*
X145774286Y-104348314D02*
X145774286Y-104300695D01*
X145774286Y-104300695D02*
X145821905Y-104205457D01*
X145821905Y-104205457D02*
X145869524Y-104157838D01*
X145869524Y-104157838D02*
X145964762Y-104110219D01*
X145964762Y-104110219D02*
X146155238Y-104110219D01*
X146155238Y-104110219D02*
X146250476Y-104157838D01*
X146250476Y-104157838D02*
X146298095Y-104205457D01*
X146298095Y-104205457D02*
X146345714Y-104300695D01*
X146345714Y-104300695D02*
X146345714Y-104348314D01*
X146345714Y-104348314D02*
X146298095Y-104443552D01*
X146298095Y-104443552D02*
X146250476Y-104491171D01*
X146250476Y-104491171D02*
X146155238Y-104538790D01*
X146155238Y-104538790D02*
X145964762Y-104538790D01*
X145964762Y-104538790D02*
X145869524Y-104586409D01*
X145869524Y-104586409D02*
X145821905Y-104634028D01*
X145821905Y-104634028D02*
X145774286Y-104729266D01*
X145774286Y-104729266D02*
X145774286Y-104919742D01*
X145774286Y-104919742D02*
X145821905Y-105014980D01*
X145821905Y-105014980D02*
X145869524Y-105062600D01*
X145869524Y-105062600D02*
X145964762Y-105110219D01*
X145964762Y-105110219D02*
X146155238Y-105110219D01*
X146155238Y-105110219D02*
X146250476Y-105062600D01*
X146250476Y-105062600D02*
X146298095Y-105014980D01*
X146298095Y-105014980D02*
X146345714Y-104919742D01*
X146345714Y-104919742D02*
X146345714Y-104729266D01*
X146345714Y-104729266D02*
X146298095Y-104634028D01*
X146298095Y-104634028D02*
X146250476Y-104586409D01*
X146250476Y-104586409D02*
X146155238Y-104538790D01*
X196773580Y-81365857D02*
X196821200Y-81413476D01*
X196821200Y-81413476D02*
X196868819Y-81556333D01*
X196868819Y-81556333D02*
X196868819Y-81651571D01*
X196868819Y-81651571D02*
X196821200Y-81794428D01*
X196821200Y-81794428D02*
X196725961Y-81889666D01*
X196725961Y-81889666D02*
X196630723Y-81937285D01*
X196630723Y-81937285D02*
X196440247Y-81984904D01*
X196440247Y-81984904D02*
X196297390Y-81984904D01*
X196297390Y-81984904D02*
X196106914Y-81937285D01*
X196106914Y-81937285D02*
X196011676Y-81889666D01*
X196011676Y-81889666D02*
X195916438Y-81794428D01*
X195916438Y-81794428D02*
X195868819Y-81651571D01*
X195868819Y-81651571D02*
X195868819Y-81556333D01*
X195868819Y-81556333D02*
X195916438Y-81413476D01*
X195916438Y-81413476D02*
X195964057Y-81365857D01*
X196868819Y-80413476D02*
X196868819Y-80984904D01*
X196868819Y-80699190D02*
X195868819Y-80699190D01*
X195868819Y-80699190D02*
X196011676Y-80794428D01*
X196011676Y-80794428D02*
X196106914Y-80889666D01*
X196106914Y-80889666D02*
X196154533Y-80984904D01*
X196297390Y-79842047D02*
X196249771Y-79937285D01*
X196249771Y-79937285D02*
X196202152Y-79984904D01*
X196202152Y-79984904D02*
X196106914Y-80032523D01*
X196106914Y-80032523D02*
X196059295Y-80032523D01*
X196059295Y-80032523D02*
X195964057Y-79984904D01*
X195964057Y-79984904D02*
X195916438Y-79937285D01*
X195916438Y-79937285D02*
X195868819Y-79842047D01*
X195868819Y-79842047D02*
X195868819Y-79651571D01*
X195868819Y-79651571D02*
X195916438Y-79556333D01*
X195916438Y-79556333D02*
X195964057Y-79508714D01*
X195964057Y-79508714D02*
X196059295Y-79461095D01*
X196059295Y-79461095D02*
X196106914Y-79461095D01*
X196106914Y-79461095D02*
X196202152Y-79508714D01*
X196202152Y-79508714D02*
X196249771Y-79556333D01*
X196249771Y-79556333D02*
X196297390Y-79651571D01*
X196297390Y-79651571D02*
X196297390Y-79842047D01*
X196297390Y-79842047D02*
X196345009Y-79937285D01*
X196345009Y-79937285D02*
X196392628Y-79984904D01*
X196392628Y-79984904D02*
X196487866Y-80032523D01*
X196487866Y-80032523D02*
X196678342Y-80032523D01*
X196678342Y-80032523D02*
X196773580Y-79984904D01*
X196773580Y-79984904D02*
X196821200Y-79937285D01*
X196821200Y-79937285D02*
X196868819Y-79842047D01*
X196868819Y-79842047D02*
X196868819Y-79651571D01*
X196868819Y-79651571D02*
X196821200Y-79556333D01*
X196821200Y-79556333D02*
X196773580Y-79508714D01*
X196773580Y-79508714D02*
X196678342Y-79461095D01*
X196678342Y-79461095D02*
X196487866Y-79461095D01*
X196487866Y-79461095D02*
X196392628Y-79508714D01*
X196392628Y-79508714D02*
X196345009Y-79556333D01*
X196345009Y-79556333D02*
X196297390Y-79651571D01*
X181983142Y-80441580D02*
X181935523Y-80489200D01*
X181935523Y-80489200D02*
X181792666Y-80536819D01*
X181792666Y-80536819D02*
X181697428Y-80536819D01*
X181697428Y-80536819D02*
X181554571Y-80489200D01*
X181554571Y-80489200D02*
X181459333Y-80393961D01*
X181459333Y-80393961D02*
X181411714Y-80298723D01*
X181411714Y-80298723D02*
X181364095Y-80108247D01*
X181364095Y-80108247D02*
X181364095Y-79965390D01*
X181364095Y-79965390D02*
X181411714Y-79774914D01*
X181411714Y-79774914D02*
X181459333Y-79679676D01*
X181459333Y-79679676D02*
X181554571Y-79584438D01*
X181554571Y-79584438D02*
X181697428Y-79536819D01*
X181697428Y-79536819D02*
X181792666Y-79536819D01*
X181792666Y-79536819D02*
X181935523Y-79584438D01*
X181935523Y-79584438D02*
X181983142Y-79632057D01*
X182935523Y-80536819D02*
X182364095Y-80536819D01*
X182649809Y-80536819D02*
X182649809Y-79536819D01*
X182649809Y-79536819D02*
X182554571Y-79679676D01*
X182554571Y-79679676D02*
X182459333Y-79774914D01*
X182459333Y-79774914D02*
X182364095Y-79822533D01*
X183268857Y-79536819D02*
X183887904Y-79536819D01*
X183887904Y-79536819D02*
X183554571Y-79917771D01*
X183554571Y-79917771D02*
X183697428Y-79917771D01*
X183697428Y-79917771D02*
X183792666Y-79965390D01*
X183792666Y-79965390D02*
X183840285Y-80013009D01*
X183840285Y-80013009D02*
X183887904Y-80108247D01*
X183887904Y-80108247D02*
X183887904Y-80346342D01*
X183887904Y-80346342D02*
X183840285Y-80441580D01*
X183840285Y-80441580D02*
X183792666Y-80489200D01*
X183792666Y-80489200D02*
X183697428Y-80536819D01*
X183697428Y-80536819D02*
X183411714Y-80536819D01*
X183411714Y-80536819D02*
X183316476Y-80489200D01*
X183316476Y-80489200D02*
X183268857Y-80441580D01*
X159021542Y-67499580D02*
X158973923Y-67547200D01*
X158973923Y-67547200D02*
X158831066Y-67594819D01*
X158831066Y-67594819D02*
X158735828Y-67594819D01*
X158735828Y-67594819D02*
X158592971Y-67547200D01*
X158592971Y-67547200D02*
X158497733Y-67451961D01*
X158497733Y-67451961D02*
X158450114Y-67356723D01*
X158450114Y-67356723D02*
X158402495Y-67166247D01*
X158402495Y-67166247D02*
X158402495Y-67023390D01*
X158402495Y-67023390D02*
X158450114Y-66832914D01*
X158450114Y-66832914D02*
X158497733Y-66737676D01*
X158497733Y-66737676D02*
X158592971Y-66642438D01*
X158592971Y-66642438D02*
X158735828Y-66594819D01*
X158735828Y-66594819D02*
X158831066Y-66594819D01*
X158831066Y-66594819D02*
X158973923Y-66642438D01*
X158973923Y-66642438D02*
X159021542Y-66690057D01*
X159973923Y-67594819D02*
X159402495Y-67594819D01*
X159688209Y-67594819D02*
X159688209Y-66594819D01*
X159688209Y-66594819D02*
X159592971Y-66737676D01*
X159592971Y-66737676D02*
X159497733Y-66832914D01*
X159497733Y-66832914D02*
X159402495Y-66880533D01*
X160926304Y-67594819D02*
X160354876Y-67594819D01*
X160640590Y-67594819D02*
X160640590Y-66594819D01*
X160640590Y-66594819D02*
X160545352Y-66737676D01*
X160545352Y-66737676D02*
X160450114Y-66832914D01*
X160450114Y-66832914D02*
X160354876Y-66880533D01*
X153776819Y-78246266D02*
X153300628Y-78579599D01*
X153776819Y-78817694D02*
X152776819Y-78817694D01*
X152776819Y-78817694D02*
X152776819Y-78436742D01*
X152776819Y-78436742D02*
X152824438Y-78341504D01*
X152824438Y-78341504D02*
X152872057Y-78293885D01*
X152872057Y-78293885D02*
X152967295Y-78246266D01*
X152967295Y-78246266D02*
X153110152Y-78246266D01*
X153110152Y-78246266D02*
X153205390Y-78293885D01*
X153205390Y-78293885D02*
X153253009Y-78341504D01*
X153253009Y-78341504D02*
X153300628Y-78436742D01*
X153300628Y-78436742D02*
X153300628Y-78817694D01*
X153776819Y-77293885D02*
X153776819Y-77865313D01*
X153776819Y-77579599D02*
X152776819Y-77579599D01*
X152776819Y-77579599D02*
X152919676Y-77674837D01*
X152919676Y-77674837D02*
X153014914Y-77770075D01*
X153014914Y-77770075D02*
X153062533Y-77865313D01*
X188738095Y-82324819D02*
X188738095Y-83134342D01*
X188738095Y-83134342D02*
X188785714Y-83229580D01*
X188785714Y-83229580D02*
X188833333Y-83277200D01*
X188833333Y-83277200D02*
X188928571Y-83324819D01*
X188928571Y-83324819D02*
X189119047Y-83324819D01*
X189119047Y-83324819D02*
X189214285Y-83277200D01*
X189214285Y-83277200D02*
X189261904Y-83229580D01*
X189261904Y-83229580D02*
X189309523Y-83134342D01*
X189309523Y-83134342D02*
X189309523Y-82324819D01*
X190309523Y-83324819D02*
X189738095Y-83324819D01*
X190023809Y-83324819D02*
X190023809Y-82324819D01*
X190023809Y-82324819D02*
X189928571Y-82467676D01*
X189928571Y-82467676D02*
X189833333Y-82562914D01*
X189833333Y-82562914D02*
X189738095Y-82610533D01*
X186201666Y-90840819D02*
X186201666Y-91555104D01*
X186201666Y-91555104D02*
X186154047Y-91697961D01*
X186154047Y-91697961D02*
X186058809Y-91793200D01*
X186058809Y-91793200D02*
X185915952Y-91840819D01*
X185915952Y-91840819D02*
X185820714Y-91840819D01*
X187201666Y-91840819D02*
X186630238Y-91840819D01*
X186915952Y-91840819D02*
X186915952Y-90840819D01*
X186915952Y-90840819D02*
X186820714Y-90983676D01*
X186820714Y-90983676D02*
X186725476Y-91078914D01*
X186725476Y-91078914D02*
X186630238Y-91126533D01*
X161576666Y-73334819D02*
X161576666Y-74049104D01*
X161576666Y-74049104D02*
X161529047Y-74191961D01*
X161529047Y-74191961D02*
X161433809Y-74287200D01*
X161433809Y-74287200D02*
X161290952Y-74334819D01*
X161290952Y-74334819D02*
X161195714Y-74334819D01*
X162529047Y-73334819D02*
X162052857Y-73334819D01*
X162052857Y-73334819D02*
X162005238Y-73811009D01*
X162005238Y-73811009D02*
X162052857Y-73763390D01*
X162052857Y-73763390D02*
X162148095Y-73715771D01*
X162148095Y-73715771D02*
X162386190Y-73715771D01*
X162386190Y-73715771D02*
X162481428Y-73763390D01*
X162481428Y-73763390D02*
X162529047Y-73811009D01*
X162529047Y-73811009D02*
X162576666Y-73906247D01*
X162576666Y-73906247D02*
X162576666Y-74144342D01*
X162576666Y-74144342D02*
X162529047Y-74239580D01*
X162529047Y-74239580D02*
X162481428Y-74287200D01*
X162481428Y-74287200D02*
X162386190Y-74334819D01*
X162386190Y-74334819D02*
X162148095Y-74334819D01*
X162148095Y-74334819D02*
X162052857Y-74287200D01*
X162052857Y-74287200D02*
X162005238Y-74239580D01*
X190279580Y-72778857D02*
X190327200Y-72826476D01*
X190327200Y-72826476D02*
X190374819Y-72969333D01*
X190374819Y-72969333D02*
X190374819Y-73064571D01*
X190374819Y-73064571D02*
X190327200Y-73207428D01*
X190327200Y-73207428D02*
X190231961Y-73302666D01*
X190231961Y-73302666D02*
X190136723Y-73350285D01*
X190136723Y-73350285D02*
X189946247Y-73397904D01*
X189946247Y-73397904D02*
X189803390Y-73397904D01*
X189803390Y-73397904D02*
X189612914Y-73350285D01*
X189612914Y-73350285D02*
X189517676Y-73302666D01*
X189517676Y-73302666D02*
X189422438Y-73207428D01*
X189422438Y-73207428D02*
X189374819Y-73064571D01*
X189374819Y-73064571D02*
X189374819Y-72969333D01*
X189374819Y-72969333D02*
X189422438Y-72826476D01*
X189422438Y-72826476D02*
X189470057Y-72778857D01*
X190374819Y-71826476D02*
X190374819Y-72397904D01*
X190374819Y-72112190D02*
X189374819Y-72112190D01*
X189374819Y-72112190D02*
X189517676Y-72207428D01*
X189517676Y-72207428D02*
X189612914Y-72302666D01*
X189612914Y-72302666D02*
X189660533Y-72397904D01*
X189374819Y-70969333D02*
X189374819Y-71159809D01*
X189374819Y-71159809D02*
X189422438Y-71255047D01*
X189422438Y-71255047D02*
X189470057Y-71302666D01*
X189470057Y-71302666D02*
X189612914Y-71397904D01*
X189612914Y-71397904D02*
X189803390Y-71445523D01*
X189803390Y-71445523D02*
X190184342Y-71445523D01*
X190184342Y-71445523D02*
X190279580Y-71397904D01*
X190279580Y-71397904D02*
X190327200Y-71350285D01*
X190327200Y-71350285D02*
X190374819Y-71255047D01*
X190374819Y-71255047D02*
X190374819Y-71064571D01*
X190374819Y-71064571D02*
X190327200Y-70969333D01*
X190327200Y-70969333D02*
X190279580Y-70921714D01*
X190279580Y-70921714D02*
X190184342Y-70874095D01*
X190184342Y-70874095D02*
X189946247Y-70874095D01*
X189946247Y-70874095D02*
X189851009Y-70921714D01*
X189851009Y-70921714D02*
X189803390Y-70969333D01*
X189803390Y-70969333D02*
X189755771Y-71064571D01*
X189755771Y-71064571D02*
X189755771Y-71255047D01*
X189755771Y-71255047D02*
X189803390Y-71350285D01*
X189803390Y-71350285D02*
X189851009Y-71397904D01*
X189851009Y-71397904D02*
X189946247Y-71445523D01*
X152486333Y-73983580D02*
X152438714Y-74031200D01*
X152438714Y-74031200D02*
X152295857Y-74078819D01*
X152295857Y-74078819D02*
X152200619Y-74078819D01*
X152200619Y-74078819D02*
X152057762Y-74031200D01*
X152057762Y-74031200D02*
X151962524Y-73935961D01*
X151962524Y-73935961D02*
X151914905Y-73840723D01*
X151914905Y-73840723D02*
X151867286Y-73650247D01*
X151867286Y-73650247D02*
X151867286Y-73507390D01*
X151867286Y-73507390D02*
X151914905Y-73316914D01*
X151914905Y-73316914D02*
X151962524Y-73221676D01*
X151962524Y-73221676D02*
X152057762Y-73126438D01*
X152057762Y-73126438D02*
X152200619Y-73078819D01*
X152200619Y-73078819D02*
X152295857Y-73078819D01*
X152295857Y-73078819D02*
X152438714Y-73126438D01*
X152438714Y-73126438D02*
X152486333Y-73174057D01*
X152962524Y-74078819D02*
X153153000Y-74078819D01*
X153153000Y-74078819D02*
X153248238Y-74031200D01*
X153248238Y-74031200D02*
X153295857Y-73983580D01*
X153295857Y-73983580D02*
X153391095Y-73840723D01*
X153391095Y-73840723D02*
X153438714Y-73650247D01*
X153438714Y-73650247D02*
X153438714Y-73269295D01*
X153438714Y-73269295D02*
X153391095Y-73174057D01*
X153391095Y-73174057D02*
X153343476Y-73126438D01*
X153343476Y-73126438D02*
X153248238Y-73078819D01*
X153248238Y-73078819D02*
X153057762Y-73078819D01*
X153057762Y-73078819D02*
X152962524Y-73126438D01*
X152962524Y-73126438D02*
X152914905Y-73174057D01*
X152914905Y-73174057D02*
X152867286Y-73269295D01*
X152867286Y-73269295D02*
X152867286Y-73507390D01*
X152867286Y-73507390D02*
X152914905Y-73602628D01*
X152914905Y-73602628D02*
X152962524Y-73650247D01*
X152962524Y-73650247D02*
X153057762Y-73697866D01*
X153057762Y-73697866D02*
X153248238Y-73697866D01*
X153248238Y-73697866D02*
X153343476Y-73650247D01*
X153343476Y-73650247D02*
X153391095Y-73602628D01*
X153391095Y-73602628D02*
X153438714Y-73507390D01*
D13*
%TO.C,U2*%
X147522499Y-71983600D02*
X147103338Y-71983600D01*
X142683860Y-71983600D02*
X142264699Y-71983600D01*
X142264699Y-71983600D02*
X142264699Y-72402761D01*
X147522499Y-72402761D02*
X147522499Y-71983600D01*
X142264699Y-76822239D02*
X142264699Y-77241400D01*
X147522499Y-77241400D02*
X147522499Y-76822239D01*
X147103338Y-77241400D02*
X147522499Y-77241400D01*
X142264699Y-77241400D02*
X142683860Y-77241400D01*
D14*
G36*
X141832899Y-73553000D02*
G01*
X141578899Y-73553000D01*
X141578899Y-73172000D01*
X141832899Y-73172000D01*
X141832899Y-73553000D01*
G37*
G36*
X148208299Y-74052999D02*
G01*
X147954299Y-74052999D01*
X147954299Y-73671999D01*
X148208299Y-73671999D01*
X148208299Y-74052999D01*
G37*
G36*
X144834100Y-77927200D02*
G01*
X144453099Y-77927200D01*
X144453099Y-77673200D01*
X144834100Y-77673200D01*
X144834100Y-77927200D01*
G37*
%TO.C,G\u002A\u002A\u002A*%
G36*
X175253249Y-45146721D02*
G01*
X175268001Y-45205948D01*
X175200228Y-45318196D01*
X175141001Y-45332948D01*
X175028752Y-45265175D01*
X175014001Y-45205948D01*
X175081774Y-45093699D01*
X175141001Y-45078948D01*
X175253249Y-45146721D01*
G37*
G36*
X175214744Y-45456628D02*
G01*
X175254336Y-45594929D01*
X175267750Y-45864406D01*
X175268001Y-45925615D01*
X175258247Y-46220587D01*
X175223672Y-46378956D01*
X175156303Y-46432613D01*
X175141001Y-46433615D01*
X175067258Y-46394601D01*
X175027665Y-46256300D01*
X175014251Y-45986823D01*
X175014001Y-45925615D01*
X175023754Y-45630642D01*
X175058329Y-45472273D01*
X175125699Y-45418616D01*
X175141001Y-45417615D01*
X175214744Y-45456628D01*
G37*
G36*
X178592830Y-45110851D02*
G01*
X178631937Y-45226603D01*
X178650625Y-45456273D01*
X178654668Y-45756281D01*
X178648686Y-46103815D01*
X178626982Y-46312383D01*
X178583919Y-46412052D01*
X178527668Y-46433615D01*
X178462505Y-46401712D01*
X178423398Y-46285959D01*
X178404710Y-46056289D01*
X178400668Y-45756281D01*
X178406649Y-45408747D01*
X178428353Y-45200179D01*
X178471416Y-45100510D01*
X178527668Y-45078948D01*
X178592830Y-45110851D01*
G37*
G36*
X183820726Y-45444317D02*
G01*
X183900002Y-45509204D01*
X183831796Y-45589442D01*
X183734668Y-45629281D01*
X183624698Y-45700060D01*
X183574823Y-45851779D01*
X183565334Y-46058320D01*
X183548219Y-46307368D01*
X183490193Y-46419535D01*
X183438334Y-46433615D01*
X183364591Y-46394601D01*
X183324999Y-46256300D01*
X183311585Y-45986823D01*
X183311334Y-45925615D01*
X183311334Y-45417615D01*
X183607668Y-45417615D01*
X183820726Y-45444317D01*
G37*
G36*
X179530237Y-45115688D02*
G01*
X179569830Y-45246970D01*
X179585071Y-45504383D01*
X179586001Y-45629281D01*
X179586001Y-46179615D01*
X179882334Y-46179615D01*
X180101507Y-46207154D01*
X180178132Y-46295048D01*
X180178668Y-46306615D01*
X180133348Y-46386480D01*
X179976440Y-46425488D01*
X179755334Y-46433615D01*
X179332001Y-46433615D01*
X179332001Y-45756281D01*
X179337983Y-45408747D01*
X179359686Y-45200179D01*
X179402749Y-45100510D01*
X179459001Y-45078948D01*
X179530237Y-45115688D01*
G37*
G36*
X169065899Y-43473336D02*
G01*
X169447168Y-43634153D01*
X169634174Y-43759090D01*
X169728208Y-43881649D01*
X169761056Y-44065171D01*
X169764668Y-44266795D01*
X169740417Y-44606597D01*
X169644754Y-44842827D01*
X169443307Y-45035640D01*
X169256668Y-45155929D01*
X169034760Y-45278032D01*
X168872952Y-45316125D01*
X168699488Y-45270508D01*
X168476115Y-45159191D01*
X168211889Y-44984592D01*
X168060556Y-44775673D01*
X167995444Y-44482683D01*
X167986668Y-44246210D01*
X167996862Y-43987279D01*
X168050386Y-43831110D01*
X168181652Y-43711366D01*
X168304168Y-43634153D01*
X168692143Y-43471877D01*
X169065899Y-43473336D01*
G37*
G36*
X174790747Y-42731868D02*
G01*
X174944618Y-42759895D01*
X175005818Y-42821393D01*
X175014001Y-42886081D01*
X174949366Y-43022312D01*
X174851592Y-43046948D01*
X174642963Y-43063069D01*
X174514879Y-43133059D01*
X174448184Y-43289362D01*
X174423725Y-43564420D01*
X174421334Y-43775673D01*
X174418603Y-44095839D01*
X174402313Y-44282600D01*
X174360315Y-44371877D01*
X174280464Y-44399592D01*
X174209668Y-44401615D01*
X174113222Y-44396379D01*
X174051690Y-44359957D01*
X174017227Y-44261278D01*
X174001986Y-44069270D01*
X173998120Y-43752862D01*
X173998001Y-43563415D01*
X173998001Y-42725215D01*
X174506001Y-42725215D01*
X174790747Y-42731868D01*
G37*
G36*
X177067229Y-45434770D02*
G01*
X177209978Y-45509133D01*
X177278920Y-45675046D01*
X177299454Y-45966851D01*
X177300001Y-46059539D01*
X177281535Y-46311574D01*
X177220673Y-46422816D01*
X177177640Y-46433615D01*
X177091292Y-46368959D01*
X177041202Y-46162858D01*
X177029473Y-46031448D01*
X176994308Y-45765983D01*
X176926981Y-45644032D01*
X176876668Y-45629281D01*
X176779638Y-45700720D01*
X176717875Y-45923426D01*
X176707334Y-46003706D01*
X176652895Y-46291321D01*
X176584101Y-46416932D01*
X176517194Y-46385082D01*
X176468416Y-46200313D01*
X176453334Y-45932670D01*
X176453334Y-45417615D01*
X176825276Y-45417615D01*
X177067229Y-45434770D01*
G37*
G36*
X176075218Y-45442039D02*
G01*
X176220003Y-45539416D01*
X176277418Y-45745901D01*
X176284001Y-45925615D01*
X176261176Y-46210198D01*
X176170178Y-46365131D01*
X175977218Y-46426570D01*
X175809276Y-46433615D01*
X175437334Y-46433615D01*
X175437334Y-45925615D01*
X175437334Y-45825939D01*
X175621139Y-45825939D01*
X175625162Y-46084097D01*
X175715566Y-46229372D01*
X175839245Y-46248212D01*
X175948387Y-46169774D01*
X175986999Y-45969529D01*
X175987668Y-45924455D01*
X175968563Y-45720703D01*
X175894062Y-45638737D01*
X175818334Y-45629281D01*
X175667569Y-45698130D01*
X175621139Y-45825939D01*
X175437334Y-45825939D01*
X175437334Y-45417615D01*
X175809276Y-45417615D01*
X176075218Y-45442039D01*
G37*
G36*
X186235218Y-45442039D02*
G01*
X186380003Y-45539416D01*
X186437418Y-45745901D01*
X186444001Y-45925615D01*
X186421176Y-46210198D01*
X186330178Y-46365131D01*
X186137218Y-46426570D01*
X185969276Y-46433615D01*
X185597334Y-46433615D01*
X185597334Y-45925615D01*
X185597334Y-45825939D01*
X185781139Y-45825939D01*
X185785162Y-46084097D01*
X185875566Y-46229372D01*
X185999245Y-46248212D01*
X186108387Y-46169774D01*
X186146999Y-45969529D01*
X186147668Y-45924455D01*
X186128563Y-45720703D01*
X186054062Y-45638737D01*
X185978334Y-45629281D01*
X185827569Y-45698130D01*
X185781139Y-45825939D01*
X185597334Y-45825939D01*
X185597334Y-45417615D01*
X185969276Y-45417615D01*
X186235218Y-45442039D01*
G37*
G36*
X183099668Y-45925615D02*
G01*
X183099668Y-46391281D01*
X182739060Y-46417354D01*
X182474999Y-46413176D01*
X182345649Y-46347526D01*
X182331551Y-46321207D01*
X182308161Y-46164343D01*
X182306260Y-45919388D01*
X182309334Y-45862962D01*
X182549334Y-45862962D01*
X182564994Y-46074942D01*
X182603138Y-46204372D01*
X182607543Y-46209601D01*
X182722597Y-46251403D01*
X182809235Y-46150650D01*
X182845564Y-45933995D01*
X182845668Y-45919718D01*
X182815000Y-45699258D01*
X182713083Y-45606688D01*
X182697501Y-45603066D01*
X182594869Y-45618422D01*
X182553633Y-45743681D01*
X182549334Y-45862962D01*
X182309334Y-45862962D01*
X182311159Y-45829467D01*
X182337668Y-45459948D01*
X182718668Y-45459948D01*
X183099668Y-45459948D01*
X183099668Y-45925615D01*
G37*
G36*
X173089497Y-45110851D02*
G01*
X173128603Y-45226603D01*
X173147291Y-45456273D01*
X173151334Y-45756281D01*
X173136472Y-46146378D01*
X173088010Y-46372628D01*
X173000130Y-46438222D01*
X172867017Y-46346351D01*
X172682854Y-46100207D01*
X172641469Y-46036038D01*
X172389334Y-45638462D01*
X172389334Y-46036038D01*
X172374022Y-46293133D01*
X172321552Y-46413802D01*
X172262334Y-46433615D01*
X172197172Y-46401712D01*
X172158065Y-46285959D01*
X172139377Y-46056289D01*
X172135334Y-45756281D01*
X172149252Y-45367393D01*
X172194859Y-45143148D01*
X172277934Y-45080850D01*
X172404258Y-45177804D01*
X172579611Y-45431313D01*
X172634478Y-45523448D01*
X172893598Y-45967948D01*
X172895466Y-45523448D01*
X172909188Y-45249490D01*
X172953475Y-45112020D01*
X173024334Y-45078948D01*
X173089497Y-45110851D01*
G37*
G36*
X174581115Y-45232191D02*
G01*
X174590668Y-45290615D01*
X174658440Y-45402863D01*
X174717668Y-45417615D01*
X174830339Y-45463332D01*
X174844668Y-45502281D01*
X174780238Y-45584488D01*
X174760001Y-45586948D01*
X174703658Y-45661286D01*
X174675932Y-45843689D01*
X174675334Y-45878284D01*
X174697769Y-46089174D01*
X174752531Y-46216199D01*
X174760001Y-46221948D01*
X174844562Y-46325309D01*
X174781704Y-46407281D01*
X174633001Y-46433615D01*
X174506592Y-46419579D01*
X174444027Y-46348382D01*
X174423118Y-46176389D01*
X174421334Y-46017337D01*
X174400221Y-45741180D01*
X174343196Y-45576023D01*
X174315501Y-45551670D01*
X174253237Y-45496067D01*
X174315501Y-45452892D01*
X174412987Y-45334017D01*
X174421334Y-45283559D01*
X174469375Y-45175491D01*
X174506001Y-45163615D01*
X174581115Y-45232191D01*
G37*
G36*
X185243916Y-45231387D02*
G01*
X185258668Y-45290615D01*
X185326440Y-45402863D01*
X185385668Y-45417615D01*
X185498339Y-45463332D01*
X185512668Y-45502281D01*
X185444091Y-45577396D01*
X185385668Y-45586948D01*
X185292125Y-45650599D01*
X185258977Y-45854336D01*
X185258668Y-45885938D01*
X185295042Y-46126036D01*
X185385668Y-46233663D01*
X185497706Y-46316770D01*
X185512668Y-46358006D01*
X185443044Y-46413231D01*
X185288052Y-46432528D01*
X185128507Y-46412468D01*
X185061112Y-46377170D01*
X185026118Y-46264164D01*
X185006323Y-46048955D01*
X185004668Y-45960892D01*
X184981274Y-45719161D01*
X184921264Y-45569565D01*
X184898834Y-45551670D01*
X184836570Y-45496067D01*
X184898834Y-45452892D01*
X184996320Y-45334017D01*
X185004668Y-45283559D01*
X185072594Y-45177469D01*
X185131668Y-45163615D01*
X185243916Y-45231387D01*
G37*
G36*
X173775893Y-45434437D02*
G01*
X174125001Y-45459948D01*
X174150393Y-45946781D01*
X174175785Y-46433615D01*
X173787902Y-46433615D01*
X173494034Y-46405698D01*
X173357651Y-46321487D01*
X173353183Y-46311560D01*
X173332368Y-46094948D01*
X173574668Y-46094948D01*
X173645580Y-46163738D01*
X173744001Y-46179615D01*
X173881581Y-46144158D01*
X173913334Y-46094948D01*
X173842422Y-46026158D01*
X173744001Y-46010281D01*
X173606420Y-46045737D01*
X173574668Y-46094948D01*
X173332368Y-46094948D01*
X173330220Y-46072591D01*
X173460642Y-45898446D01*
X173638297Y-45822709D01*
X173824362Y-45752683D01*
X173912282Y-45676668D01*
X173913334Y-45669194D01*
X173854211Y-45592800D01*
X173695600Y-45625991D01*
X173577369Y-45689576D01*
X173411266Y-45752531D01*
X173344674Y-45685854D01*
X173371733Y-45552389D01*
X173455856Y-45457988D01*
X173636926Y-45428765D01*
X173775893Y-45434437D01*
G37*
G36*
X181510341Y-45149106D02*
G01*
X181533334Y-45242917D01*
X181580826Y-45367118D01*
X181748243Y-45426224D01*
X181808501Y-45433417D01*
X181965818Y-45455937D01*
X182047689Y-45513687D01*
X182078758Y-45650746D01*
X182083667Y-45911192D01*
X182083668Y-45925615D01*
X182083668Y-46391281D01*
X181681501Y-46417087D01*
X181279334Y-46442892D01*
X181279334Y-45925615D01*
X181533334Y-45925615D01*
X181559945Y-46111535D01*
X181658956Y-46176994D01*
X181702668Y-46179615D01*
X181826614Y-46139699D01*
X181870254Y-45991182D01*
X181872001Y-45925615D01*
X181845390Y-45739694D01*
X181746379Y-45674235D01*
X181702668Y-45671615D01*
X181578721Y-45711530D01*
X181535081Y-45860047D01*
X181533334Y-45925615D01*
X181279334Y-45925615D01*
X181279334Y-45760920D01*
X181285250Y-45412027D01*
X181306721Y-45202169D01*
X181349337Y-45101340D01*
X181406334Y-45078948D01*
X181510341Y-45149106D01*
G37*
G36*
X177795681Y-45431582D02*
G01*
X177829168Y-45433913D01*
X178189001Y-45459948D01*
X178214393Y-45946781D01*
X178239785Y-46433615D01*
X177851902Y-46433615D01*
X177558034Y-46405698D01*
X177421651Y-46321487D01*
X177417183Y-46311560D01*
X177396368Y-46094948D01*
X177638668Y-46094948D01*
X177709580Y-46163738D01*
X177808001Y-46179615D01*
X177945581Y-46144158D01*
X177977334Y-46094948D01*
X177906422Y-46026158D01*
X177808001Y-46010281D01*
X177670420Y-46045737D01*
X177638668Y-46094948D01*
X177396368Y-46094948D01*
X177394220Y-46072591D01*
X177524642Y-45898446D01*
X177702297Y-45822709D01*
X177888362Y-45752683D01*
X177976282Y-45676668D01*
X177977334Y-45669194D01*
X177915472Y-45597653D01*
X177787775Y-45598653D01*
X177681082Y-45671483D01*
X177681001Y-45671615D01*
X177574314Y-45755073D01*
X177489384Y-45692479D01*
X177469334Y-45582080D01*
X177490633Y-45473515D01*
X177584452Y-45429510D01*
X177795681Y-45431582D01*
G37*
G36*
X187416524Y-45465451D02*
G01*
X187494782Y-45575851D01*
X187551252Y-45733807D01*
X187656498Y-46052615D01*
X187756245Y-45756281D01*
X187862967Y-45548167D01*
X187992697Y-45434752D01*
X188009016Y-45430194D01*
X188120798Y-45446075D01*
X188118882Y-45514861D01*
X188068962Y-45650029D01*
X187981123Y-45890271D01*
X187883517Y-46158448D01*
X187755270Y-46460851D01*
X187637611Y-46644153D01*
X187566598Y-46687615D01*
X187480253Y-46630268D01*
X187487822Y-46567902D01*
X187490252Y-46427897D01*
X187447000Y-46206259D01*
X187375199Y-45958352D01*
X187291981Y-45739539D01*
X187214477Y-45605183D01*
X187184274Y-45586948D01*
X186954511Y-45659194D01*
X186816678Y-45863160D01*
X186782668Y-46097927D01*
X186763734Y-46308897D01*
X186716482Y-46425504D01*
X186698001Y-46433615D01*
X186652622Y-46356719D01*
X186621956Y-46156840D01*
X186613334Y-45939043D01*
X186613334Y-45444471D01*
X187029670Y-45429735D01*
X187279961Y-45427517D01*
X187416524Y-45465451D01*
G37*
G36*
X181093059Y-45946781D02*
G01*
X181118451Y-46433615D01*
X180747337Y-46433615D01*
X180508403Y-46421739D01*
X180347369Y-46391886D01*
X180319779Y-46377170D01*
X180278420Y-46258746D01*
X180267448Y-46129355D01*
X180517334Y-46129355D01*
X180579567Y-46212551D01*
X180686668Y-46204147D01*
X180823923Y-46137132D01*
X180856001Y-46085073D01*
X180785002Y-46024279D01*
X180686668Y-46010281D01*
X180549361Y-46059879D01*
X180517334Y-46129355D01*
X180267448Y-46129355D01*
X180263334Y-46080837D01*
X180291320Y-45903831D01*
X180400505Y-45842601D01*
X180453834Y-45839651D01*
X180664853Y-45804344D01*
X180768961Y-45759539D01*
X180841595Y-45688862D01*
X180762701Y-45630938D01*
X180731706Y-45618603D01*
X180581094Y-45607513D01*
X180536523Y-45656382D01*
X180447471Y-45749900D01*
X180334059Y-45739727D01*
X180276517Y-45640929D01*
X180279452Y-45608115D01*
X180339564Y-45511539D01*
X180497789Y-45467462D01*
X180687827Y-45459948D01*
X181067668Y-45459948D01*
X181093059Y-45946781D01*
G37*
G36*
X184604608Y-45437036D02*
G01*
X184748096Y-45518844D01*
X184816491Y-45708542D01*
X184834038Y-46020386D01*
X184835334Y-46411492D01*
X184421422Y-46420817D01*
X184158704Y-46413408D01*
X184021929Y-46367455D01*
X183972538Y-46283712D01*
X183964299Y-46094948D01*
X184200334Y-46094948D01*
X184225567Y-46162216D01*
X184317341Y-46179615D01*
X184481498Y-46141833D01*
X184539001Y-46094948D01*
X184513768Y-46027680D01*
X184421994Y-46010281D01*
X184257837Y-46048063D01*
X184200334Y-46094948D01*
X183964299Y-46094948D01*
X183961480Y-46030369D01*
X184059191Y-45874998D01*
X184185376Y-45839651D01*
X184395113Y-45803120D01*
X184494295Y-45759539D01*
X184566928Y-45688862D01*
X184488034Y-45630938D01*
X184457039Y-45618603D01*
X184306427Y-45607513D01*
X184261856Y-45656382D01*
X184172729Y-45749867D01*
X184059162Y-45739583D01*
X184001487Y-45640585D01*
X184004330Y-45608115D01*
X184090283Y-45495084D01*
X184310356Y-45437902D01*
X184361754Y-45432922D01*
X184604608Y-45437036D01*
G37*
G36*
X177933818Y-42739202D02*
G01*
X178109810Y-42794326D01*
X178129734Y-42809881D01*
X178184951Y-42951761D01*
X178220382Y-43226639D01*
X178231334Y-43554948D01*
X178217651Y-43918338D01*
X178179843Y-44180544D01*
X178129734Y-44300015D01*
X177993147Y-44356386D01*
X177749902Y-44393278D01*
X177554001Y-44401615D01*
X177273745Y-44384425D01*
X177057362Y-44340207D01*
X176978268Y-44300015D01*
X176923051Y-44158135D01*
X176887619Y-43883257D01*
X176876668Y-43554948D01*
X176876934Y-43547892D01*
X176890351Y-43191557D01*
X176911202Y-43046948D01*
X177215334Y-43046948D01*
X177215334Y-43547892D01*
X177244373Y-43894819D01*
X177339255Y-44093076D01*
X177511634Y-44154420D01*
X177758743Y-44096223D01*
X177839571Y-44017712D01*
X177881405Y-43838349D01*
X177892668Y-43545889D01*
X177892668Y-43046948D01*
X177554001Y-43046948D01*
X177215334Y-43046948D01*
X176911202Y-43046948D01*
X176928159Y-42929351D01*
X176978268Y-42809881D01*
X177126913Y-42748535D01*
X177378379Y-42716307D01*
X177668677Y-42713196D01*
X177933818Y-42739202D01*
G37*
G36*
X183712359Y-42729372D02*
G01*
X183797600Y-42816760D01*
X183876023Y-43006621D01*
X183944517Y-43237448D01*
X184028489Y-43524244D01*
X184101301Y-43747742D01*
X184143238Y-43851281D01*
X184189541Y-43819065D01*
X184265299Y-43656660D01*
X184355549Y-43397286D01*
X184372053Y-43343281D01*
X184478006Y-43021860D01*
X184569866Y-42833023D01*
X184667172Y-42743392D01*
X184734823Y-42723559D01*
X184880263Y-42728725D01*
X184921191Y-42765893D01*
X184895294Y-42871014D01*
X184824660Y-43097401D01*
X184721512Y-43406853D01*
X184648421Y-43618448D01*
X184515155Y-43984887D01*
X184413935Y-44217656D01*
X184327972Y-44345221D01*
X184240477Y-44396051D01*
X184186560Y-44401615D01*
X184014405Y-44366850D01*
X183945513Y-44315620D01*
X183901752Y-44211642D01*
X183821061Y-43994367D01*
X183718687Y-43707655D01*
X183609877Y-43395367D01*
X183509874Y-43101363D01*
X183433926Y-42869502D01*
X183397277Y-42743645D01*
X183396001Y-42734732D01*
X183468363Y-42714428D01*
X183596511Y-42708281D01*
X183712359Y-42729372D01*
G37*
G36*
X176240484Y-42739202D02*
G01*
X176416477Y-42794326D01*
X176436401Y-42809881D01*
X176491618Y-42951761D01*
X176527049Y-43226639D01*
X176538001Y-43554948D01*
X176524317Y-43918338D01*
X176486510Y-44180544D01*
X176436401Y-44300015D01*
X176299814Y-44356386D01*
X176056568Y-44393278D01*
X175860668Y-44401615D01*
X175580411Y-44384425D01*
X175364028Y-44340207D01*
X175284934Y-44300015D01*
X175229979Y-44159526D01*
X175196085Y-43905056D01*
X175183253Y-43590643D01*
X175184351Y-43547892D01*
X175191481Y-43270323D01*
X175215518Y-43046948D01*
X175522001Y-43046948D01*
X175522001Y-43547892D01*
X175551039Y-43894819D01*
X175645922Y-44093076D01*
X175818301Y-44154420D01*
X176065409Y-44096223D01*
X176146238Y-44017712D01*
X176188071Y-43838349D01*
X176199334Y-43545889D01*
X176199334Y-43046948D01*
X175860668Y-43046948D01*
X175522001Y-43046948D01*
X175215518Y-43046948D01*
X175220771Y-42998135D01*
X175271123Y-42828116D01*
X175284934Y-42809881D01*
X175433579Y-42748535D01*
X175685046Y-42716307D01*
X175975344Y-42713196D01*
X176240484Y-42739202D01*
G37*
G36*
X178819017Y-42131991D02*
G01*
X178871235Y-42203517D01*
X178901905Y-42363783D01*
X178920366Y-42646383D01*
X178926410Y-42800804D01*
X178951001Y-43485993D01*
X179241903Y-43097137D01*
X179477013Y-42830440D01*
X179673601Y-42714964D01*
X179728737Y-42708281D01*
X179892105Y-42740453D01*
X179900956Y-42838442D01*
X179757496Y-43002658D01*
X179597394Y-43189129D01*
X179548178Y-43385581D01*
X179609935Y-43632688D01*
X179759504Y-43930298D01*
X180025498Y-44401615D01*
X179804649Y-44401615D01*
X179651257Y-44369825D01*
X179526351Y-44249425D01*
X179397156Y-44017444D01*
X179210512Y-43633274D01*
X179061472Y-43826944D01*
X178948715Y-44037950D01*
X178910550Y-44211115D01*
X178859003Y-44366192D01*
X178739334Y-44401615D01*
X178671292Y-44392560D01*
X178624410Y-44347737D01*
X178594765Y-44240652D01*
X178578432Y-44044816D01*
X178571486Y-43733738D01*
X178570002Y-43280925D01*
X178570001Y-43258615D01*
X178571420Y-42799105D01*
X178578237Y-42482469D01*
X178594291Y-42282254D01*
X178623422Y-42172009D01*
X178669470Y-42125280D01*
X178735910Y-42115615D01*
X178819017Y-42131991D01*
G37*
G36*
X173143127Y-42210803D02*
G01*
X173412744Y-42256809D01*
X173571243Y-42359956D01*
X173647449Y-42541904D01*
X173670187Y-42824310D01*
X173670882Y-42904559D01*
X173673695Y-43272062D01*
X173679721Y-43645469D01*
X173684442Y-43834672D01*
X173666856Y-44144891D01*
X173588437Y-44308262D01*
X173572290Y-44320209D01*
X173431316Y-44358214D01*
X173172727Y-44386551D01*
X172848186Y-44399918D01*
X172791501Y-44400318D01*
X172135334Y-44401615D01*
X172135334Y-44062948D01*
X172474001Y-44062948D01*
X172897334Y-44062948D01*
X173320668Y-44062948D01*
X173320668Y-43766615D01*
X173320668Y-43470281D01*
X172897334Y-43470281D01*
X172474001Y-43470281D01*
X172474001Y-43766615D01*
X172474001Y-44062948D01*
X172135334Y-44062948D01*
X172135334Y-43766615D01*
X172135334Y-43300948D01*
X172135334Y-43140892D01*
X172474001Y-43140892D01*
X172876168Y-43115087D01*
X173118843Y-43092267D01*
X173236954Y-43044134D01*
X173275170Y-42939610D01*
X173278334Y-42835281D01*
X173266858Y-42681276D01*
X173202647Y-42602560D01*
X173041033Y-42568053D01*
X172876168Y-42555476D01*
X172474001Y-42529670D01*
X172474001Y-42835281D01*
X172474001Y-43140892D01*
X172135334Y-43140892D01*
X172135334Y-42835281D01*
X172135334Y-42200281D01*
X172733567Y-42200281D01*
X173143127Y-42210803D01*
G37*
G36*
X187089458Y-42750726D02*
G01*
X187121334Y-42809881D01*
X187146325Y-42868786D01*
X187222934Y-42809881D01*
X187390074Y-42735229D01*
X187636808Y-42711321D01*
X187881179Y-42738155D01*
X188035734Y-42809881D01*
X188090345Y-42953932D01*
X188125123Y-43243659D01*
X188137334Y-43656269D01*
X188137334Y-43656548D01*
X188134383Y-44013777D01*
X188120592Y-44234281D01*
X188088561Y-44350633D01*
X188030884Y-44395409D01*
X187968001Y-44401615D01*
X187883632Y-44387474D01*
X187833067Y-44322343D01*
X187807792Y-44172161D01*
X187799291Y-43902865D01*
X187798668Y-43724281D01*
X187796235Y-43388273D01*
X187781981Y-43187067D01*
X187745467Y-43086136D01*
X187676259Y-43050956D01*
X187593926Y-43046948D01*
X187365310Y-43060812D01*
X187225039Y-43124243D01*
X187151869Y-43269997D01*
X187124558Y-43530831D01*
X187121334Y-43775673D01*
X187117223Y-44097550D01*
X187098518Y-44285490D01*
X187055665Y-44374817D01*
X186979107Y-44400853D01*
X186952001Y-44401615D01*
X186874931Y-44389994D01*
X186825594Y-44334701D01*
X186797860Y-44205085D01*
X186785599Y-43970499D01*
X186782681Y-43600292D01*
X186782668Y-43554948D01*
X186784992Y-43169598D01*
X186796050Y-42922912D01*
X186821973Y-42784242D01*
X186868891Y-42722937D01*
X186942932Y-42708350D01*
X186952001Y-42708281D01*
X187089458Y-42750726D01*
G37*
G36*
X180452045Y-42139405D02*
G01*
X180502374Y-42239114D01*
X180517076Y-42457246D01*
X180517334Y-42513548D01*
X180526473Y-42748445D01*
X180559195Y-42837945D01*
X180618934Y-42809881D01*
X180786074Y-42735229D01*
X181032808Y-42711321D01*
X181277179Y-42738155D01*
X181431734Y-42809881D01*
X181486345Y-42953932D01*
X181521123Y-43243659D01*
X181533334Y-43656269D01*
X181533334Y-43656548D01*
X181530383Y-44013777D01*
X181516592Y-44234281D01*
X181484561Y-44350633D01*
X181426884Y-44395409D01*
X181364001Y-44401615D01*
X181279632Y-44387474D01*
X181229067Y-44322343D01*
X181203792Y-44172161D01*
X181195291Y-43902865D01*
X181194668Y-43724281D01*
X181194668Y-43046948D01*
X180957601Y-43046948D01*
X180745931Y-43075673D01*
X180612755Y-43180692D01*
X180542098Y-43390273D01*
X180517981Y-43732684D01*
X180517334Y-43825881D01*
X180512501Y-44131946D01*
X180490811Y-44305466D01*
X180441474Y-44383120D01*
X180353704Y-44401587D01*
X180348001Y-44401615D01*
X180279958Y-44392560D01*
X180233077Y-44347737D01*
X180203432Y-44240652D01*
X180187099Y-44044816D01*
X180180152Y-43733738D01*
X180178669Y-43280925D01*
X180178668Y-43258615D01*
X180180009Y-42799328D01*
X180186649Y-42482879D01*
X180202514Y-42282774D01*
X180231526Y-42172524D01*
X180277612Y-42125638D01*
X180344696Y-42115623D01*
X180348001Y-42115615D01*
X180452045Y-42139405D01*
G37*
G36*
X182764020Y-42721252D02*
G01*
X183000406Y-42756935D01*
X183125068Y-42809881D01*
X183179744Y-42953783D01*
X183214575Y-43242316D01*
X183226668Y-43647246D01*
X183226668Y-44383011D01*
X182650404Y-44391783D01*
X182309165Y-44381592D01*
X182066261Y-44343184D01*
X181973071Y-44299485D01*
X181897918Y-44131967D01*
X181876268Y-43890087D01*
X182210668Y-43890087D01*
X182246821Y-44073570D01*
X182369947Y-44137399D01*
X182602042Y-44089936D01*
X182670822Y-44065043D01*
X182803670Y-43966506D01*
X182885042Y-43824687D01*
X182895731Y-43696695D01*
X182816527Y-43639640D01*
X182813918Y-43639615D01*
X182542463Y-43671252D01*
X182326151Y-43752109D01*
X182215763Y-43861098D01*
X182210668Y-43890087D01*
X181876268Y-43890087D01*
X181876066Y-43887833D01*
X181910306Y-43652091D01*
X181948939Y-43564553D01*
X182070794Y-43489465D01*
X182299605Y-43427615D01*
X182455643Y-43405614D01*
X182717923Y-43368765D01*
X182849194Y-43311842D01*
X182887767Y-43217114D01*
X182888001Y-43205509D01*
X182850135Y-43095158D01*
X182708455Y-43051136D01*
X182591668Y-43046948D01*
X182395800Y-43068213D01*
X182297894Y-43120503D01*
X182295334Y-43131615D01*
X182223128Y-43196144D01*
X182091594Y-43216281D01*
X181944868Y-43189629D01*
X181924509Y-43078030D01*
X181936001Y-43025781D01*
X182011388Y-42848600D01*
X182076241Y-42773078D01*
X182235615Y-42726997D01*
X182486982Y-42710497D01*
X182764020Y-42721252D01*
G37*
G36*
X186146484Y-42739202D02*
G01*
X186322477Y-42794326D01*
X186342401Y-42809881D01*
X186405789Y-42953341D01*
X186441269Y-43189052D01*
X186444001Y-43275548D01*
X186444001Y-43639615D01*
X185930377Y-43639615D01*
X185647637Y-43642858D01*
X185496629Y-43664578D01*
X185439750Y-43722757D01*
X185439401Y-43835378D01*
X185443544Y-43872448D01*
X185491329Y-44038341D01*
X185619568Y-44112680D01*
X185751900Y-44132289D01*
X185957148Y-44129232D01*
X186055472Y-44050483D01*
X186079274Y-43984123D01*
X186173659Y-43839425D01*
X186307700Y-43808755D01*
X186416880Y-43888654D01*
X186444001Y-44003681D01*
X186402028Y-44210447D01*
X186259860Y-44335553D01*
X185993122Y-44393319D01*
X185766668Y-44401615D01*
X185486411Y-44384425D01*
X185270028Y-44340207D01*
X185190934Y-44300015D01*
X185135717Y-44158135D01*
X185100286Y-43883257D01*
X185089334Y-43554948D01*
X185102087Y-43216281D01*
X185428001Y-43216281D01*
X185456401Y-43327065D01*
X185571190Y-43376027D01*
X185766668Y-43385615D01*
X185988236Y-43371414D01*
X186086160Y-43314020D01*
X186105334Y-43216281D01*
X186076934Y-43105497D01*
X185962145Y-43056535D01*
X185766668Y-43046948D01*
X185545099Y-43061148D01*
X185447175Y-43118542D01*
X185428001Y-43216281D01*
X185102087Y-43216281D01*
X185103018Y-43191557D01*
X185140825Y-42929351D01*
X185190934Y-42809881D01*
X185339579Y-42748535D01*
X185591046Y-42716307D01*
X185881344Y-42713196D01*
X186146484Y-42739202D01*
G37*
G36*
X168981933Y-41712875D02*
G01*
X169283881Y-41808850D01*
X169664739Y-41989087D01*
X170152280Y-42259785D01*
X170232106Y-42306115D01*
X171285730Y-42919948D01*
X171287199Y-44248727D01*
X171286456Y-44753336D01*
X171280575Y-45117459D01*
X171266014Y-45369931D01*
X171239230Y-45539592D01*
X171196682Y-45655280D01*
X171134827Y-45745832D01*
X171098168Y-45787813D01*
X170953969Y-45908755D01*
X170704632Y-46080893D01*
X170383574Y-46284771D01*
X170024211Y-46500937D01*
X169659959Y-46709937D01*
X169324235Y-46892316D01*
X169050454Y-47028620D01*
X168872034Y-47099397D01*
X168835538Y-47105039D01*
X168717956Y-47061089D01*
X168487307Y-46944958D01*
X168174704Y-46773268D01*
X167811260Y-46562643D01*
X167732668Y-46515787D01*
X167357385Y-46284124D01*
X167025423Y-46066580D01*
X166769470Y-45885461D01*
X166622214Y-45763070D01*
X166610834Y-45750316D01*
X166553406Y-45658298D01*
X166512718Y-45527742D01*
X166486043Y-45330909D01*
X166470653Y-45040055D01*
X166463820Y-44627439D01*
X166462668Y-44243452D01*
X166462667Y-42918715D01*
X166847118Y-42686498D01*
X167078533Y-42555349D01*
X167254544Y-42471152D01*
X167312785Y-42454281D01*
X167343271Y-42535551D01*
X167367656Y-42765915D01*
X167384723Y-43125205D01*
X167393252Y-43593250D01*
X167394001Y-43798581D01*
X167392730Y-44312415D01*
X167398374Y-44688184D01*
X167425116Y-44956999D01*
X167487142Y-45149972D01*
X167598636Y-45298214D01*
X167773781Y-45432837D01*
X168026763Y-45584954D01*
X168273531Y-45727726D01*
X168875668Y-46080170D01*
X169341334Y-45820814D01*
X169644351Y-45643691D01*
X169931977Y-45461973D01*
X170082168Y-45358228D01*
X170357334Y-45154997D01*
X170357334Y-44314708D01*
X170357334Y-43474418D01*
X169702938Y-43091350D01*
X169392468Y-42919237D01*
X169122961Y-42787192D01*
X168937209Y-42715510D01*
X168895231Y-42708281D01*
X168726701Y-42745484D01*
X168490766Y-42838528D01*
X168410001Y-42877615D01*
X168198547Y-42980645D01*
X168056966Y-43040678D01*
X168032374Y-43046948D01*
X168008120Y-42970062D01*
X167991547Y-42770457D01*
X167986668Y-42545853D01*
X167993104Y-42260813D01*
X168028014Y-42089448D01*
X168114799Y-41976176D01*
X168271828Y-41868520D01*
X168503679Y-41748909D01*
X168731123Y-41694961D01*
X168981933Y-41712875D01*
G37*
D12*
%TO.C,U8*%
X154041000Y-49170600D02*
X156741000Y-49170600D01*
X154041000Y-51870600D02*
X154041000Y-49170600D01*
X156741000Y-49170600D02*
X156741000Y-51870600D01*
X156741000Y-51870600D02*
X154041000Y-51870600D01*
X157011000Y-49300600D02*
G75*
G02*
X156811000Y-49300600I-100000J0D01*
G01*
X156811000Y-49300600D02*
G75*
G02*
X157011000Y-49300600I100000J0D01*
G01*
D13*
%TO.C,U3*%
X143809000Y-83640099D02*
X143809000Y-83904360D01*
X143809000Y-85129840D02*
X143809000Y-85404360D01*
X143809000Y-86629840D02*
X143809000Y-86904359D01*
X143809000Y-88129840D02*
X143809000Y-88394101D01*
X143809000Y-88394101D02*
X146513000Y-88394101D01*
X146513000Y-83640099D02*
X143809000Y-83640099D01*
X146513000Y-84655660D02*
X146513000Y-83640099D01*
X146513000Y-88394101D02*
X146513000Y-87378540D01*
X143163000Y-82497099D02*
G75*
G02*
X142909000Y-82497099I-127000J0D01*
G01*
X142909000Y-82497099D02*
G75*
G02*
X143163000Y-82497099I127000J0D01*
G01*
D12*
%TO.C,C17*%
X195122748Y-74782000D02*
X196545252Y-74782000D01*
X195122748Y-76602000D02*
X196545252Y-76602000D01*
%TO.C,R2*%
X149845500Y-78316858D02*
X149845500Y-77842342D01*
X150890500Y-78316858D02*
X150890500Y-77842342D01*
%TO.C,R5*%
X169911500Y-99297258D02*
X169911500Y-98822742D01*
X170956500Y-99297258D02*
X170956500Y-98822742D01*
D13*
%TO.C,U5*%
X141334300Y-97713800D02*
X141334300Y-98163060D01*
X141334300Y-101506340D02*
X141334300Y-101955600D01*
X141334300Y-101955600D02*
X141783560Y-101955600D01*
X141783560Y-97713800D02*
X141334300Y-97713800D01*
X145126840Y-101955600D02*
X145576100Y-101955600D01*
X145576100Y-97713800D02*
X145126840Y-97713800D01*
X145576100Y-98163060D02*
X145576100Y-97713800D01*
X145576100Y-101955600D02*
X145576100Y-101506340D01*
D14*
G36*
X140902500Y-100275200D02*
G01*
X140648500Y-100275200D01*
X140648500Y-99894199D01*
X140902500Y-99894199D01*
X140902500Y-100275200D01*
G37*
G36*
X146261900Y-100775201D02*
G01*
X146007900Y-100775201D01*
X146007900Y-100394201D01*
X146261900Y-100394201D01*
X146261900Y-100775201D01*
G37*
D12*
%TO.C,C6*%
X143101600Y-80580620D02*
X143101600Y-80861780D01*
X144121600Y-80580620D02*
X144121600Y-80861780D01*
%TO.C,C12*%
X183337252Y-74782000D02*
X181914748Y-74782000D01*
X183337252Y-76602000D02*
X181914748Y-76602000D01*
D13*
%TO.C,J4*%
X169405801Y-105705001D02*
X169405801Y-112258201D01*
X169405801Y-112258201D02*
X186322201Y-112258201D01*
X186322201Y-105705001D02*
X169405801Y-105705001D01*
X186322201Y-112258201D02*
X186322201Y-105705001D01*
D15*
X168897801Y-109982000D02*
G75*
G02*
X168135801Y-109982000I-381000J0D01*
G01*
X168135801Y-109982000D02*
G75*
G02*
X168897801Y-109982000I381000J0D01*
G01*
D12*
%TO.C,C1*%
X145840000Y-91679420D02*
X145840000Y-91960580D01*
X146860000Y-91679420D02*
X146860000Y-91960580D01*
%TO.C,C3*%
X148888000Y-91679420D02*
X148888000Y-91960580D01*
X149908000Y-91679420D02*
X149908000Y-91960580D01*
%TO.C,C10*%
X150240580Y-71260000D02*
X149959420Y-71260000D01*
X150240580Y-72280000D02*
X149959420Y-72280000D01*
D13*
%TO.C,U4*%
X153034299Y-54660800D02*
X153034299Y-55110060D01*
X153034299Y-58453340D02*
X153034299Y-58902600D01*
X153034299Y-58902600D02*
X153483559Y-58902600D01*
X153483559Y-54660800D02*
X153034299Y-54660800D01*
X156826839Y-58902600D02*
X157276099Y-58902600D01*
X157276099Y-54660800D02*
X156826839Y-54660800D01*
X157276099Y-55110060D02*
X157276099Y-54660800D01*
X157276099Y-58902600D02*
X157276099Y-58453340D01*
D14*
G36*
X152602499Y-57222200D02*
G01*
X152348499Y-57222200D01*
X152348499Y-56841199D01*
X152602499Y-56841199D01*
X152602499Y-57222200D01*
G37*
G36*
X157961899Y-57722201D02*
G01*
X157707899Y-57722201D01*
X157707899Y-57341201D01*
X157961899Y-57341201D01*
X157961899Y-57722201D01*
G37*
D13*
%TO.C,U7*%
X149339300Y-61912500D02*
X149339300Y-62621160D01*
X149339300Y-64378840D02*
X149339300Y-65161160D01*
X149339300Y-66918840D02*
X149339300Y-67701160D01*
X149339300Y-69458840D02*
X149339300Y-70167500D01*
X149339300Y-70167500D02*
X156070300Y-70167500D01*
X156070300Y-61912500D02*
X149339300Y-61912500D01*
X156070300Y-62621160D02*
X156070300Y-61912500D01*
X156070300Y-65161160D02*
X156070300Y-64378840D01*
X156070300Y-67701160D02*
X156070300Y-66918840D01*
X156070300Y-70167500D02*
X156070300Y-69458840D01*
X147866100Y-63500000D02*
G75*
G02*
X147713700Y-63500000I-76200J0D01*
G01*
X147713700Y-63500000D02*
G75*
G02*
X147866100Y-63500000I76200J0D01*
G01*
%TO.C,L2*%
X143884765Y-91770200D02*
X144481435Y-91770200D01*
X144481435Y-90398600D02*
X143884765Y-90398600D01*
D12*
%TO.C,C4*%
X146647780Y-68019200D02*
X146366620Y-68019200D01*
X146647780Y-69039200D02*
X146366620Y-69039200D01*
%TO.C,R6*%
X172109500Y-99297258D02*
X172109500Y-98822742D01*
X173154500Y-99297258D02*
X173154500Y-98822742D01*
%TO.C,R7*%
X174307500Y-99297258D02*
X174307500Y-98822742D01*
X175352500Y-99297258D02*
X175352500Y-98822742D01*
%TO.C,C2*%
X147364000Y-91679420D02*
X147364000Y-91960580D01*
X148384000Y-91679420D02*
X148384000Y-91960580D01*
%TO.C,C14*%
X186034000Y-72847252D02*
X186034000Y-71424748D01*
X187854000Y-72847252D02*
X187854000Y-71424748D01*
%TO.C,C7*%
X143177800Y-94258820D02*
X143177800Y-94539980D01*
X144197800Y-94258820D02*
X144197800Y-94539980D01*
%TO.C,C8*%
X143203200Y-104514820D02*
X143203200Y-104795980D01*
X144223200Y-104514820D02*
X144223200Y-104795980D01*
%TO.C,C18*%
X193654000Y-80011748D02*
X193654000Y-81434252D01*
X195474000Y-80011748D02*
X195474000Y-81434252D01*
%TO.C,C13*%
X183337252Y-77322000D02*
X181914748Y-77322000D01*
X183337252Y-79142000D02*
X181914748Y-79142000D01*
%TO.C,C11*%
X159523820Y-68060000D02*
X159804980Y-68060000D01*
X159523820Y-69080000D02*
X159804980Y-69080000D01*
%TO.C,R1*%
X151369500Y-77842342D02*
X151369500Y-78316858D01*
X152414500Y-77842342D02*
X152414500Y-78316858D01*
%TO.C,U1*%
X186890000Y-76130000D02*
X187765000Y-76130000D01*
X186890000Y-77005000D02*
X186890000Y-76130000D01*
X186890000Y-81350000D02*
X186890000Y-80475000D01*
X187765000Y-81350000D02*
X186890000Y-81350000D01*
X191235000Y-76130000D02*
X192110000Y-76130000D01*
X192110000Y-76130000D02*
X192110000Y-77005000D01*
X192110000Y-80475000D02*
X192110000Y-81350000D01*
X192110000Y-81350000D02*
X191235000Y-81350000D01*
X186360000Y-77440000D02*
X186030000Y-77680000D01*
X186030000Y-77200000D01*
X186360000Y-77440000D01*
G36*
X186360000Y-77440000D02*
G01*
X186030000Y-77680000D01*
X186030000Y-77200000D01*
X186360000Y-77440000D01*
G37*
D16*
%TO.C,J1*%
X184305000Y-93620000D02*
X184305000Y-95243800D01*
X184305000Y-99420000D02*
X184305000Y-98196200D01*
X189945000Y-92623000D02*
X190345000Y-93323000D01*
X190345000Y-93323000D02*
X190745000Y-92623000D01*
X190745000Y-92623000D02*
X189945000Y-92623000D01*
X200345000Y-93620000D02*
X184305000Y-93620000D01*
X200345000Y-99420000D02*
X184305000Y-99420000D01*
D12*
%TO.C,C16*%
X190860000Y-72847252D02*
X190860000Y-71424748D01*
X192680000Y-72847252D02*
X192680000Y-71424748D01*
%TO.C,C9*%
X150240580Y-72860000D02*
X149959420Y-72860000D01*
X150240580Y-73880000D02*
X149959420Y-73880000D01*
%TD*%
M02*
